<?xml version="1.0" encoding="utf-8" standalone="no"?>
<!DOCTYPE svg PUBLIC "-//W3C//DTD SVG 1.1//EN"
  "http://www.w3.org/Graphics/SVG/1.1/DTD/svg11.dtd">
<!-- Created with matplotlib (https://matplotlib.org/) -->
<svg height="345.6pt" version="1.1" viewBox="0 0 460.8 345.6" width="460.8pt" xmlns="http://www.w3.org/2000/svg" xmlns:xlink="http://www.w3.org/1999/xlink">
 <defs>
  <style type="text/css">
*{stroke-linecap:butt;stroke-linejoin:round;}
  </style>
 </defs>
 <g id="figure_1">
  <g id="patch_1">
   <path d="M 0 345.6 
L 460.8 345.6 
L 460.8 0 
L 0 0 
z
" style="fill:#ffffff;"/>
  </g>
  <g id="axes_1">
   <g id="patch_2">
    <path d="M 57.6 302.4 
L 414.72 302.4 
L 414.72 41.472 
L 57.6 41.472 
z
" style="fill:#eaeaf2;"/>
   </g>
   <g id="matplotlib.axis_1">
    <g id="xtick_1">
     <g id="line2d_1">
      <path clip-path="url(#pce9d67f35f)" d="M 67.207124 302.4 
L 67.207124 41.472 
" style="fill:none;stroke:#ffffff;stroke-linecap:round;stroke-width:0.8;"/>
     </g>
     <g id="text_1">
      <!-- 0 -->
      <defs>
       <path d="M 4.15625 35.296875 
Q 4.15625 48 6.765625 55.734375 
Q 9.375 63.484375 14.515625 67.671875 
Q 19.671875 71.875 27.484375 71.875 
Q 33.25 71.875 37.59375 69.546875 
Q 41.9375 67.234375 44.765625 62.859375 
Q 47.609375 58.5 49.21875 52.21875 
Q 50.828125 45.953125 50.828125 35.296875 
Q 50.828125 22.703125 48.234375 14.96875 
Q 45.65625 7.234375 40.5 3 
Q 35.359375 -1.21875 27.484375 -1.21875 
Q 17.140625 -1.21875 11.234375 6.203125 
Q 4.15625 15.140625 4.15625 35.296875 
z
M 13.1875 35.296875 
Q 13.1875 17.671875 17.3125 11.828125 
Q 21.4375 6 27.484375 6 
Q 33.546875 6 37.671875 11.859375 
Q 41.796875 17.71875 41.796875 35.296875 
Q 41.796875 52.984375 37.671875 58.78125 
Q 33.546875 64.59375 27.390625 64.59375 
Q 21.34375 64.59375 17.71875 59.46875 
Q 13.1875 52.9375 13.1875 35.296875 
z
" id="ArialMT-48"/>
      </defs>
      <g style="fill:#262626;" transform="translate(64.760312 316.998875)scale(0.088 -0.088)">
       <use xlink:href="#ArialMT-48"/>
      </g>
     </g>
    </g>
    <g id="xtick_2">
     <g id="line2d_2">
      <path clip-path="url(#pce9d67f35f)" d="M 133.463154 302.4 
L 133.463154 41.472 
" style="fill:none;stroke:#ffffff;stroke-linecap:round;stroke-width:0.8;"/>
     </g>
     <g id="text_2">
      <!-- 10 -->
      <defs>
       <path d="M 37.25 0 
L 28.46875 0 
L 28.46875 56 
Q 25.296875 52.984375 20.140625 49.953125 
Q 14.984375 46.921875 10.890625 45.40625 
L 10.890625 53.90625 
Q 18.265625 57.375 23.78125 62.296875 
Q 29.296875 67.234375 31.59375 71.875 
L 37.25 71.875 
z
" id="ArialMT-49"/>
      </defs>
      <g style="fill:#262626;" transform="translate(128.569529 316.998875)scale(0.088 -0.088)">
       <use xlink:href="#ArialMT-49"/>
       <use x="55.615234" xlink:href="#ArialMT-48"/>
      </g>
     </g>
    </g>
    <g id="xtick_3">
     <g id="line2d_3">
      <path clip-path="url(#pce9d67f35f)" d="M 199.719184 302.4 
L 199.719184 41.472 
" style="fill:none;stroke:#ffffff;stroke-linecap:round;stroke-width:0.8;"/>
     </g>
     <g id="text_3">
      <!-- 20 -->
      <defs>
       <path d="M 50.34375 8.453125 
L 50.34375 0 
L 3.03125 0 
Q 2.9375 3.171875 4.046875 6.109375 
Q 5.859375 10.9375 9.828125 15.625 
Q 13.8125 20.3125 21.34375 26.46875 
Q 33.015625 36.03125 37.109375 41.625 
Q 41.21875 47.21875 41.21875 52.203125 
Q 41.21875 57.421875 37.46875 61 
Q 33.734375 64.59375 27.734375 64.59375 
Q 21.390625 64.59375 17.578125 60.78125 
Q 13.765625 56.984375 13.71875 50.25 
L 4.6875 51.171875 
Q 5.609375 61.28125 11.65625 66.578125 
Q 17.71875 71.875 27.9375 71.875 
Q 38.234375 71.875 44.234375 66.15625 
Q 50.25 60.453125 50.25 52 
Q 50.25 47.703125 48.484375 43.546875 
Q 46.734375 39.40625 42.65625 34.8125 
Q 38.578125 30.21875 29.109375 22.21875 
Q 21.1875 15.578125 18.9375 13.203125 
Q 16.703125 10.84375 15.234375 8.453125 
z
" id="ArialMT-50"/>
      </defs>
      <g style="fill:#262626;" transform="translate(194.825559 316.998875)scale(0.088 -0.088)">
       <use xlink:href="#ArialMT-50"/>
       <use x="55.615234" xlink:href="#ArialMT-48"/>
      </g>
     </g>
    </g>
    <g id="xtick_4">
     <g id="line2d_4">
      <path clip-path="url(#pce9d67f35f)" d="M 265.975213 302.4 
L 265.975213 41.472 
" style="fill:none;stroke:#ffffff;stroke-linecap:round;stroke-width:0.8;"/>
     </g>
     <g id="text_4">
      <!-- 30 -->
      <defs>
       <path d="M 4.203125 18.890625 
L 12.984375 20.0625 
Q 14.5 12.59375 18.140625 9.296875 
Q 21.78125 6 27 6 
Q 33.203125 6 37.46875 10.296875 
Q 41.75 14.59375 41.75 20.953125 
Q 41.75 27 37.796875 30.921875 
Q 33.84375 34.859375 27.734375 34.859375 
Q 25.25 34.859375 21.53125 33.890625 
L 22.515625 41.609375 
Q 23.390625 41.5 23.921875 41.5 
Q 29.546875 41.5 34.03125 44.421875 
Q 38.53125 47.359375 38.53125 53.46875 
Q 38.53125 58.296875 35.25 61.46875 
Q 31.984375 64.65625 26.8125 64.65625 
Q 21.6875 64.65625 18.265625 61.421875 
Q 14.84375 58.203125 13.875 51.765625 
L 5.078125 53.328125 
Q 6.6875 62.15625 12.390625 67.015625 
Q 18.109375 71.875 26.609375 71.875 
Q 32.46875 71.875 37.390625 69.359375 
Q 42.328125 66.84375 44.9375 62.5 
Q 47.5625 58.15625 47.5625 53.265625 
Q 47.5625 48.640625 45.0625 44.828125 
Q 42.578125 41.015625 37.703125 38.765625 
Q 44.046875 37.3125 47.5625 32.6875 
Q 51.078125 28.078125 51.078125 21.140625 
Q 51.078125 11.765625 44.234375 5.25 
Q 37.40625 -1.265625 26.953125 -1.265625 
Q 17.53125 -1.265625 11.296875 4.34375 
Q 5.078125 9.96875 4.203125 18.890625 
z
" id="ArialMT-51"/>
      </defs>
      <g style="fill:#262626;" transform="translate(261.081588 316.998875)scale(0.088 -0.088)">
       <use xlink:href="#ArialMT-51"/>
       <use x="55.615234" xlink:href="#ArialMT-48"/>
      </g>
     </g>
    </g>
    <g id="xtick_5">
     <g id="line2d_5">
      <path clip-path="url(#pce9d67f35f)" d="M 332.231243 302.4 
L 332.231243 41.472 
" style="fill:none;stroke:#ffffff;stroke-linecap:round;stroke-width:0.8;"/>
     </g>
     <g id="text_5">
      <!-- 40 -->
      <defs>
       <path d="M 32.328125 0 
L 32.328125 17.140625 
L 1.265625 17.140625 
L 1.265625 25.203125 
L 33.9375 71.578125 
L 41.109375 71.578125 
L 41.109375 25.203125 
L 50.78125 25.203125 
L 50.78125 17.140625 
L 41.109375 17.140625 
L 41.109375 0 
z
M 32.328125 25.203125 
L 32.328125 57.46875 
L 9.90625 25.203125 
z
" id="ArialMT-52"/>
      </defs>
      <g style="fill:#262626;" transform="translate(327.337618 316.998875)scale(0.088 -0.088)">
       <use xlink:href="#ArialMT-52"/>
       <use x="55.615234" xlink:href="#ArialMT-48"/>
      </g>
     </g>
    </g>
    <g id="xtick_6">
     <g id="line2d_6">
      <path clip-path="url(#pce9d67f35f)" d="M 398.487273 302.4 
L 398.487273 41.472 
" style="fill:none;stroke:#ffffff;stroke-linecap:round;stroke-width:0.8;"/>
     </g>
     <g id="text_6">
      <!-- 50 -->
      <defs>
       <path d="M 4.15625 18.75 
L 13.375 19.53125 
Q 14.40625 12.796875 18.140625 9.390625 
Q 21.875 6 27.15625 6 
Q 33.5 6 37.890625 10.78125 
Q 42.28125 15.578125 42.28125 23.484375 
Q 42.28125 31 38.0625 35.34375 
Q 33.84375 39.703125 27 39.703125 
Q 22.75 39.703125 19.328125 37.765625 
Q 15.921875 35.84375 13.96875 32.765625 
L 5.71875 33.84375 
L 12.640625 70.609375 
L 48.25 70.609375 
L 48.25 62.203125 
L 19.671875 62.203125 
L 15.828125 42.96875 
Q 22.265625 47.46875 29.34375 47.46875 
Q 38.71875 47.46875 45.15625 40.96875 
Q 51.609375 34.46875 51.609375 24.265625 
Q 51.609375 14.546875 45.953125 7.46875 
Q 39.0625 -1.21875 27.15625 -1.21875 
Q 17.390625 -1.21875 11.203125 4.25 
Q 5.03125 9.71875 4.15625 18.75 
z
" id="ArialMT-53"/>
      </defs>
      <g style="fill:#262626;" transform="translate(393.593648 316.998875)scale(0.088 -0.088)">
       <use xlink:href="#ArialMT-53"/>
       <use x="55.615234" xlink:href="#ArialMT-48"/>
      </g>
     </g>
    </g>
    <g id="text_7">
     <!-- Episode -->
     <defs>
      <path d="M 7.90625 0 
L 7.90625 71.578125 
L 59.671875 71.578125 
L 59.671875 63.140625 
L 17.390625 63.140625 
L 17.390625 41.21875 
L 56.984375 41.21875 
L 56.984375 32.8125 
L 17.390625 32.8125 
L 17.390625 8.453125 
L 61.328125 8.453125 
L 61.328125 0 
z
" id="ArialMT-69"/>
      <path d="M 6.59375 -19.875 
L 6.59375 51.859375 
L 14.59375 51.859375 
L 14.59375 45.125 
Q 17.4375 49.078125 21 51.046875 
Q 24.5625 53.03125 29.640625 53.03125 
Q 36.28125 53.03125 41.359375 49.609375 
Q 46.4375 46.1875 49.015625 39.953125 
Q 51.609375 33.734375 51.609375 26.3125 
Q 51.609375 18.359375 48.75 11.984375 
Q 45.90625 5.609375 40.453125 2.21875 
Q 35.015625 -1.171875 29 -1.171875 
Q 24.609375 -1.171875 21.109375 0.6875 
Q 17.625 2.546875 15.375 5.375 
L 15.375 -19.875 
z
M 14.546875 25.640625 
Q 14.546875 15.625 18.59375 10.84375 
Q 22.65625 6.0625 28.421875 6.0625 
Q 34.28125 6.0625 38.453125 11.015625 
Q 42.625 15.96875 42.625 26.375 
Q 42.625 36.28125 38.546875 41.203125 
Q 34.46875 46.140625 28.8125 46.140625 
Q 23.1875 46.140625 18.859375 40.890625 
Q 14.546875 35.640625 14.546875 25.640625 
z
" id="ArialMT-112"/>
      <path d="M 6.640625 61.46875 
L 6.640625 71.578125 
L 15.4375 71.578125 
L 15.4375 61.46875 
z
M 6.640625 0 
L 6.640625 51.859375 
L 15.4375 51.859375 
L 15.4375 0 
z
" id="ArialMT-105"/>
      <path d="M 3.078125 15.484375 
L 11.765625 16.84375 
Q 12.5 11.625 15.84375 8.84375 
Q 19.1875 6.0625 25.203125 6.0625 
Q 31.25 6.0625 34.171875 8.515625 
Q 37.109375 10.984375 37.109375 14.3125 
Q 37.109375 17.28125 34.515625 19 
Q 32.71875 20.171875 25.53125 21.96875 
Q 15.875 24.421875 12.140625 26.203125 
Q 8.40625 27.984375 6.46875 31.125 
Q 4.546875 34.28125 4.546875 38.09375 
Q 4.546875 41.546875 6.125 44.5 
Q 7.71875 47.46875 10.453125 49.421875 
Q 12.5 50.921875 16.03125 51.96875 
Q 19.578125 53.03125 23.640625 53.03125 
Q 29.734375 53.03125 34.34375 51.265625 
Q 38.96875 49.515625 41.15625 46.5 
Q 43.359375 43.5 44.1875 38.484375 
L 35.59375 37.3125 
Q 35.015625 41.3125 32.203125 43.546875 
Q 29.390625 45.796875 24.265625 45.796875 
Q 18.21875 45.796875 15.625 43.796875 
Q 13.03125 41.796875 13.03125 39.109375 
Q 13.03125 37.40625 14.109375 36.03125 
Q 15.1875 34.625 17.484375 33.6875 
Q 18.796875 33.203125 25.25 31.453125 
Q 34.578125 28.953125 38.25 27.359375 
Q 41.9375 25.78125 44.03125 22.75 
Q 46.140625 19.734375 46.140625 15.234375 
Q 46.140625 10.84375 43.578125 6.953125 
Q 41.015625 3.078125 36.171875 0.953125 
Q 31.34375 -1.171875 25.25 -1.171875 
Q 15.140625 -1.171875 9.84375 3.03125 
Q 4.546875 7.234375 3.078125 15.484375 
z
" id="ArialMT-115"/>
      <path d="M 3.328125 25.921875 
Q 3.328125 40.328125 11.328125 47.265625 
Q 18.015625 53.03125 27.640625 53.03125 
Q 38.328125 53.03125 45.109375 46.015625 
Q 51.90625 39.015625 51.90625 26.65625 
Q 51.90625 16.65625 48.90625 10.90625 
Q 45.90625 5.171875 40.15625 2 
Q 34.421875 -1.171875 27.640625 -1.171875 
Q 16.75 -1.171875 10.03125 5.8125 
Q 3.328125 12.796875 3.328125 25.921875 
z
M 12.359375 25.921875 
Q 12.359375 15.96875 16.703125 11.015625 
Q 21.046875 6.0625 27.640625 6.0625 
Q 34.1875 6.0625 38.53125 11.03125 
Q 42.875 16.015625 42.875 26.21875 
Q 42.875 35.84375 38.5 40.796875 
Q 34.125 45.75 27.640625 45.75 
Q 21.046875 45.75 16.703125 40.8125 
Q 12.359375 35.890625 12.359375 25.921875 
z
" id="ArialMT-111"/>
      <path d="M 40.234375 0 
L 40.234375 6.546875 
Q 35.296875 -1.171875 25.734375 -1.171875 
Q 19.53125 -1.171875 14.328125 2.25 
Q 9.125 5.671875 6.265625 11.796875 
Q 3.421875 17.921875 3.421875 25.875 
Q 3.421875 33.640625 6 39.96875 
Q 8.59375 46.296875 13.765625 49.65625 
Q 18.953125 53.03125 25.34375 53.03125 
Q 30.03125 53.03125 33.6875 51.046875 
Q 37.359375 49.078125 39.65625 45.90625 
L 39.65625 71.578125 
L 48.390625 71.578125 
L 48.390625 0 
z
M 12.453125 25.875 
Q 12.453125 15.921875 16.640625 10.984375 
Q 20.84375 6.0625 26.5625 6.0625 
Q 32.328125 6.0625 36.34375 10.765625 
Q 40.375 15.484375 40.375 25.140625 
Q 40.375 35.796875 36.265625 40.765625 
Q 32.171875 45.75 26.171875 45.75 
Q 20.3125 45.75 16.375 40.96875 
Q 12.453125 36.1875 12.453125 25.875 
z
" id="ArialMT-100"/>
      <path d="M 42.09375 16.703125 
L 51.171875 15.578125 
Q 49.03125 7.625 43.21875 3.21875 
Q 37.40625 -1.171875 28.375 -1.171875 
Q 17 -1.171875 10.328125 5.828125 
Q 3.65625 12.84375 3.65625 25.484375 
Q 3.65625 38.578125 10.390625 45.796875 
Q 17.140625 53.03125 27.875 53.03125 
Q 38.28125 53.03125 44.875 45.953125 
Q 51.46875 38.875 51.46875 26.03125 
Q 51.46875 25.25 51.421875 23.6875 
L 12.75 23.6875 
Q 13.234375 15.140625 17.578125 10.59375 
Q 21.921875 6.0625 28.421875 6.0625 
Q 33.25 6.0625 36.671875 8.59375 
Q 40.09375 11.140625 42.09375 16.703125 
z
M 13.234375 30.90625 
L 42.1875 30.90625 
Q 41.609375 37.453125 38.875 40.71875 
Q 34.671875 45.796875 27.984375 45.796875 
Q 21.921875 45.796875 17.796875 41.75 
Q 13.671875 37.703125 13.234375 30.90625 
z
" id="ArialMT-101"/>
     </defs>
     <g style="fill:#262626;" transform="translate(218.81475 329.619375)scale(0.096 -0.096)">
      <use xlink:href="#ArialMT-69"/>
      <use x="66.699219" xlink:href="#ArialMT-112"/>
      <use x="122.314453" xlink:href="#ArialMT-105"/>
      <use x="144.53125" xlink:href="#ArialMT-115"/>
      <use x="194.53125" xlink:href="#ArialMT-111"/>
      <use x="250.146484" xlink:href="#ArialMT-100"/>
      <use x="305.761719" xlink:href="#ArialMT-101"/>
     </g>
    </g>
   </g>
   <g id="matplotlib.axis_2">
    <g id="ytick_1">
     <g id="line2d_7">
      <path clip-path="url(#pce9d67f35f)" d="M 57.6 262.286419 
L 414.72 262.286419 
" style="fill:none;stroke:#ffffff;stroke-linecap:round;stroke-width:0.8;"/>
     </g>
     <g id="text_8">
      <!-- 0.0 -->
      <defs>
       <path d="M 9.078125 0 
L 9.078125 10.015625 
L 19.09375 10.015625 
L 19.09375 0 
z
" id="ArialMT-46"/>
      </defs>
      <g style="fill:#262626;" transform="translate(37.068 265.435856)scale(0.088 -0.088)">
       <use xlink:href="#ArialMT-48"/>
       <use x="55.615234" xlink:href="#ArialMT-46"/>
       <use x="83.398438" xlink:href="#ArialMT-48"/>
      </g>
     </g>
    </g>
    <g id="ytick_2">
     <g id="line2d_8">
      <path clip-path="url(#pce9d67f35f)" d="M 57.6 215.407547 
L 414.72 215.407547 
" style="fill:none;stroke:#ffffff;stroke-linecap:round;stroke-width:0.8;"/>
     </g>
     <g id="text_9">
      <!-- 0.2 -->
      <g style="fill:#262626;" transform="translate(37.068 218.556985)scale(0.088 -0.088)">
       <use xlink:href="#ArialMT-48"/>
       <use x="55.615234" xlink:href="#ArialMT-46"/>
       <use x="83.398438" xlink:href="#ArialMT-50"/>
      </g>
     </g>
    </g>
    <g id="ytick_3">
     <g id="line2d_9">
      <path clip-path="url(#pce9d67f35f)" d="M 57.6 168.528676 
L 414.72 168.528676 
" style="fill:none;stroke:#ffffff;stroke-linecap:round;stroke-width:0.8;"/>
     </g>
     <g id="text_10">
      <!-- 0.4 -->
      <g style="fill:#262626;" transform="translate(37.068 171.678113)scale(0.088 -0.088)">
       <use xlink:href="#ArialMT-48"/>
       <use x="55.615234" xlink:href="#ArialMT-46"/>
       <use x="83.398438" xlink:href="#ArialMT-52"/>
      </g>
     </g>
    </g>
    <g id="ytick_4">
     <g id="line2d_10">
      <path clip-path="url(#pce9d67f35f)" d="M 57.6 121.649804 
L 414.72 121.649804 
" style="fill:none;stroke:#ffffff;stroke-linecap:round;stroke-width:0.8;"/>
     </g>
     <g id="text_11">
      <!-- 0.6 -->
      <defs>
       <path d="M 49.75 54.046875 
L 41.015625 53.375 
Q 39.84375 58.546875 37.703125 60.890625 
Q 34.125 64.65625 28.90625 64.65625 
Q 24.703125 64.65625 21.53125 62.3125 
Q 17.390625 59.28125 14.984375 53.46875 
Q 12.59375 47.65625 12.5 36.921875 
Q 15.671875 41.75 20.265625 44.09375 
Q 24.859375 46.4375 29.890625 46.4375 
Q 38.671875 46.4375 44.84375 39.96875 
Q 51.03125 33.5 51.03125 23.25 
Q 51.03125 16.5 48.125 10.71875 
Q 45.21875 4.9375 40.140625 1.859375 
Q 35.0625 -1.21875 28.609375 -1.21875 
Q 17.625 -1.21875 10.6875 6.859375 
Q 3.765625 14.9375 3.765625 33.5 
Q 3.765625 54.25 11.421875 63.671875 
Q 18.109375 71.875 29.4375 71.875 
Q 37.890625 71.875 43.28125 67.140625 
Q 48.6875 62.40625 49.75 54.046875 
z
M 13.875 23.1875 
Q 13.875 18.65625 15.796875 14.5 
Q 17.71875 10.359375 21.1875 8.171875 
Q 24.65625 6 28.46875 6 
Q 34.03125 6 38.03125 10.484375 
Q 42.046875 14.984375 42.046875 22.703125 
Q 42.046875 30.125 38.078125 34.390625 
Q 34.125 38.671875 28.125 38.671875 
Q 22.171875 38.671875 18.015625 34.390625 
Q 13.875 30.125 13.875 23.1875 
z
" id="ArialMT-54"/>
      </defs>
      <g style="fill:#262626;" transform="translate(37.068 124.799241)scale(0.088 -0.088)">
       <use xlink:href="#ArialMT-48"/>
       <use x="55.615234" xlink:href="#ArialMT-46"/>
       <use x="83.398438" xlink:href="#ArialMT-54"/>
      </g>
     </g>
    </g>
    <g id="ytick_5">
     <g id="line2d_11">
      <path clip-path="url(#pce9d67f35f)" d="M 57.6 74.770932 
L 414.72 74.770932 
" style="fill:none;stroke:#ffffff;stroke-linecap:round;stroke-width:0.8;"/>
     </g>
     <g id="text_12">
      <!-- 0.8 -->
      <defs>
       <path d="M 17.671875 38.8125 
Q 12.203125 40.828125 9.5625 44.53125 
Q 6.9375 48.25 6.9375 53.421875 
Q 6.9375 61.234375 12.546875 66.546875 
Q 18.171875 71.875 27.484375 71.875 
Q 36.859375 71.875 42.578125 66.421875 
Q 48.296875 60.984375 48.296875 53.171875 
Q 48.296875 48.1875 45.671875 44.5 
Q 43.0625 40.828125 37.75 38.8125 
Q 44.34375 36.671875 47.78125 31.875 
Q 51.21875 27.09375 51.21875 20.453125 
Q 51.21875 11.28125 44.71875 5.03125 
Q 38.234375 -1.21875 27.640625 -1.21875 
Q 17.046875 -1.21875 10.546875 5.046875 
Q 4.046875 11.328125 4.046875 20.703125 
Q 4.046875 27.6875 7.59375 32.390625 
Q 11.140625 37.109375 17.671875 38.8125 
z
M 15.921875 53.71875 
Q 15.921875 48.640625 19.1875 45.40625 
Q 22.46875 42.1875 27.6875 42.1875 
Q 32.765625 42.1875 36.015625 45.375 
Q 39.265625 48.578125 39.265625 53.21875 
Q 39.265625 58.0625 35.90625 61.359375 
Q 32.5625 64.65625 27.59375 64.65625 
Q 22.5625 64.65625 19.234375 61.421875 
Q 15.921875 58.203125 15.921875 53.71875 
z
M 13.09375 20.65625 
Q 13.09375 16.890625 14.875 13.375 
Q 16.65625 9.859375 20.171875 7.921875 
Q 23.6875 6 27.734375 6 
Q 34.03125 6 38.125 10.046875 
Q 42.234375 14.109375 42.234375 20.359375 
Q 42.234375 26.703125 38.015625 30.859375 
Q 33.796875 35.015625 27.4375 35.015625 
Q 21.234375 35.015625 17.15625 30.90625 
Q 13.09375 26.8125 13.09375 20.65625 
z
" id="ArialMT-56"/>
      </defs>
      <g style="fill:#262626;" transform="translate(37.068 77.92037)scale(0.088 -0.088)">
       <use xlink:href="#ArialMT-48"/>
       <use x="55.615234" xlink:href="#ArialMT-46"/>
       <use x="83.398438" xlink:href="#ArialMT-56"/>
      </g>
     </g>
    </g>
    <g id="text_13">
     <!-- Final ROI -->
     <defs>
      <path d="M 8.203125 0 
L 8.203125 71.578125 
L 56.5 71.578125 
L 56.5 63.140625 
L 17.671875 63.140625 
L 17.671875 40.96875 
L 51.265625 40.96875 
L 51.265625 32.515625 
L 17.671875 32.515625 
L 17.671875 0 
z
" id="ArialMT-70"/>
      <path d="M 6.59375 0 
L 6.59375 51.859375 
L 14.5 51.859375 
L 14.5 44.484375 
Q 20.21875 53.03125 31 53.03125 
Q 35.6875 53.03125 39.625 51.34375 
Q 43.5625 49.65625 45.515625 46.921875 
Q 47.46875 44.1875 48.25 40.4375 
Q 48.734375 37.984375 48.734375 31.890625 
L 48.734375 0 
L 39.9375 0 
L 39.9375 31.546875 
Q 39.9375 36.921875 38.90625 39.578125 
Q 37.890625 42.234375 35.28125 43.8125 
Q 32.671875 45.40625 29.15625 45.40625 
Q 23.53125 45.40625 19.453125 41.84375 
Q 15.375 38.28125 15.375 28.328125 
L 15.375 0 
z
" id="ArialMT-110"/>
      <path d="M 40.4375 6.390625 
Q 35.546875 2.25 31.03125 0.53125 
Q 26.515625 -1.171875 21.34375 -1.171875 
Q 12.796875 -1.171875 8.203125 3 
Q 3.609375 7.171875 3.609375 13.671875 
Q 3.609375 17.484375 5.34375 20.625 
Q 7.078125 23.78125 9.890625 25.6875 
Q 12.703125 27.59375 16.21875 28.5625 
Q 18.796875 29.25 24.03125 29.890625 
Q 34.671875 31.15625 39.703125 32.90625 
Q 39.75 34.71875 39.75 35.203125 
Q 39.75 40.578125 37.25 42.78125 
Q 33.890625 45.75 27.25 45.75 
Q 21.046875 45.75 18.09375 43.578125 
Q 15.140625 41.40625 13.71875 35.890625 
L 5.125 37.0625 
Q 6.296875 42.578125 8.984375 45.96875 
Q 11.671875 49.359375 16.75 51.1875 
Q 21.828125 53.03125 28.515625 53.03125 
Q 35.15625 53.03125 39.296875 51.46875 
Q 43.453125 49.90625 45.40625 47.53125 
Q 47.359375 45.171875 48.140625 41.546875 
Q 48.578125 39.3125 48.578125 33.453125 
L 48.578125 21.734375 
Q 48.578125 9.46875 49.140625 6.21875 
Q 49.703125 2.984375 51.375 0 
L 42.1875 0 
Q 40.828125 2.734375 40.4375 6.390625 
z
M 39.703125 26.03125 
Q 34.90625 24.078125 25.34375 22.703125 
Q 19.921875 21.921875 17.671875 20.9375 
Q 15.4375 19.96875 14.203125 18.09375 
Q 12.984375 16.21875 12.984375 13.921875 
Q 12.984375 10.40625 15.640625 8.0625 
Q 18.3125 5.71875 23.4375 5.71875 
Q 28.515625 5.71875 32.46875 7.9375 
Q 36.421875 10.15625 38.28125 14.015625 
Q 39.703125 17 39.703125 22.796875 
z
" id="ArialMT-97"/>
      <path d="M 6.390625 0 
L 6.390625 71.578125 
L 15.1875 71.578125 
L 15.1875 0 
z
" id="ArialMT-108"/>
      <path id="ArialMT-32"/>
      <path d="M 7.859375 0 
L 7.859375 71.578125 
L 39.59375 71.578125 
Q 49.171875 71.578125 54.140625 69.640625 
Q 59.125 67.71875 62.109375 62.828125 
Q 65.09375 57.953125 65.09375 52.046875 
Q 65.09375 44.4375 60.15625 39.203125 
Q 55.21875 33.984375 44.921875 32.5625 
Q 48.6875 30.765625 50.640625 29 
Q 54.78125 25.203125 58.5 19.484375 
L 70.953125 0 
L 59.03125 0 
L 49.5625 14.890625 
Q 45.40625 21.34375 42.71875 24.75 
Q 40.046875 28.171875 37.921875 29.53125 
Q 35.796875 30.90625 33.59375 31.453125 
Q 31.984375 31.78125 28.328125 31.78125 
L 17.328125 31.78125 
L 17.328125 0 
z
M 17.328125 39.984375 
L 37.703125 39.984375 
Q 44.1875 39.984375 47.84375 41.328125 
Q 51.515625 42.671875 53.421875 45.625 
Q 55.328125 48.578125 55.328125 52.046875 
Q 55.328125 57.125 51.640625 60.390625 
Q 47.953125 63.671875 39.984375 63.671875 
L 17.328125 63.671875 
z
" id="ArialMT-82"/>
      <path d="M 4.828125 34.859375 
Q 4.828125 52.6875 14.390625 62.765625 
Q 23.96875 72.859375 39.109375 72.859375 
Q 49.03125 72.859375 56.984375 68.109375 
Q 64.9375 63.375 69.109375 54.90625 
Q 73.296875 46.4375 73.296875 35.6875 
Q 73.296875 24.8125 68.890625 16.21875 
Q 64.5 7.625 56.4375 3.203125 
Q 48.390625 -1.21875 39.0625 -1.21875 
Q 28.953125 -1.21875 20.984375 3.65625 
Q 13.03125 8.546875 8.921875 16.984375 
Q 4.828125 25.4375 4.828125 34.859375 
z
M 14.59375 34.71875 
Q 14.59375 21.78125 21.546875 14.328125 
Q 28.515625 6.890625 39.015625 6.890625 
Q 49.703125 6.890625 56.609375 14.40625 
Q 63.53125 21.921875 63.53125 35.75 
Q 63.53125 44.484375 60.578125 51 
Q 57.625 57.515625 51.921875 61.109375 
Q 46.234375 64.703125 39.15625 64.703125 
Q 29.109375 64.703125 21.84375 57.78125 
Q 14.59375 50.875 14.59375 34.71875 
z
" id="ArialMT-79"/>
      <path d="M 9.328125 0 
L 9.328125 71.578125 
L 18.796875 71.578125 
L 18.796875 0 
z
" id="ArialMT-73"/>
     </defs>
     <g style="fill:#262626;" transform="translate(31.16 192.20625)rotate(-90)scale(0.096 -0.096)">
      <use xlink:href="#ArialMT-70"/>
      <use x="61.083984" xlink:href="#ArialMT-105"/>
      <use x="83.300781" xlink:href="#ArialMT-110"/>
      <use x="138.916016" xlink:href="#ArialMT-97"/>
      <use x="194.53125" xlink:href="#ArialMT-108"/>
      <use x="216.748047" xlink:href="#ArialMT-32"/>
      <use x="244.53125" xlink:href="#ArialMT-82"/>
      <use x="316.748047" xlink:href="#ArialMT-79"/>
      <use x="394.53125" xlink:href="#ArialMT-73"/>
     </g>
    </g>
   </g>
   <g id="PolyCollection_1">
    <defs>
     <path d="M 73.832727 -83.332203 
L 73.832727 -83.211835 
L 80.45833 -83.27392 
L 87.083933 -83.196404 
L 93.709536 -83.193896 
L 100.335139 -83.264615 
L 106.960742 -83.099389 
L 113.586345 -83.176246 
L 120.211948 -83.128633 
L 126.837551 -83.223981 
L 133.463154 -82.977957 
L 140.088757 -83.204622 
L 146.71436 -83.175192 
L 153.339963 -83.002069 
L 159.965566 -83.27046 
L 166.591169 -83.371513 
L 173.216772 -83.383935 
L 179.842375 -83.265232 
L 186.467978 -83.257663 
L 193.093581 -83.317983 
L 199.719184 -83.129084 
L 206.344787 -83.020063 
L 212.97039 -83.025497 
L 219.595993 -83.02122 
L 226.221596 -83.258439 
L 232.847199 -82.709887 
L 239.472801 -82.83774 
L 246.098404 -82.683587 
L 252.724007 -83.351892 
L 259.34961 -83.143905 
L 265.975213 -83.171754 
L 272.600816 -82.214341 
L 279.226419 -83.107571 
L 285.852022 -83.338197 
L 292.477625 -82.912091 
L 299.103228 -83.236075 
L 305.728831 -83.08314 
L 312.354434 -82.876412 
L 318.980037 -82.890235 
L 325.60564 -83.0741 
L 332.231243 -82.974239 
L 338.856846 -83.227443 
L 345.482449 -82.833579 
L 352.108052 -83.11932 
L 358.733655 -82.931975 
L 365.359258 -83.027568 
L 371.984861 -82.98708 
L 378.610464 -82.921083 
L 385.236067 -82.602348 
L 391.86167 -83.236521 
L 398.487273 -82.864803 
L 398.487273 -83.584804 
L 398.487273 -83.584804 
L 391.86167 -83.520659 
L 385.236067 -83.429542 
L 378.610464 -83.690672 
L 371.984861 -83.420219 
L 365.359258 -83.858289 
L 358.733655 -83.562999 
L 352.108052 -83.761492 
L 345.482449 -83.416474 
L 338.856846 -83.758383 
L 332.231243 -83.560324 
L 325.60564 -83.633845 
L 318.980037 -83.631355 
L 312.354434 -83.723069 
L 305.728831 -83.527301 
L 299.103228 -83.620657 
L 292.477625 -83.592996 
L 285.852022 -83.85784 
L 279.226419 -83.534664 
L 272.600816 -83.570022 
L 265.975213 -83.684915 
L 259.34961 -83.418204 
L 252.724007 -84.040736 
L 246.098404 -83.096751 
L 239.472801 -83.377886 
L 232.847199 -83.400341 
L 226.221596 -83.70592 
L 219.595993 -83.315717 
L 212.97039 -83.407259 
L 206.344787 -83.469886 
L 199.719184 -83.497557 
L 193.093581 -83.636559 
L 186.467978 -83.691559 
L 179.842375 -83.685389 
L 173.216772 -83.781875 
L 166.591169 -83.652054 
L 159.965566 -83.577075 
L 153.339963 -83.342716 
L 146.71436 -83.688888 
L 140.088757 -83.544395 
L 133.463154 -83.326074 
L 126.837551 -83.473902 
L 120.211948 -83.391568 
L 113.586345 -83.391513 
L 106.960742 -83.358043 
L 100.335139 -83.407259 
L 93.709536 -83.350219 
L 87.083933 -83.297183 
L 80.45833 -83.358194 
L 73.832727 -83.332203 
z
" id="mc7afec7aa7" style="stroke:#4c72b0;stroke-opacity:0.2;stroke-width:0.8;"/>
    </defs>
    <g clip-path="url(#pce9d67f35f)">
     <use style="fill:#4c72b0;fill-opacity:0.2;stroke:#4c72b0;stroke-opacity:0.2;stroke-width:0.8;" x="0" xlink:href="#mc7afec7aa7" y="345.6"/>
    </g>
   </g>
   <g id="PolyCollection_2">
    <defs>
     <path d="M 73.832727 -84.371256 
L 73.832727 -82.141159 
L 80.45833 -72.786942 
L 87.083933 -72.149877 
L 93.709536 -64.788729 
L 100.335139 -63.434498 
L 106.960742 -66.203302 
L 113.586345 -62.053686 
L 120.211948 -61.178118 
L 126.837551 -61.178179 
L 133.463154 -61.390713 
L 140.088757 -62.310503 
L 146.71436 -62.98437 
L 153.339963 -61.406918 
L 159.965566 -61.886834 
L 166.591169 -62.130441 
L 173.216772 -60.542958 
L 179.842375 -63.911413 
L 186.467978 -60.95122 
L 193.093581 -61.419827 
L 199.719184 -61.574643 
L 206.344787 -61.165675 
L 212.97039 -61.404951 
L 219.595993 -60.704975 
L 226.221596 -60.396878 
L 232.847199 -61.269433 
L 239.472801 -62.399145 
L 246.098404 -62.794737 
L 252.724007 -61.523364 
L 259.34961 -61.876649 
L 265.975213 -61.731067 
L 272.600816 -61.744101 
L 279.226419 -61.130885 
L 285.852022 -62.289657 
L 292.477625 -63.499147 
L 299.103228 -62.85449 
L 305.728831 -62.515813 
L 312.354434 -63.005326 
L 318.980037 -64.872692 
L 325.60564 -64.049168 
L 332.231243 -63.322248 
L 338.856846 -63.837172 
L 345.482449 -64.692839 
L 352.108052 -64.740887 
L 358.733655 -62.063124 
L 365.359258 -57.711872 
L 371.984861 -59.044314 
L 378.610464 -58.035689 
L 385.236067 -55.060364 
L 391.86167 -57.328227 
L 398.487273 -58.011791 
L 398.487273 -101.742421 
L 398.487273 -101.742421 
L 391.86167 -103.357116 
L 385.236067 -101.00026 
L 378.610464 -102.619624 
L 371.984861 -100.0893 
L 365.359258 -102.771905 
L 358.733655 -104.453326 
L 352.108052 -105.436522 
L 345.482449 -105.777727 
L 338.856846 -103.584726 
L 332.231243 -103.179925 
L 325.60564 -101.707377 
L 318.980037 -105.980521 
L 312.354434 -104.143369 
L 305.728831 -105.078071 
L 299.103228 -104.502134 
L 292.477625 -102.527722 
L 285.852022 -102.15272 
L 279.226419 -101.655945 
L 272.600816 -103.707782 
L 265.975213 -101.41955 
L 259.34961 -102.898934 
L 252.724007 -101.429705 
L 246.098404 -102.889148 
L 239.472801 -104.062134 
L 232.847199 -102.345066 
L 226.221596 -103.233433 
L 219.595993 -104.772629 
L 212.97039 -103.913431 
L 206.344787 -103.190127 
L 199.719184 -103.208949 
L 193.093581 -102.336139 
L 186.467978 -105.189328 
L 179.842375 -104.970062 
L 173.216772 -104.119695 
L 166.591169 -105.786363 
L 159.965566 -104.799435 
L 153.339963 -103.857695 
L 146.71436 -103.725368 
L 140.088757 -104.578594 
L 133.463154 -102.96414 
L 126.837551 -103.318128 
L 120.211948 -102.240352 
L 113.586345 -101.192294 
L 106.960742 -102.109165 
L 100.335139 -89.141001 
L 93.709536 -91.296089 
L 87.083933 -93.207139 
L 80.45833 -84.671583 
L 73.832727 -84.371256 
z
" id="m08afe011f3" style="stroke:#dd8452;stroke-opacity:0.2;stroke-width:0.8;"/>
    </defs>
    <g clip-path="url(#pce9d67f35f)">
     <use style="fill:#dd8452;fill-opacity:0.2;stroke:#dd8452;stroke-opacity:0.2;stroke-width:0.8;" x="0" xlink:href="#m08afe011f3" y="345.6"/>
    </g>
   </g>
   <g id="PolyCollection_3">
    <defs>
     <path d="M 73.832727 -83.575806 
L 73.832727 -83.252752 
L 80.45833 -82.934578 
L 87.083933 -82.93615 
L 93.709536 -82.989379 
L 100.335139 -83.119156 
L 106.960742 -82.911728 
L 113.586345 -82.772479 
L 120.211948 -82.777687 
L 126.837551 -82.834713 
L 133.463154 -82.86816 
L 140.088757 -82.841195 
L 146.71436 -82.786136 
L 153.339963 -83.032154 
L 159.965566 -83.115333 
L 166.591169 -82.768297 
L 173.216772 -82.853409 
L 179.842375 -82.912562 
L 186.467978 -82.934575 
L 193.093581 -82.684433 
L 199.719184 -82.847755 
L 206.344787 -82.863979 
L 212.97039 -82.915204 
L 219.595993 -82.834274 
L 226.221596 -82.889462 
L 232.847199 -82.803985 
L 239.472801 -82.861521 
L 246.098404 -82.799591 
L 252.724007 -82.938916 
L 259.34961 -82.593065 
L 265.975213 -82.827432 
L 272.600816 -82.787125 
L 279.226419 -82.928322 
L 285.852022 -82.640212 
L 292.477625 -83.080124 
L 299.103228 -82.99216 
L 305.728831 -82.807784 
L 312.354434 -82.785687 
L 318.980037 -82.925697 
L 325.60564 -82.799838 
L 332.231243 -82.790499 
L 338.856846 -82.807864 
L 345.482449 -83.003719 
L 352.108052 -82.790061 
L 358.733655 -82.863169 
L 365.359258 -82.953714 
L 371.984861 -82.771481 
L 378.610464 -82.951322 
L 385.236067 -82.728007 
L 391.86167 -82.706455 
L 398.487273 -82.87889 
L 398.487273 -83.902466 
L 398.487273 -83.902466 
L 391.86167 -83.802513 
L 385.236067 -83.914935 
L 378.610464 -83.965024 
L 371.984861 -83.938018 
L 365.359258 -84.119734 
L 358.733655 -84.086987 
L 352.108052 -83.966931 
L 345.482449 -84.069619 
L 338.856846 -83.861553 
L 332.231243 -83.722031 
L 325.60564 -83.975156 
L 318.980037 -83.883539 
L 312.354434 -83.957095 
L 305.728831 -83.858065 
L 299.103228 -84.006768 
L 292.477625 -84.63446 
L 285.852022 -83.801641 
L 279.226419 -83.899231 
L 272.600816 -83.971265 
L 265.975213 -83.869478 
L 259.34961 -83.954886 
L 252.724007 -83.914726 
L 246.098404 -84.052832 
L 239.472801 -84.261159 
L 232.847199 -83.847983 
L 226.221596 -84.153774 
L 219.595993 -83.786806 
L 212.97039 -84.051782 
L 206.344787 -83.886444 
L 199.719184 -83.904431 
L 193.093581 -84.036285 
L 186.467978 -84.137902 
L 179.842375 -83.92704 
L 173.216772 -83.88631 
L 166.591169 -83.964145 
L 159.965566 -84.120927 
L 153.339963 -83.879987 
L 146.71436 -83.971513 
L 140.088757 -84.010907 
L 133.463154 -84.068595 
L 126.837551 -84.034527 
L 120.211948 -83.914125 
L 113.586345 -83.787259 
L 106.960742 -83.940969 
L 100.335139 -84.119756 
L 93.709536 -83.961867 
L 87.083933 -83.793081 
L 80.45833 -83.74737 
L 73.832727 -83.575806 
z
" id="m3db92c7243" style="stroke:#55a868;stroke-opacity:0.2;stroke-width:0.8;"/>
    </defs>
    <g clip-path="url(#pce9d67f35f)">
     <use style="fill:#55a868;fill-opacity:0.2;stroke:#55a868;stroke-opacity:0.2;stroke-width:0.8;" x="0" xlink:href="#m3db92c7243" y="345.6"/>
    </g>
   </g>
   <g id="PolyCollection_4">
    <defs>
     <path d="M 73.832727 -83.637222 
L 73.832727 -83.360659 
L 80.45833 -82.560803 
L 87.083933 -83.715605 
L 93.709536 -83.973447 
L 100.335139 -84.154598 
L 106.960742 -85.8043 
L 113.586345 -77.842899 
L 120.211948 -90.780498 
L 126.837551 -85.787344 
L 133.463154 -84.35145 
L 140.088757 -93.191579 
L 146.71436 -99.345624 
L 153.339963 -77.3725 
L 159.965566 -90.455499 
L 166.591169 -96.088081 
L 173.216772 -97.951554 
L 179.842375 -80.633619 
L 186.467978 -85.16171 
L 193.093581 -89.705834 
L 199.719184 -80.262126 
L 206.344787 -97.356414 
L 212.97039 -82.823344 
L 219.595993 -85.403436 
L 226.221596 -81.554452 
L 232.847199 -102.032249 
L 239.472801 -70.310532 
L 246.098404 -93.115333 
L 252.724007 -88.950883 
L 259.34961 -78.46874 
L 265.975213 -94.684533 
L 272.600816 -81.095396 
L 279.226419 -83.046097 
L 285.852022 -98.002886 
L 292.477625 -95.326631 
L 299.103228 -82.964947 
L 305.728831 -101.64608 
L 312.354434 -87.210206 
L 318.980037 -86.294953 
L 325.60564 -96.70878 
L 332.231243 -91.871638 
L 338.856846 -102.213363 
L 345.482449 -97.418288 
L 352.108052 -81.420665 
L 358.733655 -99.141469 
L 365.359258 -77.153474 
L 371.984861 -92.702401 
L 378.610464 -101.822377 
L 385.236067 -86.238764 
L 391.86167 -94.447106 
L 398.487273 -86.902082 
L 398.487273 -173.729285 
L 398.487273 -173.729285 
L 391.86167 -282.156721 
L 385.236067 -172.451006 
L 378.610464 -279.905272 
L 371.984861 -260.712185 
L 365.359258 -257.115055 
L 358.733655 -179.695693 
L 352.108052 -158.496231 
L 345.482449 -276.556117 
L 338.856846 -283.503879 
L 332.231243 -168.664598 
L 325.60564 -187.945073 
L 318.980037 -259.41476 
L 312.354434 -255.72421 
L 305.728831 -272.154928 
L 299.103228 -165.20521 
L 292.477625 -292.267636 
L 285.852022 -273.682442 
L 279.226419 -156.457808 
L 272.600816 -161.308573 
L 265.975213 -181.673236 
L 259.34961 -254.698303 
L 252.724007 -254.289013 
L 246.098404 -170.293265 
L 239.472801 -150.677204 
L 232.847199 -182.230322 
L 226.221596 -152.856738 
L 219.595993 -251.519912 
L 212.97039 -240.114505 
L 206.344787 -171.306498 
L 199.719184 -141.692239 
L 193.093581 -153.27388 
L 186.467978 -247.682147 
L 179.842375 -157.521294 
L 173.216772 -265.969749 
L 166.591169 -277.692409 
L 159.965566 -151.150924 
L 153.339963 -227.755271 
L 146.71436 -274.260813 
L 140.088757 -145.209005 
L 133.463154 -121.940577 
L 126.837551 -112.355798 
L 120.211948 -261.417655 
L 113.586345 -103.210754 
L 106.960742 -125.150829 
L 100.335139 -149.886496 
L 93.709536 -107.888788 
L 87.083933 -99.229655 
L 80.45833 -88.115708 
L 73.832727 -83.637222 
z
" id="m98810e585c" style="stroke:#c44e52;stroke-opacity:0.2;stroke-width:0.8;"/>
    </defs>
    <g clip-path="url(#pce9d67f35f)">
     <use style="fill:#c44e52;fill-opacity:0.2;stroke:#c44e52;stroke-opacity:0.2;stroke-width:0.8;" x="0" xlink:href="#m98810e585c" y="345.6"/>
    </g>
   </g>
   <g id="PolyCollection_5">
    <defs>
     <path d="M 73.832727 -83.95817 
L 73.832727 -83.150134 
L 80.45833 -81.618708 
L 87.083933 -82.041965 
L 93.709536 -81.292941 
L 100.335139 -71.720738 
L 106.960742 -82.151842 
L 113.586345 -80.527597 
L 120.211948 -80.275068 
L 126.837551 -78.882374 
L 133.463154 -82.477537 
L 140.088757 -78.77574 
L 146.71436 -77.746295 
L 153.339963 -86.651951 
L 159.965566 -84.031863 
L 166.591169 -73.847583 
L 173.216772 -79.928098 
L 179.842375 -67.866353 
L 186.467978 -79.269311 
L 193.093581 -84.567494 
L 199.719184 -86.821707 
L 206.344787 -70.848236 
L 212.97039 -88.037704 
L 219.595993 -80.214193 
L 226.221596 -91.200155 
L 232.847199 -81.82214 
L 239.472801 -76.225467 
L 246.098404 -73.080989 
L 252.724007 -90.94108 
L 259.34961 -74.144917 
L 265.975213 -86.353793 
L 272.600816 -84.293143 
L 279.226419 -74.568394 
L 285.852022 -77.176267 
L 292.477625 -76.8284 
L 299.103228 -72.951591 
L 305.728831 -79.580023 
L 312.354434 -78.293717 
L 318.980037 -83.333282 
L 325.60564 -102.701659 
L 332.231243 -80.518108 
L 338.856846 -87.316196 
L 345.482449 -87.603138 
L 352.108052 -84.941473 
L 358.733655 -86.930418 
L 365.359258 -82.874997 
L 371.984861 -85.735494 
L 378.610464 -87.471374 
L 385.236067 -82.570366 
L 391.86167 -79.236321 
L 398.487273 -85.551878 
L 398.487273 -145.958214 
L 398.487273 -145.958214 
L 391.86167 -133.233677 
L 385.236067 -251.414191 
L 378.610464 -265.046598 
L 371.984861 -147.599677 
L 365.359258 -257.672115 
L 358.733655 -265.367434 
L 352.108052 -246.921158 
L 345.482449 -158.124183 
L 338.856846 -141.503897 
L 332.231243 -139.474948 
L 325.60564 -288.475581 
L 318.980037 -252.188168 
L 312.354434 -243.623143 
L 305.728831 -239.842373 
L 299.103228 -128.655324 
L 292.477625 -140.831189 
L 285.852022 -127.139247 
L 279.226419 -136.334759 
L 272.600816 -144.792106 
L 265.975213 -159.218889 
L 259.34961 -114.918371 
L 252.724007 -149.162193 
L 246.098404 -130.890699 
L 239.472801 -117.907644 
L 232.847199 -234.764799 
L 226.221596 -271.977133 
L 219.595993 -118.896336 
L 212.97039 -263.628223 
L 206.344787 -95.388876 
L 199.719184 -134.150411 
L 193.093581 -253.138696 
L 186.467978 -120.261198 
L 179.842375 -93.780634 
L 173.216772 -126.976212 
L 166.591169 -230.534479 
L 159.965566 -113.335015 
L 153.339963 -242.165296 
L 146.71436 -93.644161 
L 140.088757 -112.734795 
L 133.463154 -229.608726 
L 126.837551 -111.448626 
L 120.211948 -99.075137 
L 113.586345 -97.281555 
L 106.960742 -104.029961 
L 100.335139 -97.9845 
L 93.709536 -91.987219 
L 87.083933 -90.61231 
L 80.45833 -88.742405 
L 73.832727 -83.95817 
z
" id="m39b89a208d" style="stroke:#8172b3;stroke-opacity:0.2;stroke-width:0.8;"/>
    </defs>
    <g clip-path="url(#pce9d67f35f)">
     <use style="fill:#8172b3;fill-opacity:0.2;stroke:#8172b3;stroke-opacity:0.2;stroke-width:0.8;" x="0" xlink:href="#m39b89a208d" y="345.6"/>
    </g>
   </g>
   <g id="line2d_12">
    <path clip-path="url(#pce9d67f35f)" d="M 73.832727 262.321818 
L 80.45833 262.282898 
L 87.083933 262.351445 
L 93.709536 262.328967 
L 100.335139 262.267196 
L 106.960742 262.372879 
L 113.586345 262.317254 
L 120.211948 262.342872 
L 126.837551 262.252719 
L 133.463154 262.432871 
L 140.088757 262.240276 
L 146.71436 262.181972 
L 153.339963 262.418761 
L 159.965566 262.178742 
L 166.591169 262.092135 
L 173.216772 262.015823 
L 179.842375 262.124662 
L 186.467978 262.126334 
L 193.093581 262.130219 
L 199.719184 262.285331 
L 206.344787 262.347226 
L 212.97039 262.385439 
L 219.595993 262.425868 
L 226.221596 262.129956 
L 232.847199 262.480691 
L 239.472801 262.477752 
L 246.098404 262.704619 
L 252.724007 261.941732 
L 259.34961 262.320205 
L 265.975213 262.146692 
L 272.600816 262.576931 
L 279.226419 262.281585 
L 285.852022 262.016597 
L 292.477625 262.319507 
L 299.103228 262.171599 
L 305.728831 262.293057 
L 312.354434 262.280047 
L 318.980037 262.342787 
L 325.60564 262.245009 
L 332.231243 262.31002 
L 338.856846 262.113483 
L 345.482449 262.459507 
L 352.108052 262.167605 
L 358.733655 262.365657 
L 365.359258 262.19216 
L 371.984861 262.369102 
L 378.610464 262.357979 
L 385.236067 262.570648 
L 391.86167 262.226303 
L 398.487273 262.3798 
" style="fill:none;stroke:#4c72b0;stroke-linecap:round;stroke-width:1.2;"/>
   </g>
   <g id="line2d_13">
    <path clip-path="url(#pce9d67f35f)" d="M 73.832727 262.288249 
L 80.45833 265.832539 
L 87.083933 263.076999 
L 93.709536 268.211984 
L 100.335139 269.200005 
L 106.960742 262.495078 
L 113.586345 265.293184 
L 120.211948 264.501711 
L 126.837551 264.635081 
L 133.463154 263.835252 
L 140.088757 262.972818 
L 146.71436 263.075878 
L 153.339963 263.10215 
L 159.965566 263.262522 
L 166.591169 263.344644 
L 173.216772 263.283657 
L 179.842375 263.314067 
L 186.467978 263.402185 
L 193.093581 263.857622 
L 199.719184 263.880448 
L 206.344787 264.312595 
L 212.97039 264.111676 
L 219.595993 265.055746 
L 226.221596 264.501148 
L 232.847199 264.635331 
L 239.472801 264.442373 
L 246.098404 264.508112 
L 252.724007 264.696392 
L 259.34961 264.246912 
L 265.975213 264.325536 
L 272.600816 264.586156 
L 279.226419 264.362173 
L 285.852022 263.934892 
L 292.477625 263.795528 
L 299.103228 263.379099 
L 305.728831 263.64589 
L 312.354434 263.134103 
L 318.980037 262.965018 
L 325.60564 263.182303 
L 332.231243 263.109043 
L 338.856846 263.026398 
L 345.482449 262.703186 
L 352.108052 262.3371 
L 358.733655 264.42683 
L 365.359258 266.46382 
L 371.984861 266.761948 
L 378.610464 266.976192 
L 385.236067 266.941892 
L 391.86167 266.526047 
L 398.487273 266.454008 
" style="fill:none;stroke:#dd8452;stroke-linecap:round;stroke-width:1.2;"/>
   </g>
   <g id="line2d_14">
    <path clip-path="url(#pce9d67f35f)" d="M 73.832727 262.20151 
L 80.45833 262.26945 
L 87.083933 262.224531 
L 93.709536 262.13778 
L 100.335139 262.00483 
L 106.960742 262.159686 
L 113.586345 262.313466 
L 120.211948 262.251537 
L 126.837551 262.195422 
L 133.463154 262.159772 
L 140.088757 262.214355 
L 146.71436 262.224152 
L 153.339963 262.154936 
L 159.965566 261.957262 
L 166.591169 262.242234 
L 173.216772 262.245223 
L 179.842375 262.157082 
L 186.467978 262.082274 
L 193.093581 262.237241 
L 199.719184 262.224172 
L 206.344787 262.209716 
L 212.97039 262.133991 
L 219.595993 262.290767 
L 226.221596 262.120601 
L 232.847199 262.307959 
L 239.472801 262.073623 
L 246.098404 262.209825 
L 252.724007 262.155888 
L 259.34961 262.342233 
L 265.975213 262.262145 
L 272.600816 262.25555 
L 279.226419 262.1873 
L 285.852022 262.388183 
L 292.477625 261.822747 
L 299.103228 262.087035 
L 305.728831 262.26778 
L 312.354434 262.257953 
L 318.980037 262.204239 
L 325.60564 262.248787 
L 332.231243 262.343518 
L 338.856846 262.266228 
L 345.482449 262.082108 
L 352.108052 262.20984 
L 358.733655 262.156356 
L 365.359258 262.098517 
L 371.984861 262.273132 
L 378.610464 262.147426 
L 385.236067 262.300629 
L 391.86167 262.327368 
L 398.487273 262.219243 
" style="fill:none;stroke:#55a868;stroke-linecap:round;stroke-width:1.2;"/>
   </g>
   <g id="line2d_15">
    <path clip-path="url(#pce9d67f35f)" d="M 73.832727 262.111953 
L 80.45833 259.999644 
L 87.083933 254.872723 
L 93.709536 251.238287 
L 100.335139 233.610951 
L 106.960742 241.896956 
L 113.586345 254.450033 
L 120.211948 191.167779 
L 126.837551 247.226255 
L 133.463154 243.759404 
L 140.088757 229.349928 
L 146.71436 176.150276 
L 153.339963 213.042856 
L 159.965566 224.433689 
L 166.591169 183.756421 
L 173.216772 177.807221 
L 179.842375 231.707947 
L 186.467978 194.925915 
L 193.093581 225.424268 
L 199.719184 234.267278 
L 206.344787 215.497699 
L 212.97039 206.292169 
L 219.595993 198.876216 
L 226.221596 227.398932 
L 232.847199 206.950252 
L 239.472801 238.105297 
L 246.098404 216.762465 
L 252.724007 190.363019 
L 259.34961 200.404372 
L 265.975213 210.831896 
L 272.600816 225.532818 
L 279.226419 225.940795 
L 285.852022 177.584922 
L 292.477625 174.843632 
L 299.103228 225.937487 
L 305.728831 170.967818 
L 312.354434 188.638023 
L 318.980037 186.303448 
L 325.60564 202.814266 
L 332.231243 216.258455 
L 338.856846 171.575724 
L 345.482449 180.437401 
L 352.108052 228.41753 
L 358.733655 208.322917 
L 365.359258 194.491014 
L 371.984861 185.192302 
L 378.610464 172.759382 
L 385.236067 220.02073 
L 391.86167 183.506183 
L 398.487273 218.288759 
" style="fill:none;stroke:#c44e52;stroke-linecap:round;stroke-width:1.2;"/>
   </g>
   <g id="line2d_16">
    <path clip-path="url(#pce9d67f35f)" d="M 73.832727 262.125808 
L 80.45833 260.320138 
L 87.083933 259.423505 
L 93.709536 259.241593 
L 100.335139 259.259376 
L 106.960742 253.910258 
L 113.586345 257.209086 
L 120.211948 256.523587 
L 126.837551 252.30521 
L 133.463154 211.138273 
L 140.088757 251.893203 
L 146.71436 259.667219 
L 153.339963 203.895314 
L 159.965566 249.49925 
L 166.591169 213.449148 
L 173.216772 244.274296 
L 179.842375 263.000551 
L 186.467978 247.793158 
L 193.093581 202.792589 
L 199.719184 236.975081 
L 206.344787 261.06819 
L 212.97039 193.08166 
L 219.595993 247.260426 
L 226.221596 191.330225 
L 232.847199 207.751165 
L 239.472801 248.802281 
L 246.098404 243.328705 
L 252.724007 227.800893 
L 259.34961 251.401852 
L 265.975213 224.801294 
L 272.600816 234.383589 
L 279.226419 241.075254 
L 285.852022 245.535432 
L 292.477625 238.701086 
L 299.103228 245.902144 
L 305.728831 207.747161 
L 312.354434 200.624378 
L 318.980037 194.809889 
L 325.60564 176.82681 
L 332.231243 237.685472 
L 338.856846 232.785646 
L 345.482449 226.336107 
L 352.108052 200.287231 
L 358.733655 186.63963 
L 365.359258 194.32844 
L 371.984861 230.223939 
L 378.610464 191.084991 
L 385.236067 198.557483 
L 391.86167 240.43168 
L 398.487273 232.229475 
" style="fill:none;stroke:#8172b3;stroke-linecap:round;stroke-width:1.2;"/>
   </g>
   <g id="line2d_17"/>
   <g id="line2d_18"/>
   <g id="line2d_19"/>
   <g id="line2d_20"/>
   <g id="line2d_21"/>
   <g id="line2d_22"/>
   <g id="patch_3">
    <path d="M 57.6 302.4 
L 57.6 41.472 
" style="fill:none;stroke:#ffffff;stroke-linecap:square;stroke-linejoin:miter;"/>
   </g>
   <g id="patch_4">
    <path d="M 414.72 302.4 
L 414.72 41.472 
" style="fill:none;stroke:#ffffff;stroke-linecap:square;stroke-linejoin:miter;"/>
   </g>
   <g id="patch_5">
    <path d="M 57.6 302.4 
L 414.72 302.4 
" style="fill:none;stroke:#ffffff;stroke-linecap:square;stroke-linejoin:miter;"/>
   </g>
   <g id="patch_6">
    <path d="M 57.6 41.472 
L 414.72 41.472 
" style="fill:none;stroke:#ffffff;stroke-linecap:square;stroke-linejoin:miter;"/>
   </g>
   <g id="text_14">
    <!-- Final ROI over Training Period -->
    <defs>
     <path d="M 21 0 
L 1.265625 51.859375 
L 10.546875 51.859375 
L 21.6875 20.796875 
Q 23.484375 15.765625 25 10.359375 
Q 26.171875 14.453125 28.265625 20.21875 
L 39.796875 51.859375 
L 48.828125 51.859375 
L 29.203125 0 
z
" id="ArialMT-118"/>
     <path d="M 6.5 0 
L 6.5 51.859375 
L 14.40625 51.859375 
L 14.40625 44 
Q 17.4375 49.515625 20 51.265625 
Q 22.5625 53.03125 25.640625 53.03125 
Q 30.078125 53.03125 34.671875 50.203125 
L 31.640625 42.046875 
Q 28.421875 43.953125 25.203125 43.953125 
Q 22.3125 43.953125 20.015625 42.21875 
Q 17.71875 40.484375 16.75 37.40625 
Q 15.28125 32.71875 15.28125 27.15625 
L 15.28125 0 
z
" id="ArialMT-114"/>
     <path d="M 25.921875 0 
L 25.921875 63.140625 
L 2.34375 63.140625 
L 2.34375 71.578125 
L 59.078125 71.578125 
L 59.078125 63.140625 
L 35.40625 63.140625 
L 35.40625 0 
z
" id="ArialMT-84"/>
     <path d="M 4.984375 -4.296875 
L 13.53125 -5.5625 
Q 14.0625 -9.515625 16.5 -11.328125 
Q 19.78125 -13.765625 25.4375 -13.765625 
Q 31.546875 -13.765625 34.859375 -11.328125 
Q 38.1875 -8.890625 39.359375 -4.5 
Q 40.046875 -1.8125 39.984375 6.78125 
Q 34.234375 0 25.640625 0 
Q 14.9375 0 9.078125 7.71875 
Q 3.21875 15.4375 3.21875 26.21875 
Q 3.21875 33.640625 5.90625 39.90625 
Q 8.59375 46.1875 13.6875 49.609375 
Q 18.796875 53.03125 25.6875 53.03125 
Q 34.859375 53.03125 40.828125 45.609375 
L 40.828125 51.859375 
L 48.921875 51.859375 
L 48.921875 7.03125 
Q 48.921875 -5.078125 46.453125 -10.125 
Q 44 -15.1875 38.640625 -18.109375 
Q 33.296875 -21.046875 25.484375 -21.046875 
Q 16.21875 -21.046875 10.5 -16.875 
Q 4.78125 -12.703125 4.984375 -4.296875 
z
M 12.25 26.859375 
Q 12.25 16.65625 16.296875 11.96875 
Q 20.359375 7.28125 26.46875 7.28125 
Q 32.515625 7.28125 36.609375 11.9375 
Q 40.71875 16.609375 40.71875 26.5625 
Q 40.71875 36.078125 36.5 40.90625 
Q 32.28125 45.75 26.3125 45.75 
Q 20.453125 45.75 16.34375 40.984375 
Q 12.25 36.234375 12.25 26.859375 
z
" id="ArialMT-103"/>
     <path d="M 7.71875 0 
L 7.71875 71.578125 
L 34.71875 71.578125 
Q 41.84375 71.578125 45.609375 70.90625 
Q 50.875 70.015625 54.4375 67.546875 
Q 58.015625 65.09375 60.1875 60.640625 
Q 62.359375 56.203125 62.359375 50.875 
Q 62.359375 41.75 56.546875 35.421875 
Q 50.734375 29.109375 35.546875 29.109375 
L 17.1875 29.109375 
L 17.1875 0 
z
M 17.1875 37.546875 
L 35.6875 37.546875 
Q 44.875 37.546875 48.734375 40.96875 
Q 52.59375 44.390625 52.59375 50.59375 
Q 52.59375 55.078125 50.3125 58.265625 
Q 48.046875 61.46875 44.34375 62.5 
Q 41.9375 63.140625 35.5 63.140625 
L 17.1875 63.140625 
z
" id="ArialMT-80"/>
    </defs>
    <g style="fill:#262626;" transform="translate(171.34125 35.472)scale(0.096 -0.096)">
     <use xlink:href="#ArialMT-70"/>
     <use x="61.083984" xlink:href="#ArialMT-105"/>
     <use x="83.300781" xlink:href="#ArialMT-110"/>
     <use x="138.916016" xlink:href="#ArialMT-97"/>
     <use x="194.53125" xlink:href="#ArialMT-108"/>
     <use x="216.748047" xlink:href="#ArialMT-32"/>
     <use x="244.53125" xlink:href="#ArialMT-82"/>
     <use x="316.748047" xlink:href="#ArialMT-79"/>
     <use x="394.53125" xlink:href="#ArialMT-73"/>
     <use x="422.314453" xlink:href="#ArialMT-32"/>
     <use x="450.097656" xlink:href="#ArialMT-111"/>
     <use x="505.712891" xlink:href="#ArialMT-118"/>
     <use x="555.712891" xlink:href="#ArialMT-101"/>
     <use x="611.328125" xlink:href="#ArialMT-114"/>
     <use x="644.628906" xlink:href="#ArialMT-32"/>
     <use x="672.396484" xlink:href="#ArialMT-84"/>
     <use x="733.433594" xlink:href="#ArialMT-114"/>
     <use x="766.734375" xlink:href="#ArialMT-97"/>
     <use x="822.349609" xlink:href="#ArialMT-105"/>
     <use x="844.566406" xlink:href="#ArialMT-110"/>
     <use x="900.181641" xlink:href="#ArialMT-105"/>
     <use x="922.398438" xlink:href="#ArialMT-110"/>
     <use x="978.013672" xlink:href="#ArialMT-103"/>
     <use x="1033.628906" xlink:href="#ArialMT-32"/>
     <use x="1061.412109" xlink:href="#ArialMT-80"/>
     <use x="1128.111328" xlink:href="#ArialMT-101"/>
     <use x="1183.726562" xlink:href="#ArialMT-114"/>
     <use x="1217.027344" xlink:href="#ArialMT-105"/>
     <use x="1239.244141" xlink:href="#ArialMT-111"/>
     <use x="1294.859375" xlink:href="#ArialMT-100"/>
    </g>
   </g>
   <g id="legend_1">
    <g id="patch_7">
     <path d="M 279.662 123.415125 
L 408.56 123.415125 
Q 410.32 123.415125 410.32 121.655125 
L 410.32 47.632 
Q 410.32 45.872 408.56 45.872 
L 279.662 45.872 
Q 277.902 45.872 277.902 47.632 
L 277.902 121.655125 
Q 277.902 123.415125 279.662 123.415125 
z
" style="fill:#eaeaf2;opacity:0.8;stroke:#cccccc;stroke-linejoin:miter;stroke-width:0.8;"/>
    </g>
    <g id="line2d_23">
     <path d="M 281.422 52.610875 
L 299.022 52.610875 
" style="fill:none;"/>
    </g>
    <g id="line2d_24"/>
    <g id="text_15">
     <!-- agent -->
     <defs>
      <path d="M 25.78125 7.859375 
L 27.046875 0.09375 
Q 23.34375 -0.6875 20.40625 -0.6875 
Q 15.625 -0.6875 12.984375 0.828125 
Q 10.359375 2.34375 9.28125 4.8125 
Q 8.203125 7.28125 8.203125 15.1875 
L 8.203125 45.015625 
L 1.765625 45.015625 
L 1.765625 51.859375 
L 8.203125 51.859375 
L 8.203125 64.703125 
L 16.9375 69.96875 
L 16.9375 51.859375 
L 25.78125 51.859375 
L 25.78125 45.015625 
L 16.9375 45.015625 
L 16.9375 14.703125 
Q 16.9375 10.9375 17.40625 9.859375 
Q 17.875 8.796875 18.921875 8.15625 
Q 19.96875 7.515625 21.921875 7.515625 
Q 23.390625 7.515625 25.78125 7.859375 
z
" id="ArialMT-116"/>
     </defs>
     <g style="fill:#262626;" transform="translate(306.062 55.690875)scale(0.088 -0.088)">
      <use xlink:href="#ArialMT-97"/>
      <use x="55.615234" xlink:href="#ArialMT-103"/>
      <use x="111.230469" xlink:href="#ArialMT-101"/>
      <use x="166.845703" xlink:href="#ArialMT-110"/>
      <use x="222.460938" xlink:href="#ArialMT-116"/>
     </g>
    </g>
    <g id="line2d_25">
     <path d="M 281.422 65.161875 
L 299.022 65.161875 
" style="fill:none;stroke:#4c72b0;stroke-linecap:round;stroke-width:1.2;"/>
    </g>
    <g id="line2d_26"/>
    <g id="text_16">
     <!-- A2C -->
     <defs>
      <path d="M -0.140625 0 
L 27.34375 71.578125 
L 37.546875 71.578125 
L 66.84375 0 
L 56.0625 0 
L 47.703125 21.6875 
L 17.78125 21.6875 
L 9.90625 0 
z
M 20.515625 29.390625 
L 44.78125 29.390625 
L 37.3125 49.21875 
Q 33.890625 58.25 32.234375 64.0625 
Q 30.859375 57.171875 28.375 50.390625 
z
" id="ArialMT-65"/>
      <path d="M 58.796875 25.09375 
L 68.265625 22.703125 
Q 65.28125 11.03125 57.546875 4.90625 
Q 49.8125 -1.21875 38.625 -1.21875 
Q 27.046875 -1.21875 19.796875 3.484375 
Q 12.546875 8.203125 8.765625 17.140625 
Q 4.984375 26.078125 4.984375 36.328125 
Q 4.984375 47.515625 9.25 55.828125 
Q 13.53125 64.15625 21.40625 68.46875 
Q 29.296875 72.796875 38.765625 72.796875 
Q 49.515625 72.796875 56.828125 67.328125 
Q 64.15625 61.859375 67.046875 51.953125 
L 57.71875 49.75 
Q 55.21875 57.5625 50.484375 61.125 
Q 45.75 64.703125 38.578125 64.703125 
Q 30.328125 64.703125 24.78125 60.734375 
Q 19.234375 56.78125 16.984375 50.109375 
Q 14.75 43.453125 14.75 36.375 
Q 14.75 27.25 17.40625 20.4375 
Q 20.0625 13.625 25.671875 10.25 
Q 31.296875 6.890625 37.84375 6.890625 
Q 45.796875 6.890625 51.3125 11.46875 
Q 56.84375 16.0625 58.796875 25.09375 
z
" id="ArialMT-67"/>
     </defs>
     <g style="fill:#262626;" transform="translate(306.062 68.241875)scale(0.088 -0.088)">
      <use xlink:href="#ArialMT-65"/>
      <use x="66.699219" xlink:href="#ArialMT-50"/>
      <use x="122.314453" xlink:href="#ArialMT-67"/>
     </g>
    </g>
    <g id="line2d_27">
     <path d="M 281.422 77.60975 
L 299.022 77.60975 
" style="fill:none;stroke:#dd8452;stroke-linecap:round;stroke-width:1.2;"/>
    </g>
    <g id="line2d_28"/>
    <g id="text_17">
     <!-- DDPG -->
     <defs>
      <path d="M 7.71875 0 
L 7.71875 71.578125 
L 32.375 71.578125 
Q 40.71875 71.578125 45.125 70.5625 
Q 51.265625 69.140625 55.609375 65.4375 
Q 61.28125 60.640625 64.078125 53.1875 
Q 66.890625 45.75 66.890625 36.1875 
Q 66.890625 28.03125 64.984375 21.734375 
Q 63.09375 15.4375 60.109375 11.296875 
Q 57.125 7.171875 53.578125 4.796875 
Q 50.046875 2.4375 45.046875 1.21875 
Q 40.046875 0 33.546875 0 
z
M 17.1875 8.453125 
L 32.46875 8.453125 
Q 39.546875 8.453125 43.578125 9.765625 
Q 47.609375 11.078125 50 13.484375 
Q 53.375 16.84375 55.25 22.53125 
Q 57.125 28.21875 57.125 36.328125 
Q 57.125 47.5625 53.4375 53.59375 
Q 49.75 59.625 44.484375 61.671875 
Q 40.671875 63.140625 32.234375 63.140625 
L 17.1875 63.140625 
z
" id="ArialMT-68"/>
      <path d="M 41.21875 28.078125 
L 41.21875 36.46875 
L 71.53125 36.53125 
L 71.53125 9.96875 
Q 64.546875 4.390625 57.125 1.578125 
Q 49.703125 -1.21875 41.890625 -1.21875 
Q 31.34375 -1.21875 22.71875 3.296875 
Q 14.109375 7.8125 9.71875 16.359375 
Q 5.328125 24.90625 5.328125 35.453125 
Q 5.328125 45.90625 9.6875 54.953125 
Q 14.0625 64.015625 22.265625 68.40625 
Q 30.46875 72.796875 41.15625 72.796875 
Q 48.921875 72.796875 55.1875 70.28125 
Q 61.46875 67.78125 65.03125 63.28125 
Q 68.609375 58.796875 70.453125 51.5625 
L 61.921875 49.21875 
Q 60.296875 54.6875 57.90625 57.8125 
Q 55.515625 60.9375 51.0625 62.8125 
Q 46.625 64.703125 41.21875 64.703125 
Q 34.71875 64.703125 29.984375 62.71875 
Q 25.25 60.75 22.34375 57.515625 
Q 19.4375 54.296875 17.828125 50.4375 
Q 15.09375 43.796875 15.09375 36.03125 
Q 15.09375 26.46875 18.390625 20.015625 
Q 21.6875 13.578125 27.984375 10.453125 
Q 34.28125 7.328125 41.359375 7.328125 
Q 47.515625 7.328125 53.375 9.6875 
Q 59.234375 12.0625 62.25 14.75 
L 62.25 28.078125 
z
" id="ArialMT-71"/>
     </defs>
     <g style="fill:#262626;" transform="translate(306.062 80.68975)scale(0.088 -0.088)">
      <use xlink:href="#ArialMT-68"/>
      <use x="72.216797" xlink:href="#ArialMT-68"/>
      <use x="144.433594" xlink:href="#ArialMT-80"/>
      <use x="211.132812" xlink:href="#ArialMT-71"/>
     </g>
    </g>
    <g id="line2d_29">
     <path d="M 281.422 90.170375 
L 299.022 90.170375 
" style="fill:none;stroke:#55a868;stroke-linecap:round;stroke-width:1.2;"/>
    </g>
    <g id="line2d_30"/>
    <g id="text_18">
     <!-- Deep Q-Network -->
     <defs>
      <path d="M 61.96875 7.671875 
Q 68.5625 3.125 74.125 1.03125 
L 71.34375 -5.5625 
Q 63.625 -2.78125 55.953125 3.21875 
Q 48 -1.21875 38.375 -1.21875 
Q 28.65625 -1.21875 20.75 3.46875 
Q 12.84375 8.15625 8.5625 16.640625 
Q 4.296875 25.140625 4.296875 35.796875 
Q 4.296875 46.390625 8.59375 55.078125 
Q 12.890625 63.765625 20.828125 68.3125 
Q 28.765625 72.859375 38.578125 72.859375 
Q 48.484375 72.859375 56.4375 68.140625 
Q 64.40625 63.421875 68.578125 54.953125 
Q 72.75 46.484375 72.75 35.84375 
Q 72.75 27 70.0625 19.9375 
Q 67.390625 12.890625 61.96875 7.671875 
z
M 41.109375 19.78125 
Q 49.3125 17.484375 54.640625 12.9375 
Q 62.984375 20.5625 62.984375 35.84375 
Q 62.984375 44.53125 60.03125 51.015625 
Q 57.078125 57.515625 51.390625 61.109375 
Q 45.703125 64.703125 38.625 64.703125 
Q 28.03125 64.703125 21.046875 57.453125 
Q 14.0625 50.203125 14.0625 35.796875 
Q 14.0625 21.828125 20.96875 14.359375 
Q 27.875 6.890625 38.625 6.890625 
Q 43.703125 6.890625 48.1875 8.796875 
Q 43.75 11.671875 38.8125 12.890625 
z
" id="ArialMT-81"/>
      <path d="M 3.171875 21.484375 
L 3.171875 30.328125 
L 30.171875 30.328125 
L 30.171875 21.484375 
z
" id="ArialMT-45"/>
      <path d="M 7.625 0 
L 7.625 71.578125 
L 17.328125 71.578125 
L 54.9375 15.375 
L 54.9375 71.578125 
L 64.015625 71.578125 
L 64.015625 0 
L 54.296875 0 
L 16.703125 56.25 
L 16.703125 0 
z
" id="ArialMT-78"/>
      <path d="M 16.15625 0 
L 0.296875 51.859375 
L 9.375 51.859375 
L 17.625 21.921875 
L 20.703125 10.796875 
Q 20.90625 11.625 23.390625 21.484375 
L 31.640625 51.859375 
L 40.671875 51.859375 
L 48.4375 21.78125 
L 51.03125 11.859375 
L 54 21.875 
L 62.890625 51.859375 
L 71.4375 51.859375 
L 55.21875 0 
L 46.09375 0 
L 37.84375 31.0625 
L 35.84375 39.890625 
L 25.34375 0 
z
" id="ArialMT-119"/>
      <path d="M 6.640625 0 
L 6.640625 71.578125 
L 15.4375 71.578125 
L 15.4375 30.765625 
L 36.234375 51.859375 
L 47.609375 51.859375 
L 27.78125 32.625 
L 49.609375 0 
L 38.765625 0 
L 21.625 26.515625 
L 15.4375 20.5625 
L 15.4375 0 
z
" id="ArialMT-107"/>
     </defs>
     <g style="fill:#262626;" transform="translate(306.062 93.250375)scale(0.088 -0.088)">
      <use xlink:href="#ArialMT-68"/>
      <use x="72.216797" xlink:href="#ArialMT-101"/>
      <use x="127.832031" xlink:href="#ArialMT-101"/>
      <use x="183.447266" xlink:href="#ArialMT-112"/>
      <use x="239.0625" xlink:href="#ArialMT-32"/>
      <use x="266.845703" xlink:href="#ArialMT-81"/>
      <use x="344.628906" xlink:href="#ArialMT-45"/>
      <use x="377.929688" xlink:href="#ArialMT-78"/>
      <use x="450.146484" xlink:href="#ArialMT-101"/>
      <use x="505.761719" xlink:href="#ArialMT-116"/>
      <use x="533.544922" xlink:href="#ArialMT-119"/>
      <use x="605.761719" xlink:href="#ArialMT-111"/>
      <use x="661.376953" xlink:href="#ArialMT-114"/>
      <use x="694.677734" xlink:href="#ArialMT-107"/>
     </g>
    </g>
    <g id="line2d_31">
     <path d="M 281.422 102.61825 
L 299.022 102.61825 
" style="fill:none;stroke:#c44e52;stroke-linecap:round;stroke-width:1.2;"/>
    </g>
    <g id="line2d_32"/>
    <g id="text_19">
     <!-- Model-based -->
     <defs>
      <path d="M 7.421875 0 
L 7.421875 71.578125 
L 21.6875 71.578125 
L 38.625 20.90625 
Q 40.96875 13.8125 42.046875 10.296875 
Q 43.265625 14.203125 45.84375 21.78125 
L 62.984375 71.578125 
L 75.734375 71.578125 
L 75.734375 0 
L 66.609375 0 
L 66.609375 59.90625 
L 45.796875 0 
L 37.25 0 
L 16.546875 60.9375 
L 16.546875 0 
z
" id="ArialMT-77"/>
      <path d="M 14.703125 0 
L 6.546875 0 
L 6.546875 71.578125 
L 15.328125 71.578125 
L 15.328125 46.046875 
Q 20.90625 53.03125 29.546875 53.03125 
Q 34.328125 53.03125 38.59375 51.09375 
Q 42.875 49.171875 45.625 45.671875 
Q 48.390625 42.1875 49.953125 37.25 
Q 51.515625 32.328125 51.515625 26.703125 
Q 51.515625 13.375 44.921875 6.09375 
Q 38.328125 -1.171875 29.109375 -1.171875 
Q 19.921875 -1.171875 14.703125 6.5 
z
M 14.59375 26.3125 
Q 14.59375 17 17.140625 12.84375 
Q 21.296875 6.0625 28.375 6.0625 
Q 34.125 6.0625 38.328125 11.0625 
Q 42.53125 16.0625 42.53125 25.984375 
Q 42.53125 36.140625 38.5 40.96875 
Q 34.46875 45.796875 28.765625 45.796875 
Q 23 45.796875 18.796875 40.796875 
Q 14.59375 35.796875 14.59375 26.3125 
z
" id="ArialMT-98"/>
     </defs>
     <g style="fill:#262626;" transform="translate(306.062 105.69825)scale(0.088 -0.088)">
      <use xlink:href="#ArialMT-77"/>
      <use x="83.300781" xlink:href="#ArialMT-111"/>
      <use x="138.916016" xlink:href="#ArialMT-100"/>
      <use x="194.53125" xlink:href="#ArialMT-101"/>
      <use x="250.146484" xlink:href="#ArialMT-108"/>
      <use x="272.363281" xlink:href="#ArialMT-45"/>
      <use x="305.664062" xlink:href="#ArialMT-98"/>
      <use x="361.279297" xlink:href="#ArialMT-97"/>
      <use x="416.894531" xlink:href="#ArialMT-115"/>
      <use x="466.894531" xlink:href="#ArialMT-101"/>
      <use x="522.509766" xlink:href="#ArialMT-100"/>
     </g>
    </g>
    <g id="line2d_33">
     <path d="M 281.422 115.066125 
L 299.022 115.066125 
" style="fill:none;stroke:#8172b3;stroke-linecap:round;stroke-width:1.2;"/>
    </g>
    <g id="line2d_34"/>
    <g id="text_20">
     <!-- Model-based without Text -->
     <defs>
      <path d="M 6.59375 0 
L 6.59375 71.578125 
L 15.375 71.578125 
L 15.375 45.90625 
Q 21.53125 53.03125 30.90625 53.03125 
Q 36.671875 53.03125 40.921875 50.75 
Q 45.171875 48.484375 47 44.484375 
Q 48.828125 40.484375 48.828125 32.859375 
L 48.828125 0 
L 40.046875 0 
L 40.046875 32.859375 
Q 40.046875 39.453125 37.1875 42.453125 
Q 34.328125 45.453125 29.109375 45.453125 
Q 25.203125 45.453125 21.75 43.421875 
Q 18.3125 41.40625 16.84375 37.9375 
Q 15.375 34.46875 15.375 28.375 
L 15.375 0 
z
" id="ArialMT-104"/>
      <path d="M 40.578125 0 
L 40.578125 7.625 
Q 34.515625 -1.171875 24.125 -1.171875 
Q 19.53125 -1.171875 15.546875 0.578125 
Q 11.578125 2.34375 9.640625 5 
Q 7.71875 7.671875 6.9375 11.53125 
Q 6.390625 14.109375 6.390625 19.734375 
L 6.390625 51.859375 
L 15.1875 51.859375 
L 15.1875 23.09375 
Q 15.1875 16.21875 15.71875 13.8125 
Q 16.546875 10.359375 19.234375 8.375 
Q 21.921875 6.390625 25.875 6.390625 
Q 29.828125 6.390625 33.296875 8.421875 
Q 36.765625 10.453125 38.203125 13.9375 
Q 39.65625 17.4375 39.65625 24.078125 
L 39.65625 51.859375 
L 48.4375 51.859375 
L 48.4375 0 
z
" id="ArialMT-117"/>
      <path d="M 0.734375 0 
L 19.671875 26.953125 
L 2.15625 51.859375 
L 13.140625 51.859375 
L 21.09375 39.703125 
Q 23.34375 36.234375 24.703125 33.890625 
Q 26.859375 37.109375 28.65625 39.59375 
L 37.40625 51.859375 
L 47.90625 51.859375 
L 29.984375 27.4375 
L 49.265625 0 
L 38.484375 0 
L 27.828125 16.109375 
L 25 20.453125 
L 11.375 0 
z
" id="ArialMT-120"/>
     </defs>
     <g style="fill:#262626;" transform="translate(306.062 118.146125)scale(0.088 -0.088)">
      <use xlink:href="#ArialMT-77"/>
      <use x="83.300781" xlink:href="#ArialMT-111"/>
      <use x="138.916016" xlink:href="#ArialMT-100"/>
      <use x="194.53125" xlink:href="#ArialMT-101"/>
      <use x="250.146484" xlink:href="#ArialMT-108"/>
      <use x="272.363281" xlink:href="#ArialMT-45"/>
      <use x="305.664062" xlink:href="#ArialMT-98"/>
      <use x="361.279297" xlink:href="#ArialMT-97"/>
      <use x="416.894531" xlink:href="#ArialMT-115"/>
      <use x="466.894531" xlink:href="#ArialMT-101"/>
      <use x="522.509766" xlink:href="#ArialMT-100"/>
      <use x="578.125" xlink:href="#ArialMT-32"/>
      <use x="605.908203" xlink:href="#ArialMT-119"/>
      <use x="678.125" xlink:href="#ArialMT-105"/>
      <use x="700.341797" xlink:href="#ArialMT-116"/>
      <use x="728.125" xlink:href="#ArialMT-104"/>
      <use x="783.740234" xlink:href="#ArialMT-111"/>
      <use x="839.355469" xlink:href="#ArialMT-117"/>
      <use x="894.970703" xlink:href="#ArialMT-116"/>
      <use x="922.753906" xlink:href="#ArialMT-32"/>
      <use x="950.521484" xlink:href="#ArialMT-84"/>
      <use x="1011.433594" xlink:href="#ArialMT-101"/>
      <use x="1067.048828" xlink:href="#ArialMT-120"/>
      <use x="1117.048828" xlink:href="#ArialMT-116"/>
     </g>
    </g>
   </g>
  </g>
 </g>
 <defs>
  <clipPath id="pce9d67f35f">
   <rect height="260.928" width="357.12" x="57.6" y="41.472"/>
  </clipPath>
 </defs>
</svg>
