<?xml version="1.0" encoding="utf-8" standalone="no"?>
<!DOCTYPE svg PUBLIC "-//W3C//DTD SVG 1.1//EN"
  "http://www.w3.org/Graphics/SVG/1.1/DTD/svg11.dtd">
<!-- Created with matplotlib (https://matplotlib.org/) -->
<svg height="345.6pt" version="1.1" viewBox="0 0 460.8 345.6" width="460.8pt" xmlns="http://www.w3.org/2000/svg" xmlns:xlink="http://www.w3.org/1999/xlink">
 <defs>
  <style type="text/css">
*{stroke-linecap:butt;stroke-linejoin:round;}
  </style>
 </defs>
 <g id="figure_1">
  <g id="patch_1">
   <path d="M 0 345.6 
L 460.8 345.6 
L 460.8 0 
L 0 0 
z
" style="fill:#ffffff;"/>
  </g>
  <g id="axes_1">
   <g id="patch_2">
    <path d="M 57.6 276.48 
L 414.72 276.48 
L 414.72 41.472 
L 57.6 41.472 
z
" style="fill:#eaeaf2;"/>
   </g>
   <g id="matplotlib.axis_1">
    <g id="xtick_1">
     <g id="line2d_1">
      <path clip-path="url(#p7cfe7a6843)" d="M 85.3741 276.48 
L 85.3741 41.472 
" style="fill:none;stroke:#ffffff;stroke-linecap:round;stroke-width:0.8;"/>
     </g>
     <g id="text_1">
      <!-- 2014-01 -->
      <defs>
       <path d="M 50.34375 8.453125 
L 50.34375 0 
L 3.03125 0 
Q 2.9375 3.171875 4.046875 6.109375 
Q 5.859375 10.9375 9.828125 15.625 
Q 13.8125 20.3125 21.34375 26.46875 
Q 33.015625 36.03125 37.109375 41.625 
Q 41.21875 47.21875 41.21875 52.203125 
Q 41.21875 57.421875 37.46875 61 
Q 33.734375 64.59375 27.734375 64.59375 
Q 21.390625 64.59375 17.578125 60.78125 
Q 13.765625 56.984375 13.71875 50.25 
L 4.6875 51.171875 
Q 5.609375 61.28125 11.65625 66.578125 
Q 17.71875 71.875 27.9375 71.875 
Q 38.234375 71.875 44.234375 66.15625 
Q 50.25 60.453125 50.25 52 
Q 50.25 47.703125 48.484375 43.546875 
Q 46.734375 39.40625 42.65625 34.8125 
Q 38.578125 30.21875 29.109375 22.21875 
Q 21.1875 15.578125 18.9375 13.203125 
Q 16.703125 10.84375 15.234375 8.453125 
z
" id="ArialMT-50"/>
       <path d="M 4.15625 35.296875 
Q 4.15625 48 6.765625 55.734375 
Q 9.375 63.484375 14.515625 67.671875 
Q 19.671875 71.875 27.484375 71.875 
Q 33.25 71.875 37.59375 69.546875 
Q 41.9375 67.234375 44.765625 62.859375 
Q 47.609375 58.5 49.21875 52.21875 
Q 50.828125 45.953125 50.828125 35.296875 
Q 50.828125 22.703125 48.234375 14.96875 
Q 45.65625 7.234375 40.5 3 
Q 35.359375 -1.21875 27.484375 -1.21875 
Q 17.140625 -1.21875 11.234375 6.203125 
Q 4.15625 15.140625 4.15625 35.296875 
z
M 13.1875 35.296875 
Q 13.1875 17.671875 17.3125 11.828125 
Q 21.4375 6 27.484375 6 
Q 33.546875 6 37.671875 11.859375 
Q 41.796875 17.71875 41.796875 35.296875 
Q 41.796875 52.984375 37.671875 58.78125 
Q 33.546875 64.59375 27.390625 64.59375 
Q 21.34375 64.59375 17.71875 59.46875 
Q 13.1875 52.9375 13.1875 35.296875 
z
" id="ArialMT-48"/>
       <path d="M 37.25 0 
L 28.46875 0 
L 28.46875 56 
Q 25.296875 52.984375 20.140625 49.953125 
Q 14.984375 46.921875 10.890625 45.40625 
L 10.890625 53.90625 
Q 18.265625 57.375 23.78125 62.296875 
Q 29.296875 67.234375 31.59375 71.875 
L 37.25 71.875 
z
" id="ArialMT-49"/>
       <path d="M 32.328125 0 
L 32.328125 17.140625 
L 1.265625 17.140625 
L 1.265625 25.203125 
L 33.9375 71.578125 
L 41.109375 71.578125 
L 41.109375 25.203125 
L 50.78125 25.203125 
L 50.78125 17.140625 
L 41.109375 17.140625 
L 41.109375 0 
z
M 32.328125 25.203125 
L 32.328125 57.46875 
L 9.90625 25.203125 
z
" id="ArialMT-52"/>
       <path d="M 3.171875 21.484375 
L 3.171875 30.328125 
L 30.171875 30.328125 
L 30.171875 21.484375 
z
" id="ArialMT-45"/>
      </defs>
      <g style="fill:#262626;" transform="translate(56.534016 306.380923)rotate(-30)scale(0.088 -0.088)">
       <use xlink:href="#ArialMT-50"/>
       <use x="55.615234" xlink:href="#ArialMT-48"/>
       <use x="111.230469" xlink:href="#ArialMT-49"/>
       <use x="166.845703" xlink:href="#ArialMT-52"/>
       <use x="222.460938" xlink:href="#ArialMT-45"/>
       <use x="255.761719" xlink:href="#ArialMT-48"/>
       <use x="311.376953" xlink:href="#ArialMT-49"/>
      </g>
     </g>
    </g>
    <g id="xtick_2">
     <g id="line2d_2">
      <path clip-path="url(#p7cfe7a6843)" d="M 124.059072 276.48 
L 124.059072 41.472 
" style="fill:none;stroke:#ffffff;stroke-linecap:round;stroke-width:0.8;"/>
     </g>
     <g id="text_2">
      <!-- 2014-07 -->
      <defs>
       <path d="M 4.734375 62.203125 
L 4.734375 70.65625 
L 51.078125 70.65625 
L 51.078125 63.8125 
Q 44.234375 56.546875 37.515625 44.484375 
Q 30.8125 32.421875 27.15625 19.671875 
Q 24.515625 10.6875 23.78125 0 
L 14.75 0 
Q 14.890625 8.453125 18.0625 20.40625 
Q 21.234375 32.375 27.171875 43.484375 
Q 33.109375 54.59375 39.796875 62.203125 
z
" id="ArialMT-55"/>
      </defs>
      <g style="fill:#262626;" transform="translate(95.218988 306.380923)rotate(-30)scale(0.088 -0.088)">
       <use xlink:href="#ArialMT-50"/>
       <use x="55.615234" xlink:href="#ArialMT-48"/>
       <use x="111.230469" xlink:href="#ArialMT-49"/>
       <use x="166.845703" xlink:href="#ArialMT-52"/>
       <use x="222.460938" xlink:href="#ArialMT-45"/>
       <use x="255.761719" xlink:href="#ArialMT-48"/>
       <use x="311.376953" xlink:href="#ArialMT-55"/>
      </g>
     </g>
    </g>
    <g id="xtick_3">
     <g id="line2d_3">
      <path clip-path="url(#p7cfe7a6843)" d="M 163.385232 276.48 
L 163.385232 41.472 
" style="fill:none;stroke:#ffffff;stroke-linecap:round;stroke-width:0.8;"/>
     </g>
     <g id="text_3">
      <!-- 2015-01 -->
      <defs>
       <path d="M 4.15625 18.75 
L 13.375 19.53125 
Q 14.40625 12.796875 18.140625 9.390625 
Q 21.875 6 27.15625 6 
Q 33.5 6 37.890625 10.78125 
Q 42.28125 15.578125 42.28125 23.484375 
Q 42.28125 31 38.0625 35.34375 
Q 33.84375 39.703125 27 39.703125 
Q 22.75 39.703125 19.328125 37.765625 
Q 15.921875 35.84375 13.96875 32.765625 
L 5.71875 33.84375 
L 12.640625 70.609375 
L 48.25 70.609375 
L 48.25 62.203125 
L 19.671875 62.203125 
L 15.828125 42.96875 
Q 22.265625 47.46875 29.34375 47.46875 
Q 38.71875 47.46875 45.15625 40.96875 
Q 51.609375 34.46875 51.609375 24.265625 
Q 51.609375 14.546875 45.953125 7.46875 
Q 39.0625 -1.21875 27.15625 -1.21875 
Q 17.390625 -1.21875 11.203125 4.25 
Q 5.03125 9.71875 4.15625 18.75 
z
" id="ArialMT-53"/>
      </defs>
      <g style="fill:#262626;" transform="translate(134.545148 306.380923)rotate(-30)scale(0.088 -0.088)">
       <use xlink:href="#ArialMT-50"/>
       <use x="55.615234" xlink:href="#ArialMT-48"/>
       <use x="111.230469" xlink:href="#ArialMT-49"/>
       <use x="166.845703" xlink:href="#ArialMT-53"/>
       <use x="222.460938" xlink:href="#ArialMT-45"/>
       <use x="255.761719" xlink:href="#ArialMT-48"/>
       <use x="311.376953" xlink:href="#ArialMT-49"/>
      </g>
     </g>
    </g>
    <g id="xtick_4">
     <g id="line2d_4">
      <path clip-path="url(#p7cfe7a6843)" d="M 202.070204 276.48 
L 202.070204 41.472 
" style="fill:none;stroke:#ffffff;stroke-linecap:round;stroke-width:0.8;"/>
     </g>
     <g id="text_4">
      <!-- 2015-07 -->
      <g style="fill:#262626;" transform="translate(173.23012 306.380923)rotate(-30)scale(0.088 -0.088)">
       <use xlink:href="#ArialMT-50"/>
       <use x="55.615234" xlink:href="#ArialMT-48"/>
       <use x="111.230469" xlink:href="#ArialMT-49"/>
       <use x="166.845703" xlink:href="#ArialMT-53"/>
       <use x="222.460938" xlink:href="#ArialMT-45"/>
       <use x="255.761719" xlink:href="#ArialMT-48"/>
       <use x="311.376953" xlink:href="#ArialMT-55"/>
      </g>
     </g>
    </g>
    <g id="xtick_5">
     <g id="line2d_5">
      <path clip-path="url(#p7cfe7a6843)" d="M 241.396364 276.48 
L 241.396364 41.472 
" style="fill:none;stroke:#ffffff;stroke-linecap:round;stroke-width:0.8;"/>
     </g>
     <g id="text_5">
      <!-- 2016-01 -->
      <defs>
       <path d="M 49.75 54.046875 
L 41.015625 53.375 
Q 39.84375 58.546875 37.703125 60.890625 
Q 34.125 64.65625 28.90625 64.65625 
Q 24.703125 64.65625 21.53125 62.3125 
Q 17.390625 59.28125 14.984375 53.46875 
Q 12.59375 47.65625 12.5 36.921875 
Q 15.671875 41.75 20.265625 44.09375 
Q 24.859375 46.4375 29.890625 46.4375 
Q 38.671875 46.4375 44.84375 39.96875 
Q 51.03125 33.5 51.03125 23.25 
Q 51.03125 16.5 48.125 10.71875 
Q 45.21875 4.9375 40.140625 1.859375 
Q 35.0625 -1.21875 28.609375 -1.21875 
Q 17.625 -1.21875 10.6875 6.859375 
Q 3.765625 14.9375 3.765625 33.5 
Q 3.765625 54.25 11.421875 63.671875 
Q 18.109375 71.875 29.4375 71.875 
Q 37.890625 71.875 43.28125 67.140625 
Q 48.6875 62.40625 49.75 54.046875 
z
M 13.875 23.1875 
Q 13.875 18.65625 15.796875 14.5 
Q 17.71875 10.359375 21.1875 8.171875 
Q 24.65625 6 28.46875 6 
Q 34.03125 6 38.03125 10.484375 
Q 42.046875 14.984375 42.046875 22.703125 
Q 42.046875 30.125 38.078125 34.390625 
Q 34.125 38.671875 28.125 38.671875 
Q 22.171875 38.671875 18.015625 34.390625 
Q 13.875 30.125 13.875 23.1875 
z
" id="ArialMT-54"/>
      </defs>
      <g style="fill:#262626;" transform="translate(212.55628 306.380923)rotate(-30)scale(0.088 -0.088)">
       <use xlink:href="#ArialMT-50"/>
       <use x="55.615234" xlink:href="#ArialMT-48"/>
       <use x="111.230469" xlink:href="#ArialMT-49"/>
       <use x="166.845703" xlink:href="#ArialMT-54"/>
       <use x="222.460938" xlink:href="#ArialMT-45"/>
       <use x="255.761719" xlink:href="#ArialMT-48"/>
       <use x="311.376953" xlink:href="#ArialMT-49"/>
      </g>
     </g>
    </g>
    <g id="xtick_6">
     <g id="line2d_6">
      <path clip-path="url(#p7cfe7a6843)" d="M 280.295065 276.48 
L 280.295065 41.472 
" style="fill:none;stroke:#ffffff;stroke-linecap:round;stroke-width:0.8;"/>
     </g>
     <g id="text_6">
      <!-- 2016-07 -->
      <g style="fill:#262626;" transform="translate(251.454981 306.380923)rotate(-30)scale(0.088 -0.088)">
       <use xlink:href="#ArialMT-50"/>
       <use x="55.615234" xlink:href="#ArialMT-48"/>
       <use x="111.230469" xlink:href="#ArialMT-49"/>
       <use x="166.845703" xlink:href="#ArialMT-54"/>
       <use x="222.460938" xlink:href="#ArialMT-45"/>
       <use x="255.761719" xlink:href="#ArialMT-48"/>
       <use x="311.376953" xlink:href="#ArialMT-55"/>
      </g>
     </g>
    </g>
    <g id="xtick_7">
     <g id="line2d_7">
      <path clip-path="url(#p7cfe7a6843)" d="M 319.621224 276.48 
L 319.621224 41.472 
" style="fill:none;stroke:#ffffff;stroke-linecap:round;stroke-width:0.8;"/>
     </g>
     <g id="text_7">
      <!-- 2017-01 -->
      <g style="fill:#262626;" transform="translate(290.78114 306.380923)rotate(-30)scale(0.088 -0.088)">
       <use xlink:href="#ArialMT-50"/>
       <use x="55.615234" xlink:href="#ArialMT-48"/>
       <use x="111.230469" xlink:href="#ArialMT-49"/>
       <use x="166.845703" xlink:href="#ArialMT-55"/>
       <use x="222.460938" xlink:href="#ArialMT-45"/>
       <use x="255.761719" xlink:href="#ArialMT-48"/>
       <use x="311.376953" xlink:href="#ArialMT-49"/>
      </g>
     </g>
    </g>
    <g id="xtick_8">
     <g id="line2d_8">
      <path clip-path="url(#p7cfe7a6843)" d="M 358.306197 276.48 
L 358.306197 41.472 
" style="fill:none;stroke:#ffffff;stroke-linecap:round;stroke-width:0.8;"/>
     </g>
     <g id="text_8">
      <!-- 2017-07 -->
      <g style="fill:#262626;" transform="translate(329.466113 306.380923)rotate(-30)scale(0.088 -0.088)">
       <use xlink:href="#ArialMT-50"/>
       <use x="55.615234" xlink:href="#ArialMT-48"/>
       <use x="111.230469" xlink:href="#ArialMT-49"/>
       <use x="166.845703" xlink:href="#ArialMT-55"/>
       <use x="222.460938" xlink:href="#ArialMT-45"/>
       <use x="255.761719" xlink:href="#ArialMT-48"/>
       <use x="311.376953" xlink:href="#ArialMT-55"/>
      </g>
     </g>
    </g>
    <g id="xtick_9">
     <g id="line2d_9">
      <path clip-path="url(#p7cfe7a6843)" d="M 397.632356 276.48 
L 397.632356 41.472 
" style="fill:none;stroke:#ffffff;stroke-linecap:round;stroke-width:0.8;"/>
     </g>
     <g id="text_9">
      <!-- 2018-01 -->
      <defs>
       <path d="M 17.671875 38.8125 
Q 12.203125 40.828125 9.5625 44.53125 
Q 6.9375 48.25 6.9375 53.421875 
Q 6.9375 61.234375 12.546875 66.546875 
Q 18.171875 71.875 27.484375 71.875 
Q 36.859375 71.875 42.578125 66.421875 
Q 48.296875 60.984375 48.296875 53.171875 
Q 48.296875 48.1875 45.671875 44.5 
Q 43.0625 40.828125 37.75 38.8125 
Q 44.34375 36.671875 47.78125 31.875 
Q 51.21875 27.09375 51.21875 20.453125 
Q 51.21875 11.28125 44.71875 5.03125 
Q 38.234375 -1.21875 27.640625 -1.21875 
Q 17.046875 -1.21875 10.546875 5.046875 
Q 4.046875 11.328125 4.046875 20.703125 
Q 4.046875 27.6875 7.59375 32.390625 
Q 11.140625 37.109375 17.671875 38.8125 
z
M 15.921875 53.71875 
Q 15.921875 48.640625 19.1875 45.40625 
Q 22.46875 42.1875 27.6875 42.1875 
Q 32.765625 42.1875 36.015625 45.375 
Q 39.265625 48.578125 39.265625 53.21875 
Q 39.265625 58.0625 35.90625 61.359375 
Q 32.5625 64.65625 27.59375 64.65625 
Q 22.5625 64.65625 19.234375 61.421875 
Q 15.921875 58.203125 15.921875 53.71875 
z
M 13.09375 20.65625 
Q 13.09375 16.890625 14.875 13.375 
Q 16.65625 9.859375 20.171875 7.921875 
Q 23.6875 6 27.734375 6 
Q 34.03125 6 38.125 10.046875 
Q 42.234375 14.109375 42.234375 20.359375 
Q 42.234375 26.703125 38.015625 30.859375 
Q 33.796875 35.015625 27.4375 35.015625 
Q 21.234375 35.015625 17.15625 30.90625 
Q 13.09375 26.8125 13.09375 20.65625 
z
" id="ArialMT-56"/>
      </defs>
      <g style="fill:#262626;" transform="translate(368.792272 306.380923)rotate(-30)scale(0.088 -0.088)">
       <use xlink:href="#ArialMT-50"/>
       <use x="55.615234" xlink:href="#ArialMT-48"/>
       <use x="111.230469" xlink:href="#ArialMT-49"/>
       <use x="166.845703" xlink:href="#ArialMT-56"/>
       <use x="222.460938" xlink:href="#ArialMT-45"/>
       <use x="255.761719" xlink:href="#ArialMT-48"/>
       <use x="311.376953" xlink:href="#ArialMT-49"/>
      </g>
     </g>
    </g>
    <g id="text_10">
     <!-- Date -->
     <defs>
      <path d="M 7.71875 0 
L 7.71875 71.578125 
L 32.375 71.578125 
Q 40.71875 71.578125 45.125 70.5625 
Q 51.265625 69.140625 55.609375 65.4375 
Q 61.28125 60.640625 64.078125 53.1875 
Q 66.890625 45.75 66.890625 36.1875 
Q 66.890625 28.03125 64.984375 21.734375 
Q 63.09375 15.4375 60.109375 11.296875 
Q 57.125 7.171875 53.578125 4.796875 
Q 50.046875 2.4375 45.046875 1.21875 
Q 40.046875 0 33.546875 0 
z
M 17.1875 8.453125 
L 32.46875 8.453125 
Q 39.546875 8.453125 43.578125 9.765625 
Q 47.609375 11.078125 50 13.484375 
Q 53.375 16.84375 55.25 22.53125 
Q 57.125 28.21875 57.125 36.328125 
Q 57.125 47.5625 53.4375 53.59375 
Q 49.75 59.625 44.484375 61.671875 
Q 40.671875 63.140625 32.234375 63.140625 
L 17.1875 63.140625 
z
" id="ArialMT-68"/>
      <path d="M 40.4375 6.390625 
Q 35.546875 2.25 31.03125 0.53125 
Q 26.515625 -1.171875 21.34375 -1.171875 
Q 12.796875 -1.171875 8.203125 3 
Q 3.609375 7.171875 3.609375 13.671875 
Q 3.609375 17.484375 5.34375 20.625 
Q 7.078125 23.78125 9.890625 25.6875 
Q 12.703125 27.59375 16.21875 28.5625 
Q 18.796875 29.25 24.03125 29.890625 
Q 34.671875 31.15625 39.703125 32.90625 
Q 39.75 34.71875 39.75 35.203125 
Q 39.75 40.578125 37.25 42.78125 
Q 33.890625 45.75 27.25 45.75 
Q 21.046875 45.75 18.09375 43.578125 
Q 15.140625 41.40625 13.71875 35.890625 
L 5.125 37.0625 
Q 6.296875 42.578125 8.984375 45.96875 
Q 11.671875 49.359375 16.75 51.1875 
Q 21.828125 53.03125 28.515625 53.03125 
Q 35.15625 53.03125 39.296875 51.46875 
Q 43.453125 49.90625 45.40625 47.53125 
Q 47.359375 45.171875 48.140625 41.546875 
Q 48.578125 39.3125 48.578125 33.453125 
L 48.578125 21.734375 
Q 48.578125 9.46875 49.140625 6.21875 
Q 49.703125 2.984375 51.375 0 
L 42.1875 0 
Q 40.828125 2.734375 40.4375 6.390625 
z
M 39.703125 26.03125 
Q 34.90625 24.078125 25.34375 22.703125 
Q 19.921875 21.921875 17.671875 20.9375 
Q 15.4375 19.96875 14.203125 18.09375 
Q 12.984375 16.21875 12.984375 13.921875 
Q 12.984375 10.40625 15.640625 8.0625 
Q 18.3125 5.71875 23.4375 5.71875 
Q 28.515625 5.71875 32.46875 7.9375 
Q 36.421875 10.15625 38.28125 14.015625 
Q 39.703125 17 39.703125 22.796875 
z
" id="ArialMT-97"/>
      <path d="M 25.78125 7.859375 
L 27.046875 0.09375 
Q 23.34375 -0.6875 20.40625 -0.6875 
Q 15.625 -0.6875 12.984375 0.828125 
Q 10.359375 2.34375 9.28125 4.8125 
Q 8.203125 7.28125 8.203125 15.1875 
L 8.203125 45.015625 
L 1.765625 45.015625 
L 1.765625 51.859375 
L 8.203125 51.859375 
L 8.203125 64.703125 
L 16.9375 69.96875 
L 16.9375 51.859375 
L 25.78125 51.859375 
L 25.78125 45.015625 
L 16.9375 45.015625 
L 16.9375 14.703125 
Q 16.9375 10.9375 17.40625 9.859375 
Q 17.875 8.796875 18.921875 8.15625 
Q 19.96875 7.515625 21.921875 7.515625 
Q 23.390625 7.515625 25.78125 7.859375 
z
" id="ArialMT-116"/>
      <path d="M 42.09375 16.703125 
L 51.171875 15.578125 
Q 49.03125 7.625 43.21875 3.21875 
Q 37.40625 -1.171875 28.375 -1.171875 
Q 17 -1.171875 10.328125 5.828125 
Q 3.65625 12.84375 3.65625 25.484375 
Q 3.65625 38.578125 10.390625 45.796875 
Q 17.140625 53.03125 27.875 53.03125 
Q 38.28125 53.03125 44.875 45.953125 
Q 51.46875 38.875 51.46875 26.03125 
Q 51.46875 25.25 51.421875 23.6875 
L 12.75 23.6875 
Q 13.234375 15.140625 17.578125 10.59375 
Q 21.921875 6.0625 28.421875 6.0625 
Q 33.25 6.0625 36.671875 8.59375 
Q 40.09375 11.140625 42.09375 16.703125 
z
M 13.234375 30.90625 
L 42.1875 30.90625 
Q 41.609375 37.453125 38.875 40.71875 
Q 34.671875 45.796875 27.984375 45.796875 
Q 21.921875 45.796875 17.796875 41.75 
Q 13.671875 37.703125 13.234375 30.90625 
z
" id="ArialMT-101"/>
     </defs>
     <g style="fill:#262626;" transform="translate(226.0215 318.767102)scale(0.096 -0.096)">
      <use xlink:href="#ArialMT-68"/>
      <use x="72.216797" xlink:href="#ArialMT-97"/>
      <use x="127.832031" xlink:href="#ArialMT-116"/>
      <use x="155.615234" xlink:href="#ArialMT-101"/>
     </g>
    </g>
   </g>
   <g id="matplotlib.axis_2">
    <g id="ytick_1">
     <g id="line2d_10">
      <path clip-path="url(#p7cfe7a6843)" d="M 57.6 240.163487 
L 414.72 240.163487 
" style="fill:none;stroke:#ffffff;stroke-linecap:round;stroke-width:0.8;"/>
     </g>
     <g id="text_11">
      <!-- 400 -->
      <g style="fill:#262626;" transform="translate(34.619125 243.312925)scale(0.088 -0.088)">
       <use xlink:href="#ArialMT-52"/>
       <use x="55.615234" xlink:href="#ArialMT-48"/>
       <use x="111.230469" xlink:href="#ArialMT-48"/>
      </g>
     </g>
    </g>
    <g id="ytick_2">
     <g id="line2d_11">
      <path clip-path="url(#p7cfe7a6843)" d="M 57.6 194.813051 
L 414.72 194.813051 
" style="fill:none;stroke:#ffffff;stroke-linecap:round;stroke-width:0.8;"/>
     </g>
     <g id="text_12">
      <!-- 600 -->
      <g style="fill:#262626;" transform="translate(34.619125 197.962489)scale(0.088 -0.088)">
       <use xlink:href="#ArialMT-54"/>
       <use x="55.615234" xlink:href="#ArialMT-48"/>
       <use x="111.230469" xlink:href="#ArialMT-48"/>
      </g>
     </g>
    </g>
    <g id="ytick_3">
     <g id="line2d_12">
      <path clip-path="url(#p7cfe7a6843)" d="M 57.6 149.462615 
L 414.72 149.462615 
" style="fill:none;stroke:#ffffff;stroke-linecap:round;stroke-width:0.8;"/>
     </g>
     <g id="text_13">
      <!-- 800 -->
      <g style="fill:#262626;" transform="translate(34.619125 152.612053)scale(0.088 -0.088)">
       <use xlink:href="#ArialMT-56"/>
       <use x="55.615234" xlink:href="#ArialMT-48"/>
       <use x="111.230469" xlink:href="#ArialMT-48"/>
      </g>
     </g>
    </g>
    <g id="ytick_4">
     <g id="line2d_13">
      <path clip-path="url(#p7cfe7a6843)" d="M 57.6 104.11218 
L 414.72 104.11218 
" style="fill:none;stroke:#ffffff;stroke-linecap:round;stroke-width:0.8;"/>
     </g>
     <g id="text_14">
      <!-- 1000 -->
      <g style="fill:#262626;" transform="translate(29.7255 107.261617)scale(0.088 -0.088)">
       <use xlink:href="#ArialMT-49"/>
       <use x="55.615234" xlink:href="#ArialMT-48"/>
       <use x="111.230469" xlink:href="#ArialMT-48"/>
       <use x="166.845703" xlink:href="#ArialMT-48"/>
      </g>
     </g>
    </g>
    <g id="ytick_5">
     <g id="line2d_14">
      <path clip-path="url(#p7cfe7a6843)" d="M 57.6 58.761744 
L 414.72 58.761744 
" style="fill:none;stroke:#ffffff;stroke-linecap:round;stroke-width:0.8;"/>
     </g>
     <g id="text_15">
      <!-- 1200 -->
      <g style="fill:#262626;" transform="translate(29.7255 61.911181)scale(0.088 -0.088)">
       <use xlink:href="#ArialMT-49"/>
       <use x="55.615234" xlink:href="#ArialMT-50"/>
       <use x="111.230469" xlink:href="#ArialMT-48"/>
       <use x="166.845703" xlink:href="#ArialMT-48"/>
      </g>
     </g>
    </g>
    <g id="text_16">
     <!-- Price -->
     <defs>
      <path d="M 7.71875 0 
L 7.71875 71.578125 
L 34.71875 71.578125 
Q 41.84375 71.578125 45.609375 70.90625 
Q 50.875 70.015625 54.4375 67.546875 
Q 58.015625 65.09375 60.1875 60.640625 
Q 62.359375 56.203125 62.359375 50.875 
Q 62.359375 41.75 56.546875 35.421875 
Q 50.734375 29.109375 35.546875 29.109375 
L 17.1875 29.109375 
L 17.1875 0 
z
M 17.1875 37.546875 
L 35.6875 37.546875 
Q 44.875 37.546875 48.734375 40.96875 
Q 52.59375 44.390625 52.59375 50.59375 
Q 52.59375 55.078125 50.3125 58.265625 
Q 48.046875 61.46875 44.34375 62.5 
Q 41.9375 63.140625 35.5 63.140625 
L 17.1875 63.140625 
z
" id="ArialMT-80"/>
      <path d="M 6.5 0 
L 6.5 51.859375 
L 14.40625 51.859375 
L 14.40625 44 
Q 17.4375 49.515625 20 51.265625 
Q 22.5625 53.03125 25.640625 53.03125 
Q 30.078125 53.03125 34.671875 50.203125 
L 31.640625 42.046875 
Q 28.421875 43.953125 25.203125 43.953125 
Q 22.3125 43.953125 20.015625 42.21875 
Q 17.71875 40.484375 16.75 37.40625 
Q 15.28125 32.71875 15.28125 27.15625 
L 15.28125 0 
z
" id="ArialMT-114"/>
      <path d="M 6.640625 61.46875 
L 6.640625 71.578125 
L 15.4375 71.578125 
L 15.4375 61.46875 
z
M 6.640625 0 
L 6.640625 51.859375 
L 15.4375 51.859375 
L 15.4375 0 
z
" id="ArialMT-105"/>
      <path d="M 40.4375 19 
L 49.078125 17.875 
Q 47.65625 8.9375 41.8125 3.875 
Q 35.984375 -1.171875 27.484375 -1.171875 
Q 16.84375 -1.171875 10.375 5.78125 
Q 3.90625 12.75 3.90625 25.734375 
Q 3.90625 34.125 6.6875 40.421875 
Q 9.46875 46.734375 15.15625 49.875 
Q 20.84375 53.03125 27.546875 53.03125 
Q 35.984375 53.03125 41.359375 48.75 
Q 46.734375 44.484375 48.25 36.625 
L 39.703125 35.296875 
Q 38.484375 40.53125 35.375 43.15625 
Q 32.28125 45.796875 27.875 45.796875 
Q 21.234375 45.796875 17.078125 41.03125 
Q 12.9375 36.28125 12.9375 25.984375 
Q 12.9375 15.53125 16.9375 10.796875 
Q 20.953125 6.0625 27.390625 6.0625 
Q 32.5625 6.0625 36.03125 9.234375 
Q 39.5 12.40625 40.4375 19 
z
" id="ArialMT-99"/>
     </defs>
     <g style="fill:#262626;" transform="translate(23.8175 169.91175)rotate(-90)scale(0.096 -0.096)">
      <use xlink:href="#ArialMT-80"/>
      <use x="66.699219" xlink:href="#ArialMT-114"/>
      <use x="100" xlink:href="#ArialMT-105"/>
      <use x="122.216797" xlink:href="#ArialMT-99"/>
      <use x="172.216797" xlink:href="#ArialMT-101"/>
     </g>
    </g>
   </g>
   <g id="line2d_15">
    <path clip-path="url(#p7cfe7a6843)" d="M 73.832727 251.430803 
L 74.473915 250.50792 
L 74.687644 251.60767 
L 74.901373 250.090697 
L 75.115102 247.55561 
L 75.328831 247.154254 
L 76.183748 248.113418 
L 76.397477 248.650819 
L 76.824935 246.442255 
L 77.466122 245.460415 
L 78.321039 241.610167 
L 78.962226 241.909482 
L 79.175955 243.641865 
L 79.389685 243.34709 
L 79.603414 243.680416 
L 79.817143 243.1226 
L 80.45833 243.589709 
L 80.672059 242.934399 
L 80.885788 244.201943 
L 81.099518 244.41509 
L 81.313247 243.737104 
L 81.954434 242.664563 
L 82.168163 242.963878 
L 82.381892 241.079568 
L 82.595622 241.254165 
L 82.809351 239.66463 
L 83.450538 239.501368 
L 83.664267 240.344886 
L 84.091725 239.168042 
L 84.305455 240.598854 
L 84.946642 241.666855 
L 85.160371 240.437855 
L 85.587829 240.623794 
L 85.801558 240.970724 
L 86.442746 241.607897 
L 86.870204 239.72812 
L 87.083933 239.934465 
L 87.297662 240.694086 
L 87.93885 242.208789 
L 88.152579 240.721296 
L 88.366308 241.099975 
L 88.580037 241.115849 
L 88.793766 240.251924 
L 89.648683 238.564887 
L 89.862412 239.13403 
L 90.076141 240.192966 
L 90.28987 242.975213 
L 90.931058 243.274527 
L 91.144787 241.426498 
L 91.358516 243.746169 
L 91.572245 239.480961 
L 91.785974 249.530619 
L 92.427161 252.374093 
L 92.640891 251.965935 
L 92.85462 252.306064 
L 93.282078 248.988685 
L 93.923265 249.036301 
L 94.136994 248.827686 
L 94.350724 251.67116 
L 94.564453 249.868478 
L 94.778182 249.834466 
L 95.633098 250.673452 
L 95.846827 252.095186 
L 96.060557 251.546449 
L 96.274286 252.235771 
L 96.915473 251.097477 
L 97.129202 249.614516 
L 97.342931 249.278927 
L 97.55666 249.204095 
L 97.77039 248.757393 
L 98.411577 249.28346 
L 98.625306 248.349242 
L 98.839035 246.428651 
L 99.266494 246.498944 
L 99.907681 246.845874 
L 100.12141 247.233618 
L 100.762597 246.118002 
L 101.403785 245.82322 
L 101.617514 244.977438 
L 102.258701 249.092989 
L 102.899889 251.081603 
L 103.113618 250.433095 
L 103.327347 252.995392 
L 103.541076 254.115548 
L 103.754805 254.156362 
L 104.395993 254.591729 
L 104.609722 253.090631 
L 104.823451 253.324186 
L 105.250909 257.623405 
L 105.892096 258.811584 
L 106.319555 255.625719 
L 106.533284 258.958979 
L 106.747013 260.178899 
L 107.3882 259.231077 
L 107.601929 259.192533 
L 107.815659 257.469215 
L 108.029388 257.190307 
L 108.884304 255.838866 
L 109.098033 256.190329 
L 109.311763 257.265139 
L 109.525492 254.414863 
L 109.739221 261.970247 
L 110.380408 263.614201 
L 111.021596 261.049627 
L 111.235325 261.022418 
L 111.876512 260.559848 
L 112.090241 263.432795 
L 112.517699 265.487169 
L 113.372616 262.190197 
L 113.586345 261.786572 
L 113.800074 263.378376 
L 114.013803 263.929382 
L 114.227532 263.360232 
L 114.86872 263.57338 
L 115.296178 261.702674 
L 115.509907 261.725351 
L 115.723636 260.063261 
L 116.792282 260.534902 
L 117.006011 259.71406 
L 118.288386 261.301326 
L 118.502115 257.494154 
L 118.715844 256.110965 
L 119.357032 256.60302 
L 119.78449 254.857026 
L 119.998219 256.963555 
L 120.853135 256.575811 
L 121.066865 257.029315 
L 121.280594 255.042964 
L 121.494323 256.716396 
L 121.708052 257.3513 
L 122.349239 256.661978 
L 122.562968 257.360372 
L 122.776698 256.616625 
L 123.204156 257.267402 
L 123.845343 257.219786 
L 124.059072 255.494199 
L 124.272801 255.389895 
L 124.486531 254.337768 
L 125.341447 255.231172 
L 125.555176 257.439736 
L 125.768905 256.042942 
L 125.982635 256.507781 
L 126.196364 252.362752 
L 126.837551 250.294773 
L 127.05128 250.494316 
L 127.265009 250.16326 
L 127.478738 250.94555 
L 127.692468 249.537421 
L 128.333655 249.287993 
L 128.547384 249.043103 
L 128.761113 249.65533 
L 128.974842 249.548763 
L 129.188571 257.394383 
L 130.043488 258.303661 
L 130.257217 257.734511 
L 130.684675 261.237835 
L 131.325863 259.743539 
L 131.539592 260.045117 
L 131.753321 259.689114 
L 131.96705 260.24239 
L 132.180779 259.029271 
L 133.035696 258.457851 
L 133.463154 255.308267 
L 134.745529 254.725512 
L 135.172987 255.675604 
L 135.814174 255.124598 
L 136.027904 253.353664 
L 136.241633 253.047548 
L 136.455362 253.764085 
L 136.669091 253.986298 
L 137.524007 253.228947 
L 137.737737 253.99537 
L 137.951466 252.41944 
L 138.165195 252.321938 
L 138.806382 253.238019 
L 139.020111 256.092828 
L 139.23384 255.734562 
L 139.44757 255.918231 
L 139.661299 255.766304 
L 140.302486 257.421592 
L 140.516215 256.544062 
L 140.729944 257.396653 
L 140.943673 257.169901 
L 141.157403 255.736825 
L 141.79859 257.283277 
L 142.012319 257.48055 
L 142.226048 256.442028 
L 142.439777 257.866031 
L 142.653506 257.575789 
L 143.294694 257.890971 
L 143.508423 257.750386 
L 143.722152 258.879614 
L 143.935881 258.664197 
L 144.14961 257.682363 
L 144.790798 257.804804 
L 145.004527 258.988451 
L 145.218256 257.691428 
L 145.645714 260.255994 
L 146.286902 261.376151 
L 146.500631 260.954395 
L 146.928089 262.190197 
L 147.783006 261.430576 
L 147.996735 259.362597 
L 148.210464 259.897729 
L 148.424193 259.850113 
L 148.637922 265.772879 
L 149.279109 265.113029 
L 149.492839 263.838683 
L 149.706568 264.172009 
L 150.134026 261.60064 
L 150.775213 261.541682 
L 150.988942 262.201532 
L 151.202672 263.627805 
L 151.416401 263.600589 
L 151.63013 262.870454 
L 152.271317 261.680005 
L 152.485046 260.115409 
L 152.698776 260.228785 
L 152.912505 259.101827 
L 153.126234 256.530458 
L 153.767421 257.61207 
L 154.194879 256.8207 
L 154.622338 255.43978 
L 155.263525 254.757254 
L 155.477254 254.893307 
L 155.690983 255.226633 
L 156.118442 254.076997 
L 156.759629 256.943148 
L 156.973358 256.872856 
L 157.187087 259.097294 
L 157.400816 258.999792 
L 157.614545 259.974824 
L 158.255733 261.333067 
L 158.469462 260.004303 
L 158.683191 261.514473 
L 158.89692 261.169812 
L 159.110649 261.178877 
L 159.751837 261.462318 
L 159.965566 263.958861 
L 160.179295 263.092666 
L 160.393024 263.35343 
L 161.247941 261.355744 
L 161.46167 261.412432 
L 161.675399 262.151646 
L 162.102857 260.777529 
L 162.744045 260.108607 
L 162.957774 260.50316 
L 163.171503 260.491819 
L 163.598961 260.906779 
L 164.240148 262.342117 
L 164.453878 263.906706 
L 164.881336 262.734401 
L 165.095065 263.534836 
L 165.736252 264.786505 
L 165.949981 264.031424 
L 166.163711 264.36475 
L 166.37744 265.797818 
L 166.591169 264.938432 
L 167.446085 265.233207 
L 167.659814 263.462274 
L 167.873544 260.498621 
L 168.087273 260.029242 
L 168.72846 260.648278 
L 169.155918 261.952103 
L 169.369647 260.167565 
L 169.583377 250.473909 
L 170.224564 248.219992 
L 170.438293 248.428607 
L 170.652022 248.156501 
L 170.865751 246.083983 
L 171.079481 245.995553 
L 171.720668 246.839072 
L 172.361855 245.340236 
L 172.575584 244.283577 
L 173.64423 246.201899 
L 174.071688 243.868617 
L 174.926605 245.018252 
L 175.140334 243.480873 
L 175.354063 243.610123 
L 175.567792 244.662249 
L 176.20898 243.415113 
L 176.422709 243.653206 
L 176.636438 244.081764 
L 176.850167 242.923064 
L 177.063896 244.678124 
L 177.705083 245.025054 
L 177.918813 247.077159 
L 178.132542 247.789164 
L 178.346271 246.004625 
L 178.56 246.834539 
L 179.201187 246.206431 
L 179.414917 246.530685 
L 179.628646 245.800543 
L 179.842375 246.231378 
L 180.056104 245.040929 
L 180.91102 246.038637 
L 181.338479 247.566944 
L 181.552208 246.839072 
L 182.193395 245.925261 
L 182.620853 246.907095 
L 182.834583 246.45586 
L 183.689499 245.369715 
L 183.903228 245.966075 
L 184.116957 244.426425 
L 184.330686 243.895826 
L 184.544416 244.097639 
L 185.185603 244.163399 
L 185.399332 243.53983 
L 185.613061 243.916233 
L 185.82679 243.328946 
L 186.040519 245.705311 
L 186.681707 242.542115 
L 186.895436 242.163443 
L 187.109165 242.476362 
L 187.322894 242.433279 
L 187.536623 229.936962 
L 188.177811 231.419924 
L 188.39154 233.517381 
L 188.605269 233.503777 
L 188.818998 235.224825 
L 189.032727 234.977666 
L 189.673915 234.939115 
L 190.101373 235.832519 
L 190.528831 232.524206 
L 191.170019 232.714677 
L 191.383748 233.129637 
L 191.597477 234.070657 
L 191.811206 232.843927 
L 192.024935 234.26793 
L 192.666122 234.440264 
L 192.879852 235.240699 
L 193.093581 234.753183 
L 193.30731 232.991315 
L 193.521039 233.898323 
L 194.375955 234.388109 
L 194.589685 233.038931 
L 194.803414 234.13868 
L 195.017143 233.535518 
L 195.872059 233.136439 
L 196.085788 231.866626 
L 196.513247 234.052513 
L 197.154434 234.834811 
L 197.368163 234.385839 
L 197.581892 233.186325 
L 197.795622 232.687467 
L 198.009351 233.379059 
L 198.650538 234.79626 
L 198.864267 233.98222 
L 199.077996 233.85751 
L 199.291725 231.231715 
L 199.505455 232.245298 
L 200.146642 231.934649 
L 200.360371 229.735157 
L 200.5741 230.902929 
L 200.787829 231.070723 
L 201.001558 231.524228 
L 201.642746 233.39267 
L 202.070204 231.68522 
L 202.283933 231.612664 
L 203.13885 231.991337 
L 203.352579 231.837147 
L 203.566308 233.428945 
L 203.780037 232.365476 
L 203.993766 230.297498 
L 204.634954 227.562867 
L 204.848683 225.295345 
L 205.062412 226.288521 
L 205.48987 221.340786 
L 206.131058 220.186619 
L 206.558516 220.148075 
L 206.772245 221.528995 
L 206.985974 210.817224 
L 207.627161 210.365989 
L 207.840891 211.585903 
L 208.05462 210.912456 
L 208.268349 209.152857 
L 208.482078 209.291172 
L 209.123265 209.545134 
L 209.336994 210.254869 
L 209.550724 209.096169 
L 209.978182 212.359136 
L 210.619369 212.046217 
L 210.833098 211.261649 
L 211.046827 211.613126 
L 211.474286 210.341036 
L 212.115473 209.502064 
L 212.329202 209.547403 
L 212.542931 210.023591 
L 212.97039 218.742208 
L 213.611577 225.794203 
L 213.825306 225.113946 
L 214.252764 213.322833 
L 214.466494 213.40446 
L 215.107681 214.56543 
L 215.32141 218.27283 
L 215.535139 215.096036 
L 215.962597 217.715021 
L 216.817514 213.511041 
L 217.031243 213.658422 
L 217.458701 210.812684 
L 218.099889 212.640306 
L 218.313618 212.415824 
L 218.527347 211.277524 
L 218.741076 208.674413 
L 218.954805 208.359224 
L 219.595993 206.515728 
L 219.809722 208.78098 
L 220.23718 209.835383 
L 220.450909 211.989529 
L 221.305826 218.379404 
L 221.733284 212.789971 
L 221.947013 210.109758 
L 222.5882 207.583736 
L 222.801929 208.989602 
L 223.015659 207.978282 
L 223.229388 209.969173 
L 223.443117 208.463535 
L 224.084304 206.107577 
L 224.298033 206.400082 
L 224.511763 207.322965 
L 224.725492 203.329863 
L 224.939221 201.443283 
L 225.580408 200.901342 
L 225.794137 203.683595 
L 226.007866 204.842296 
L 226.221596 202.996543 
L 226.435325 195.032994 
L 227.290241 192.316508 
L 227.50397 190.935594 
L 227.717699 188.792784 
L 227.931429 188.940164 
L 228.572616 188.384632 
L 228.786345 189.073954 
L 229.213803 182.194287 
L 229.427532 181.350775 
L 230.06872 182.230575 
L 230.282449 181.280483 
L 230.496178 178.203454 
L 230.709907 179.938114 
L 230.923636 185.210102 
L 231.564824 183.97203 
L 231.778553 184.994685 
L 231.992282 180.405223 
L 232.206011 180.919941 
L 232.41974 179.291862 
L 233.060928 176.901899 
L 233.274657 178.679628 
L 233.488386 177.729536 
L 233.915844 178.201184 
L 234.557032 180.119513 
L 234.770761 176.886024 
L 234.98449 177.577616 
L 235.198219 179.790719 
L 235.411948 178.34177 
L 236.053135 178.978943 
L 236.266865 177.278301 
L 236.480594 180.121783 
L 236.694323 180.681854 
L 236.908052 185.708946 
L 237.549239 181.681839 
L 237.762968 181.5163 
L 237.976698 177.632034 
L 238.404156 180.269163 
L 239.045343 180.185266 
L 239.259072 180.493646 
L 239.472801 180.368935 
L 239.686531 180.575287 
L 240.541447 177.761285 
L 240.755176 173.505156 
L 240.968905 174.616233 
L 241.182635 177.604825 
L 242.037551 186.42549 
L 242.25128 187.1511 
L 242.465009 187.409587 
L 242.678738 193.012638 
L 242.892468 193.214451 
L 243.533655 190.79047 
L 243.747384 190.756451 
L 243.961113 198.937674 
L 244.174842 196.400316 
L 244.388571 201.574803 
L 245.243488 200.599771 
L 245.457217 201.214261 
L 245.670946 200.477316 
L 245.884675 195.633893 
L 246.525863 195.599875 
L 246.739592 194.529611 
L 246.953321 198.588481 
L 247.16705 186.797367 
L 247.380779 197.76083 
L 248.021967 200.524939 
L 248.449425 210.443077 
L 248.663154 209.266233 
L 248.876883 217.005286 
L 249.7318 221.553934 
L 249.945529 219.646947 
L 250.159258 216.622074 
L 251.227904 212.703804 
L 251.441633 209.756025 
L 251.655362 211.819465 
L 252.510278 203.996514 
L 252.724007 205.484008 
L 253.151466 204.982881 
L 253.365195 204.964751 
L 254.006382 205.57924 
L 254.220111 199.565782 
L 254.43384 199.300472 
L 254.861299 200.450107 
L 255.716215 203.824181 
L 256.143673 204.125765 
L 256.357403 201.704053 
L 256.99859 200.851463 
L 257.212319 200.023812 
L 257.426048 200.64738 
L 257.853506 205.679012 
L 258.494694 205.248191 
L 258.922152 201.699514 
L 259.135881 198.679173 
L 259.990798 199.377574 
L 260.204527 196.205313 
L 260.418256 195.110096 
L 260.631985 196.255192 
L 260.845714 195.153179 
L 261.486902 196.357233 
L 261.700631 197.955833 
L 261.91436 194.341403 
L 262.128089 196.756319 
L 262.341818 196.037519 
L 262.983006 195.735934 
L 263.196735 194.094251 
L 263.624193 190.107944 
L 263.837922 188.942434 
L 264.479109 186.797367 
L 264.692839 188.48666 
L 264.906568 187.332499 
L 265.120297 187.783734 
L 265.334026 190.164632 
L 265.975213 188.872141 
L 266.616401 194.359547 
L 266.83013 181.300883 
L 267.471317 175.799887 
L 267.685046 178.641084 
L 267.898776 178.736316 
L 268.112505 181.414259 
L 268.326234 178.044725 
L 268.967421 176.729565 
L 269.18115 171.441702 
L 269.394879 169.137906 
L 269.608609 168.072168 
L 269.822338 169.888456 
L 270.463525 169.720661 
L 270.677254 173.210367 
L 271.318442 171.50293 
L 271.959629 172.874778 
L 272.387087 170.244458 
L 272.600816 168.756964 
L 272.814545 169.362389 
L 273.669462 166.970156 
L 273.883191 167.72977 
L 274.09692 165.734354 
L 274.310649 166.346588 
L 274.951837 166.076752 
L 275.165566 166.754739 
L 275.379295 166.097152 
L 275.593024 165.86813 
L 275.806753 168.076708 
L 276.447941 168.682132 
L 276.66167 167.761519 
L 276.875399 168.904345 
L 277.089128 168.1674 
L 277.302857 170.688884 
L 278.157774 168.550612 
L 278.371503 169.734266 
L 278.585232 167.131141 
L 278.798961 172.373651 
L 279.440148 174.096975 
L 279.653878 170.335151 
L 279.867607 168.600505 
L 280.081336 168.595965 
L 280.295065 166.314839 
L 281.149981 165.766103 
L 281.363711 163.609687 
L 281.57744 163.845504 
L 281.791169 161.750317 
L 282.432356 159.943094 
L 282.859814 162.471387 
L 283.073544 162.795641 
L 283.287273 164.101736 
L 283.92846 163.958881 
L 284.355918 161.77073 
L 284.569647 162.063236 
L 284.783377 161.965734 
L 285.424564 163.156183 
L 285.638293 164.067717 
L 285.852022 163.822835 
L 286.065751 160.208404 
L 286.279481 158.802538 
L 286.920668 156.777643 
L 287.348126 159.748091 
L 287.775584 157.176729 
L 288.416772 157.045209 
L 288.630501 156.648392 
L 288.84423 156.591704 
L 289.271688 155.684696 
L 289.912876 156.607579 
L 290.126605 157.616629 
L 290.340334 157.482839 
L 290.554063 157.521383 
L 290.767792 159.142666 
L 291.40898 158.650618 
L 291.622709 157.977157 
L 291.836438 159.156271 
L 292.050167 158.709576 
L 292.263896 156.491933 
L 292.905083 155.972675 
L 293.118813 156.813917 
L 293.76 155.711905 
L 294.614917 151.986368 
L 294.828646 152.981814 
L 295.042375 153.077046 
L 295.256104 158.500954 
L 295.897291 155.927322 
L 296.11102 158.303681 
L 296.32475 158.285537 
L 296.752208 154.333248 
L 297.393395 155.10875 
L 297.607124 153.94778 
L 297.820853 151.789095 
L 298.034583 148.396877 
L 298.248312 148.15879 
L 298.889499 149.653093 
L 299.316957 142.950299 
L 299.530686 142.875467 
L 299.744416 141.002492 
L 300.385603 141.131743 
L 300.599332 141.746232 
L 300.813061 139.403892 
L 301.240519 140.521779 
L 301.881707 140.004777 
L 302.095436 142.433298 
L 302.309165 141.732627 
L 302.736623 144.25638 
L 303.377811 146.526172 
L 303.59154 145.460434 
L 303.805269 145.451369 
L 304.018998 147.122531 
L 304.232727 145.156594 
L 304.873915 140.825619 
L 305.087644 141.485475 
L 305.301373 144.340278 
L 305.515102 145.299449 
L 305.728831 154.832105 
L 306.370019 151.770951 
L 306.583748 152.770936 
L 306.797477 157.271961 
L 307.011206 156.938628 
L 307.224935 159.655129 
L 307.866122 152.879772 
L 308.079852 152.24033 
L 308.293581 155.838886 
L 308.50731 162.528075 
L 308.721039 163.292229 
L 309.362226 167.813668 
L 309.575955 162.333071 
L 309.789685 161.596127 
L 310.003414 159.349005 
L 310.217143 158.496428 
L 311.072059 152.789066 
L 311.285788 153.97045 
L 311.713247 153.913762 
L 312.568163 157.961283 
L 312.995622 162.240095 
L 313.209351 162.990644 
L 314.277996 156.169949 
L 314.491725 156.870605 
L 314.705455 156.569035 
L 315.346642 158.505493 
L 315.560371 155.28107 
L 316.201558 159.038355 
L 316.842746 157.172189 
L 317.056475 155.98855 
L 317.270204 156.129135 
L 317.697662 158.398913 
L 318.552579 155.947722 
L 318.766308 155.782197 
L 318.980037 157.364923 
L 319.193766 160.829703 
L 320.048683 159.968048 
L 320.262412 159.172145 
L 320.68987 150.371894 
L 321.331058 150.161016 
L 321.544787 150.392294 
L 321.758516 149.684828 
L 321.972245 146.369712 
L 322.185974 145.57608 
L 323.25462 147.766513 
L 323.468349 147.412781 
L 323.682078 147.573766 
L 324.536994 144.374296 
L 324.750724 141.181621 
L 324.964453 140.585262 
L 325.178182 141.351685 
L 325.819369 142.573883 
L 326.033098 144.138479 
L 326.460557 140.403863 
L 326.674286 147.14974 
L 327.315473 147.730225 
L 328.17039 143.235996 
L 328.811577 141.179352 
L 329.025306 141.2111 
L 329.239035 139.780295 
L 329.666494 139.242893 
L 330.52141 136.664722 
L 330.735139 136.85293 
L 330.948868 137.628419 
L 331.162597 139.204349 
L 331.803785 138.433386 
L 332.017514 139.249702 
L 332.231243 137.426606 
L 332.444972 138.372172 
L 332.658701 138.152216 
L 333.513618 139.027476 
L 333.941076 137.44475 
L 334.154805 137.567191 
L 334.795993 137.084208 
L 335.009722 137.551317 
L 335.43718 137.349518 
L 335.650909 137.601209 
L 336.292096 136.54455 
L 336.505826 139.666918 
L 336.719555 138.564906 
L 336.933284 138.719096 
L 337.147013 139.120452 
L 337.7882 138.846077 
L 338.001929 136.764493 
L 338.215659 132.610392 
L 338.429388 132.152348 
L 338.643117 129.839487 
L 339.284304 128.712521 
L 339.498033 125.238676 
L 339.711763 124.683131 
L 339.925492 127.177405 
L 340.139221 127.948367 
L 340.780408 125.191067 
L 341.207866 127.642258 
L 341.421596 130.263512 
L 342.276512 126.336163 
L 342.490241 125.930268 
L 342.70397 126.968796 
L 342.917699 126.320288 
L 343.131429 127.120716 
L 343.772616 125.10717 
L 343.986345 125.059547 
L 344.200074 124.680875 
L 344.627532 121.120863 
L 345.26872 115.851144 
L 345.482449 116.14365 
L 345.909907 118.277382 
L 346.123636 119.043805 
L 346.978553 114.810346 
L 347.192282 115.687875 
L 347.406011 115.98946 
L 347.61974 112.876157 
L 348.260928 113.64258 
L 348.474657 111.805879 
L 348.688386 116.637968 
L 348.902115 113.524665 
L 349.115844 113.218541 
L 349.757032 110.762825 
L 349.970761 110.565552 
L 350.611948 105.069067 
L 351.466865 104.860459 
L 351.680594 105.332107 
L 351.894323 105.030523 
L 352.108052 102.586142 
L 352.749239 101.540804 
L 352.962968 103.431923 
L 353.176698 101.828783 
L 353.390427 101.78343 
L 353.604156 109.030435 
L 354.245343 112.06892 
L 354.459072 108.468094 
L 354.672801 109.447665 
L 354.886531 112.236714 
L 355.10026 106.898959 
L 355.741447 105.207396 
L 355.955176 105.792407 
L 356.168905 103.606527 
L 356.382635 103.817404 
L 356.596364 103.264129 
L 357.237551 105.477232 
L 357.45128 109.377358 
L 357.665009 106.304869 
L 358.092468 111.368249 
L 358.733655 114.619882 
L 359.161113 110.597286 
L 359.374842 112.016757 
L 359.588571 108.928394 
L 360.229759 104.912621 
L 360.443488 105.443214 
L 360.657217 102.636021 
L 360.870946 103.969325 
L 361.084675 103.701759 
L 361.725863 101.835593 
L 361.939592 98.5681 
L 362.36705 97.604403 
L 362.580779 98.291441 
L 363.221967 95.280193 
L 363.435696 95.071571 
L 363.649425 92.139653 
L 363.863154 93.681579 
L 364.076883 99.568071 
L 364.718071 106.883084 
L 364.9318 104.976105 
L 365.145529 105.044128 
L 365.359258 107.078102 
L 365.572987 106.928438 
L 366.214174 105.864969 
L 366.427904 106.415976 
L 366.641633 108.191449 
L 366.855362 113.880667 
L 367.069091 111.370519 
L 367.710278 107.898944 
L 367.924007 108.025924 
L 368.137737 109.059914 
L 368.351466 113.053016 
L 369.206382 114.703779 
L 369.420111 111.617671 
L 369.84757 114.894243 
L 370.061299 116.524592 
L 370.702486 116.352258 
L 370.916215 114.529175 
L 371.343673 108.511177 
L 371.557403 109.044039 
L 372.412319 111.987278 
L 372.626048 111.413602 
L 372.839777 108.767408 
L 373.053506 111.844423 
L 373.908423 108.062199 
L 374.122152 104.202886 
L 374.54961 107.107581 
L 375.404527 110.946494 
L 375.618256 110.186865 
L 376.045714 114.293358 
L 376.686902 117.764933 
L 376.900631 118.034769 
L 377.11436 115.252515 
L 377.541818 112.876157 
L 378.183006 113.365935 
L 378.396735 113.839854 
L 378.610464 111.946465 
L 379.037922 106.474933 
L 379.679109 106.155219 
L 379.892839 107.014605 
L 380.320297 103.901302 
L 380.534026 103.445528 
L 381.175213 102.674565 
L 381.388942 102.041931 
L 381.816401 107.148395 
L 382.03013 107.98738 
L 382.671317 111.753731 
L 382.885046 109.576901 
L 383.098776 110.254902 
L 383.312505 110.363739 
L 383.526234 81.221558 
L 384.167421 78.976706 
L 384.38115 80.239703 
L 384.594879 80.602501 
L 384.808609 82.747596 
L 385.022338 78.806642 
L 385.877254 76.183104 
L 386.090983 73.981349 
L 386.518442 75.688799 
L 387.159629 74.822591 
L 387.373358 73.083419 
L 387.587087 75.384959 
L 387.800816 72.981364 
L 388.014545 74.661605 
L 388.655733 75.471098 
L 389.083191 68.702551 
L 389.510649 61.936274 
L 390.151837 59.70731 
L 390.365566 60.212963 
L 390.579295 67.543851 
L 390.793024 64.033732 
L 391.006753 67.298969 
L 391.647941 73.738736 
L 392.502857 67.378326 
L 393.144045 65.809191 
L 393.357774 66.67994 
L 393.571503 66.895343 
L 393.998961 63.491791 
L 394.640148 60.897759 
L 394.853878 61.623355 
L 395.067607 63.836459 
L 395.281336 64.484966 
L 395.495065 65.936186 
L 396.349981 64.031462 
L 396.77744 61.913604 
L 396.991169 65.684494 
L 397.846085 61.253748 
L 398.059814 57.809396 
L 398.273544 56.587198 
L 398.487273 52.154182 
L 398.487273 52.154182 
" style="fill:none;stroke:#4c72b0;stroke-linecap:round;stroke-width:1.2;"/>
   </g>
   <g id="patch_3">
    <path d="M 57.6 276.48 
L 57.6 41.472 
" style="fill:none;stroke:#ffffff;stroke-linecap:square;stroke-linejoin:miter;"/>
   </g>
   <g id="patch_4">
    <path d="M 414.72 276.48 
L 414.72 41.472 
" style="fill:none;stroke:#ffffff;stroke-linecap:square;stroke-linejoin:miter;"/>
   </g>
   <g id="patch_5">
    <path d="M 57.6 276.48 
L 414.72 276.48 
" style="fill:none;stroke:#ffffff;stroke-linecap:square;stroke-linejoin:miter;"/>
   </g>
   <g id="patch_6">
    <path d="M 57.6 41.472 
L 414.72 41.472 
" style="fill:none;stroke:#ffffff;stroke-linecap:square;stroke-linejoin:miter;"/>
   </g>
   <g id="text_17">
    <!-- Closing Price of AMZN -->
    <defs>
     <path d="M 58.796875 25.09375 
L 68.265625 22.703125 
Q 65.28125 11.03125 57.546875 4.90625 
Q 49.8125 -1.21875 38.625 -1.21875 
Q 27.046875 -1.21875 19.796875 3.484375 
Q 12.546875 8.203125 8.765625 17.140625 
Q 4.984375 26.078125 4.984375 36.328125 
Q 4.984375 47.515625 9.25 55.828125 
Q 13.53125 64.15625 21.40625 68.46875 
Q 29.296875 72.796875 38.765625 72.796875 
Q 49.515625 72.796875 56.828125 67.328125 
Q 64.15625 61.859375 67.046875 51.953125 
L 57.71875 49.75 
Q 55.21875 57.5625 50.484375 61.125 
Q 45.75 64.703125 38.578125 64.703125 
Q 30.328125 64.703125 24.78125 60.734375 
Q 19.234375 56.78125 16.984375 50.109375 
Q 14.75 43.453125 14.75 36.375 
Q 14.75 27.25 17.40625 20.4375 
Q 20.0625 13.625 25.671875 10.25 
Q 31.296875 6.890625 37.84375 6.890625 
Q 45.796875 6.890625 51.3125 11.46875 
Q 56.84375 16.0625 58.796875 25.09375 
z
" id="ArialMT-67"/>
     <path d="M 6.390625 0 
L 6.390625 71.578125 
L 15.1875 71.578125 
L 15.1875 0 
z
" id="ArialMT-108"/>
     <path d="M 3.328125 25.921875 
Q 3.328125 40.328125 11.328125 47.265625 
Q 18.015625 53.03125 27.640625 53.03125 
Q 38.328125 53.03125 45.109375 46.015625 
Q 51.90625 39.015625 51.90625 26.65625 
Q 51.90625 16.65625 48.90625 10.90625 
Q 45.90625 5.171875 40.15625 2 
Q 34.421875 -1.171875 27.640625 -1.171875 
Q 16.75 -1.171875 10.03125 5.8125 
Q 3.328125 12.796875 3.328125 25.921875 
z
M 12.359375 25.921875 
Q 12.359375 15.96875 16.703125 11.015625 
Q 21.046875 6.0625 27.640625 6.0625 
Q 34.1875 6.0625 38.53125 11.03125 
Q 42.875 16.015625 42.875 26.21875 
Q 42.875 35.84375 38.5 40.796875 
Q 34.125 45.75 27.640625 45.75 
Q 21.046875 45.75 16.703125 40.8125 
Q 12.359375 35.890625 12.359375 25.921875 
z
" id="ArialMT-111"/>
     <path d="M 3.078125 15.484375 
L 11.765625 16.84375 
Q 12.5 11.625 15.84375 8.84375 
Q 19.1875 6.0625 25.203125 6.0625 
Q 31.25 6.0625 34.171875 8.515625 
Q 37.109375 10.984375 37.109375 14.3125 
Q 37.109375 17.28125 34.515625 19 
Q 32.71875 20.171875 25.53125 21.96875 
Q 15.875 24.421875 12.140625 26.203125 
Q 8.40625 27.984375 6.46875 31.125 
Q 4.546875 34.28125 4.546875 38.09375 
Q 4.546875 41.546875 6.125 44.5 
Q 7.71875 47.46875 10.453125 49.421875 
Q 12.5 50.921875 16.03125 51.96875 
Q 19.578125 53.03125 23.640625 53.03125 
Q 29.734375 53.03125 34.34375 51.265625 
Q 38.96875 49.515625 41.15625 46.5 
Q 43.359375 43.5 44.1875 38.484375 
L 35.59375 37.3125 
Q 35.015625 41.3125 32.203125 43.546875 
Q 29.390625 45.796875 24.265625 45.796875 
Q 18.21875 45.796875 15.625 43.796875 
Q 13.03125 41.796875 13.03125 39.109375 
Q 13.03125 37.40625 14.109375 36.03125 
Q 15.1875 34.625 17.484375 33.6875 
Q 18.796875 33.203125 25.25 31.453125 
Q 34.578125 28.953125 38.25 27.359375 
Q 41.9375 25.78125 44.03125 22.75 
Q 46.140625 19.734375 46.140625 15.234375 
Q 46.140625 10.84375 43.578125 6.953125 
Q 41.015625 3.078125 36.171875 0.953125 
Q 31.34375 -1.171875 25.25 -1.171875 
Q 15.140625 -1.171875 9.84375 3.03125 
Q 4.546875 7.234375 3.078125 15.484375 
z
" id="ArialMT-115"/>
     <path d="M 6.59375 0 
L 6.59375 51.859375 
L 14.5 51.859375 
L 14.5 44.484375 
Q 20.21875 53.03125 31 53.03125 
Q 35.6875 53.03125 39.625 51.34375 
Q 43.5625 49.65625 45.515625 46.921875 
Q 47.46875 44.1875 48.25 40.4375 
Q 48.734375 37.984375 48.734375 31.890625 
L 48.734375 0 
L 39.9375 0 
L 39.9375 31.546875 
Q 39.9375 36.921875 38.90625 39.578125 
Q 37.890625 42.234375 35.28125 43.8125 
Q 32.671875 45.40625 29.15625 45.40625 
Q 23.53125 45.40625 19.453125 41.84375 
Q 15.375 38.28125 15.375 28.328125 
L 15.375 0 
z
" id="ArialMT-110"/>
     <path d="M 4.984375 -4.296875 
L 13.53125 -5.5625 
Q 14.0625 -9.515625 16.5 -11.328125 
Q 19.78125 -13.765625 25.4375 -13.765625 
Q 31.546875 -13.765625 34.859375 -11.328125 
Q 38.1875 -8.890625 39.359375 -4.5 
Q 40.046875 -1.8125 39.984375 6.78125 
Q 34.234375 0 25.640625 0 
Q 14.9375 0 9.078125 7.71875 
Q 3.21875 15.4375 3.21875 26.21875 
Q 3.21875 33.640625 5.90625 39.90625 
Q 8.59375 46.1875 13.6875 49.609375 
Q 18.796875 53.03125 25.6875 53.03125 
Q 34.859375 53.03125 40.828125 45.609375 
L 40.828125 51.859375 
L 48.921875 51.859375 
L 48.921875 7.03125 
Q 48.921875 -5.078125 46.453125 -10.125 
Q 44 -15.1875 38.640625 -18.109375 
Q 33.296875 -21.046875 25.484375 -21.046875 
Q 16.21875 -21.046875 10.5 -16.875 
Q 4.78125 -12.703125 4.984375 -4.296875 
z
M 12.25 26.859375 
Q 12.25 16.65625 16.296875 11.96875 
Q 20.359375 7.28125 26.46875 7.28125 
Q 32.515625 7.28125 36.609375 11.9375 
Q 40.71875 16.609375 40.71875 26.5625 
Q 40.71875 36.078125 36.5 40.90625 
Q 32.28125 45.75 26.3125 45.75 
Q 20.453125 45.75 16.34375 40.984375 
Q 12.25 36.234375 12.25 26.859375 
z
" id="ArialMT-103"/>
     <path id="ArialMT-32"/>
     <path d="M 8.6875 0 
L 8.6875 45.015625 
L 0.921875 45.015625 
L 0.921875 51.859375 
L 8.6875 51.859375 
L 8.6875 57.375 
Q 8.6875 62.59375 9.625 65.140625 
Q 10.890625 68.5625 14.078125 70.671875 
Q 17.28125 72.796875 23.046875 72.796875 
Q 26.765625 72.796875 31.25 71.921875 
L 29.9375 64.265625 
Q 27.203125 64.75 24.75 64.75 
Q 20.75 64.75 19.09375 63.03125 
Q 17.4375 61.328125 17.4375 56.640625 
L 17.4375 51.859375 
L 27.546875 51.859375 
L 27.546875 45.015625 
L 17.4375 45.015625 
L 17.4375 0 
z
" id="ArialMT-102"/>
     <path d="M -0.140625 0 
L 27.34375 71.578125 
L 37.546875 71.578125 
L 66.84375 0 
L 56.0625 0 
L 47.703125 21.6875 
L 17.78125 21.6875 
L 9.90625 0 
z
M 20.515625 29.390625 
L 44.78125 29.390625 
L 37.3125 49.21875 
Q 33.890625 58.25 32.234375 64.0625 
Q 30.859375 57.171875 28.375 50.390625 
z
" id="ArialMT-65"/>
     <path d="M 7.421875 0 
L 7.421875 71.578125 
L 21.6875 71.578125 
L 38.625 20.90625 
Q 40.96875 13.8125 42.046875 10.296875 
Q 43.265625 14.203125 45.84375 21.78125 
L 62.984375 71.578125 
L 75.734375 71.578125 
L 75.734375 0 
L 66.609375 0 
L 66.609375 59.90625 
L 45.796875 0 
L 37.25 0 
L 16.546875 60.9375 
L 16.546875 0 
z
" id="ArialMT-77"/>
     <path d="M 2 0 
L 2 8.796875 
L 38.671875 54.640625 
Q 42.578125 59.515625 46.09375 63.140625 
L 6.15625 63.140625 
L 6.15625 71.578125 
L 57.421875 71.578125 
L 57.421875 63.140625 
L 17.234375 13.484375 
L 12.890625 8.453125 
L 58.59375 8.453125 
L 58.59375 0 
z
" id="ArialMT-90"/>
     <path d="M 7.625 0 
L 7.625 71.578125 
L 17.328125 71.578125 
L 54.9375 15.375 
L 54.9375 71.578125 
L 64.015625 71.578125 
L 64.015625 0 
L 54.296875 0 
L 16.703125 56.25 
L 16.703125 0 
z
" id="ArialMT-78"/>
    </defs>
    <g style="fill:#262626;" transform="translate(187.61925 35.472)scale(0.096 -0.096)">
     <use xlink:href="#ArialMT-67"/>
     <use x="72.216797" xlink:href="#ArialMT-108"/>
     <use x="94.433594" xlink:href="#ArialMT-111"/>
     <use x="150.048828" xlink:href="#ArialMT-115"/>
     <use x="200.048828" xlink:href="#ArialMT-105"/>
     <use x="222.265625" xlink:href="#ArialMT-110"/>
     <use x="277.880859" xlink:href="#ArialMT-103"/>
     <use x="333.496094" xlink:href="#ArialMT-32"/>
     <use x="361.279297" xlink:href="#ArialMT-80"/>
     <use x="427.978516" xlink:href="#ArialMT-114"/>
     <use x="461.279297" xlink:href="#ArialMT-105"/>
     <use x="483.496094" xlink:href="#ArialMT-99"/>
     <use x="533.496094" xlink:href="#ArialMT-101"/>
     <use x="589.111328" xlink:href="#ArialMT-32"/>
     <use x="616.894531" xlink:href="#ArialMT-111"/>
     <use x="672.509766" xlink:href="#ArialMT-102"/>
     <use x="700.292969" xlink:href="#ArialMT-32"/>
     <use x="727.998047" xlink:href="#ArialMT-65"/>
     <use x="794.697266" xlink:href="#ArialMT-77"/>
     <use x="877.998047" xlink:href="#ArialMT-90"/>
     <use x="939.082031" xlink:href="#ArialMT-78"/>
    </g>
   </g>
  </g>
 </g>
 <defs>
  <clipPath id="p7cfe7a6843">
   <rect height="235.008" width="357.12" x="57.6" y="41.472"/>
  </clipPath>
 </defs>
</svg>
