<?xml version="1.0" encoding="utf-8" standalone="no"?>
<!DOCTYPE svg PUBLIC "-//W3C//DTD SVG 1.1//EN"
  "http://www.w3.org/Graphics/SVG/1.1/DTD/svg11.dtd">
<!-- Created with matplotlib (https://matplotlib.org/) -->
<svg height="273.955875pt" version="1.1" viewBox="0 0 538.7645 273.955875" width="538.7645pt" xmlns="http://www.w3.org/2000/svg" xmlns:xlink="http://www.w3.org/1999/xlink">
 <defs>
  <style type="text/css">
*{stroke-linecap:butt;stroke-linejoin:round;}
  </style>
 </defs>
 <g id="figure_1">
  <g id="patch_1">
   <path d="M 0 273.955875 
L 538.7645 273.955875 
L 538.7645 0 
L 0 0 
z
" style="fill:#ffffff;"/>
  </g>
  <g id="axes_1">
   <g id="patch_2">
    <path d="M 43.2065 237.6285 
L 378.0065 237.6285 
L 378.0065 20.1885 
L 43.2065 20.1885 
z
" style="fill:#eaeaf2;"/>
   </g>
   <g id="matplotlib.axis_1">
    <g id="xtick_1">
     <g id="line2d_1">
      <path clip-path="url(#p28a0028451)" d="M 52.213179 237.6285 
L 52.213179 20.1885 
" style="fill:none;stroke:#ffffff;stroke-linecap:round;stroke-width:0.8;"/>
     </g>
     <g id="text_1">
      <!-- 0 -->
      <defs>
       <path d="M 4.15625 35.296875 
Q 4.15625 48 6.765625 55.734375 
Q 9.375 63.484375 14.515625 67.671875 
Q 19.671875 71.875 27.484375 71.875 
Q 33.25 71.875 37.59375 69.546875 
Q 41.9375 67.234375 44.765625 62.859375 
Q 47.609375 58.5 49.21875 52.21875 
Q 50.828125 45.953125 50.828125 35.296875 
Q 50.828125 22.703125 48.234375 14.96875 
Q 45.65625 7.234375 40.5 3 
Q 35.359375 -1.21875 27.484375 -1.21875 
Q 17.140625 -1.21875 11.234375 6.203125 
Q 4.15625 15.140625 4.15625 35.296875 
z
M 13.1875 35.296875 
Q 13.1875 17.671875 17.3125 11.828125 
Q 21.4375 6 27.484375 6 
Q 33.546875 6 37.671875 11.859375 
Q 41.796875 17.71875 41.796875 35.296875 
Q 41.796875 52.984375 37.671875 58.78125 
Q 33.546875 64.59375 27.390625 64.59375 
Q 21.34375 64.59375 17.71875 59.46875 
Q 13.1875 52.9375 13.1875 35.296875 
z
" id="ArialMT-48"/>
      </defs>
      <g style="fill:#262626;" transform="translate(49.766367 252.227375)scale(0.088 -0.088)">
       <use xlink:href="#ArialMT-48"/>
      </g>
     </g>
    </g>
    <g id="xtick_2">
     <g id="line2d_2">
      <path clip-path="url(#p28a0028451)" d="M 114.328207 237.6285 
L 114.328207 20.1885 
" style="fill:none;stroke:#ffffff;stroke-linecap:round;stroke-width:0.8;"/>
     </g>
     <g id="text_2">
      <!-- 10 -->
      <defs>
       <path d="M 37.25 0 
L 28.46875 0 
L 28.46875 56 
Q 25.296875 52.984375 20.140625 49.953125 
Q 14.984375 46.921875 10.890625 45.40625 
L 10.890625 53.90625 
Q 18.265625 57.375 23.78125 62.296875 
Q 29.296875 67.234375 31.59375 71.875 
L 37.25 71.875 
z
" id="ArialMT-49"/>
      </defs>
      <g style="fill:#262626;" transform="translate(109.434582 252.227375)scale(0.088 -0.088)">
       <use xlink:href="#ArialMT-49"/>
       <use x="55.615234" xlink:href="#ArialMT-48"/>
      </g>
     </g>
    </g>
    <g id="xtick_3">
     <g id="line2d_3">
      <path clip-path="url(#p28a0028451)" d="M 176.443235 237.6285 
L 176.443235 20.1885 
" style="fill:none;stroke:#ffffff;stroke-linecap:round;stroke-width:0.8;"/>
     </g>
     <g id="text_3">
      <!-- 20 -->
      <defs>
       <path d="M 50.34375 8.453125 
L 50.34375 0 
L 3.03125 0 
Q 2.9375 3.171875 4.046875 6.109375 
Q 5.859375 10.9375 9.828125 15.625 
Q 13.8125 20.3125 21.34375 26.46875 
Q 33.015625 36.03125 37.109375 41.625 
Q 41.21875 47.21875 41.21875 52.203125 
Q 41.21875 57.421875 37.46875 61 
Q 33.734375 64.59375 27.734375 64.59375 
Q 21.390625 64.59375 17.578125 60.78125 
Q 13.765625 56.984375 13.71875 50.25 
L 4.6875 51.171875 
Q 5.609375 61.28125 11.65625 66.578125 
Q 17.71875 71.875 27.9375 71.875 
Q 38.234375 71.875 44.234375 66.15625 
Q 50.25 60.453125 50.25 52 
Q 50.25 47.703125 48.484375 43.546875 
Q 46.734375 39.40625 42.65625 34.8125 
Q 38.578125 30.21875 29.109375 22.21875 
Q 21.1875 15.578125 18.9375 13.203125 
Q 16.703125 10.84375 15.234375 8.453125 
z
" id="ArialMT-50"/>
      </defs>
      <g style="fill:#262626;" transform="translate(171.54961 252.227375)scale(0.088 -0.088)">
       <use xlink:href="#ArialMT-50"/>
       <use x="55.615234" xlink:href="#ArialMT-48"/>
      </g>
     </g>
    </g>
    <g id="xtick_4">
     <g id="line2d_4">
      <path clip-path="url(#p28a0028451)" d="M 238.558263 237.6285 
L 238.558263 20.1885 
" style="fill:none;stroke:#ffffff;stroke-linecap:round;stroke-width:0.8;"/>
     </g>
     <g id="text_4">
      <!-- 30 -->
      <defs>
       <path d="M 4.203125 18.890625 
L 12.984375 20.0625 
Q 14.5 12.59375 18.140625 9.296875 
Q 21.78125 6 27 6 
Q 33.203125 6 37.46875 10.296875 
Q 41.75 14.59375 41.75 20.953125 
Q 41.75 27 37.796875 30.921875 
Q 33.84375 34.859375 27.734375 34.859375 
Q 25.25 34.859375 21.53125 33.890625 
L 22.515625 41.609375 
Q 23.390625 41.5 23.921875 41.5 
Q 29.546875 41.5 34.03125 44.421875 
Q 38.53125 47.359375 38.53125 53.46875 
Q 38.53125 58.296875 35.25 61.46875 
Q 31.984375 64.65625 26.8125 64.65625 
Q 21.6875 64.65625 18.265625 61.421875 
Q 14.84375 58.203125 13.875 51.765625 
L 5.078125 53.328125 
Q 6.6875 62.15625 12.390625 67.015625 
Q 18.109375 71.875 26.609375 71.875 
Q 32.46875 71.875 37.390625 69.359375 
Q 42.328125 66.84375 44.9375 62.5 
Q 47.5625 58.15625 47.5625 53.265625 
Q 47.5625 48.640625 45.0625 44.828125 
Q 42.578125 41.015625 37.703125 38.765625 
Q 44.046875 37.3125 47.5625 32.6875 
Q 51.078125 28.078125 51.078125 21.140625 
Q 51.078125 11.765625 44.234375 5.25 
Q 37.40625 -1.265625 26.953125 -1.265625 
Q 17.53125 -1.265625 11.296875 4.34375 
Q 5.078125 9.96875 4.203125 18.890625 
z
" id="ArialMT-51"/>
      </defs>
      <g style="fill:#262626;" transform="translate(233.664638 252.227375)scale(0.088 -0.088)">
       <use xlink:href="#ArialMT-51"/>
       <use x="55.615234" xlink:href="#ArialMT-48"/>
      </g>
     </g>
    </g>
    <g id="xtick_5">
     <g id="line2d_5">
      <path clip-path="url(#p28a0028451)" d="M 300.67329 237.6285 
L 300.67329 20.1885 
" style="fill:none;stroke:#ffffff;stroke-linecap:round;stroke-width:0.8;"/>
     </g>
     <g id="text_5">
      <!-- 40 -->
      <defs>
       <path d="M 32.328125 0 
L 32.328125 17.140625 
L 1.265625 17.140625 
L 1.265625 25.203125 
L 33.9375 71.578125 
L 41.109375 71.578125 
L 41.109375 25.203125 
L 50.78125 25.203125 
L 50.78125 17.140625 
L 41.109375 17.140625 
L 41.109375 0 
z
M 32.328125 25.203125 
L 32.328125 57.46875 
L 9.90625 25.203125 
z
" id="ArialMT-52"/>
      </defs>
      <g style="fill:#262626;" transform="translate(295.779665 252.227375)scale(0.088 -0.088)">
       <use xlink:href="#ArialMT-52"/>
       <use x="55.615234" xlink:href="#ArialMT-48"/>
      </g>
     </g>
    </g>
    <g id="xtick_6">
     <g id="line2d_6">
      <path clip-path="url(#p28a0028451)" d="M 362.788318 237.6285 
L 362.788318 20.1885 
" style="fill:none;stroke:#ffffff;stroke-linecap:round;stroke-width:0.8;"/>
     </g>
     <g id="text_6">
      <!-- 50 -->
      <defs>
       <path d="M 4.15625 18.75 
L 13.375 19.53125 
Q 14.40625 12.796875 18.140625 9.390625 
Q 21.875 6 27.15625 6 
Q 33.5 6 37.890625 10.78125 
Q 42.28125 15.578125 42.28125 23.484375 
Q 42.28125 31 38.0625 35.34375 
Q 33.84375 39.703125 27 39.703125 
Q 22.75 39.703125 19.328125 37.765625 
Q 15.921875 35.84375 13.96875 32.765625 
L 5.71875 33.84375 
L 12.640625 70.609375 
L 48.25 70.609375 
L 48.25 62.203125 
L 19.671875 62.203125 
L 15.828125 42.96875 
Q 22.265625 47.46875 29.34375 47.46875 
Q 38.71875 47.46875 45.15625 40.96875 
Q 51.609375 34.46875 51.609375 24.265625 
Q 51.609375 14.546875 45.953125 7.46875 
Q 39.0625 -1.21875 27.15625 -1.21875 
Q 17.390625 -1.21875 11.203125 4.25 
Q 5.03125 9.71875 4.15625 18.75 
z
" id="ArialMT-53"/>
      </defs>
      <g style="fill:#262626;" transform="translate(357.894693 252.227375)scale(0.088 -0.088)">
       <use xlink:href="#ArialMT-53"/>
       <use x="55.615234" xlink:href="#ArialMT-48"/>
      </g>
     </g>
    </g>
    <g id="text_7">
     <!-- Episode -->
     <defs>
      <path d="M 7.90625 0 
L 7.90625 71.578125 
L 59.671875 71.578125 
L 59.671875 63.140625 
L 17.390625 63.140625 
L 17.390625 41.21875 
L 56.984375 41.21875 
L 56.984375 32.8125 
L 17.390625 32.8125 
L 17.390625 8.453125 
L 61.328125 8.453125 
L 61.328125 0 
z
" id="ArialMT-69"/>
      <path d="M 6.59375 -19.875 
L 6.59375 51.859375 
L 14.59375 51.859375 
L 14.59375 45.125 
Q 17.4375 49.078125 21 51.046875 
Q 24.5625 53.03125 29.640625 53.03125 
Q 36.28125 53.03125 41.359375 49.609375 
Q 46.4375 46.1875 49.015625 39.953125 
Q 51.609375 33.734375 51.609375 26.3125 
Q 51.609375 18.359375 48.75 11.984375 
Q 45.90625 5.609375 40.453125 2.21875 
Q 35.015625 -1.171875 29 -1.171875 
Q 24.609375 -1.171875 21.109375 0.6875 
Q 17.625 2.546875 15.375 5.375 
L 15.375 -19.875 
z
M 14.546875 25.640625 
Q 14.546875 15.625 18.59375 10.84375 
Q 22.65625 6.0625 28.421875 6.0625 
Q 34.28125 6.0625 38.453125 11.015625 
Q 42.625 15.96875 42.625 26.375 
Q 42.625 36.28125 38.546875 41.203125 
Q 34.46875 46.140625 28.8125 46.140625 
Q 23.1875 46.140625 18.859375 40.890625 
Q 14.546875 35.640625 14.546875 25.640625 
z
" id="ArialMT-112"/>
      <path d="M 6.640625 61.46875 
L 6.640625 71.578125 
L 15.4375 71.578125 
L 15.4375 61.46875 
z
M 6.640625 0 
L 6.640625 51.859375 
L 15.4375 51.859375 
L 15.4375 0 
z
" id="ArialMT-105"/>
      <path d="M 3.078125 15.484375 
L 11.765625 16.84375 
Q 12.5 11.625 15.84375 8.84375 
Q 19.1875 6.0625 25.203125 6.0625 
Q 31.25 6.0625 34.171875 8.515625 
Q 37.109375 10.984375 37.109375 14.3125 
Q 37.109375 17.28125 34.515625 19 
Q 32.71875 20.171875 25.53125 21.96875 
Q 15.875 24.421875 12.140625 26.203125 
Q 8.40625 27.984375 6.46875 31.125 
Q 4.546875 34.28125 4.546875 38.09375 
Q 4.546875 41.546875 6.125 44.5 
Q 7.71875 47.46875 10.453125 49.421875 
Q 12.5 50.921875 16.03125 51.96875 
Q 19.578125 53.03125 23.640625 53.03125 
Q 29.734375 53.03125 34.34375 51.265625 
Q 38.96875 49.515625 41.15625 46.5 
Q 43.359375 43.5 44.1875 38.484375 
L 35.59375 37.3125 
Q 35.015625 41.3125 32.203125 43.546875 
Q 29.390625 45.796875 24.265625 45.796875 
Q 18.21875 45.796875 15.625 43.796875 
Q 13.03125 41.796875 13.03125 39.109375 
Q 13.03125 37.40625 14.109375 36.03125 
Q 15.1875 34.625 17.484375 33.6875 
Q 18.796875 33.203125 25.25 31.453125 
Q 34.578125 28.953125 38.25 27.359375 
Q 41.9375 25.78125 44.03125 22.75 
Q 46.140625 19.734375 46.140625 15.234375 
Q 46.140625 10.84375 43.578125 6.953125 
Q 41.015625 3.078125 36.171875 0.953125 
Q 31.34375 -1.171875 25.25 -1.171875 
Q 15.140625 -1.171875 9.84375 3.03125 
Q 4.546875 7.234375 3.078125 15.484375 
z
" id="ArialMT-115"/>
      <path d="M 3.328125 25.921875 
Q 3.328125 40.328125 11.328125 47.265625 
Q 18.015625 53.03125 27.640625 53.03125 
Q 38.328125 53.03125 45.109375 46.015625 
Q 51.90625 39.015625 51.90625 26.65625 
Q 51.90625 16.65625 48.90625 10.90625 
Q 45.90625 5.171875 40.15625 2 
Q 34.421875 -1.171875 27.640625 -1.171875 
Q 16.75 -1.171875 10.03125 5.8125 
Q 3.328125 12.796875 3.328125 25.921875 
z
M 12.359375 25.921875 
Q 12.359375 15.96875 16.703125 11.015625 
Q 21.046875 6.0625 27.640625 6.0625 
Q 34.1875 6.0625 38.53125 11.03125 
Q 42.875 16.015625 42.875 26.21875 
Q 42.875 35.84375 38.5 40.796875 
Q 34.125 45.75 27.640625 45.75 
Q 21.046875 45.75 16.703125 40.8125 
Q 12.359375 35.890625 12.359375 25.921875 
z
" id="ArialMT-111"/>
      <path d="M 40.234375 0 
L 40.234375 6.546875 
Q 35.296875 -1.171875 25.734375 -1.171875 
Q 19.53125 -1.171875 14.328125 2.25 
Q 9.125 5.671875 6.265625 11.796875 
Q 3.421875 17.921875 3.421875 25.875 
Q 3.421875 33.640625 6 39.96875 
Q 8.59375 46.296875 13.765625 49.65625 
Q 18.953125 53.03125 25.34375 53.03125 
Q 30.03125 53.03125 33.6875 51.046875 
Q 37.359375 49.078125 39.65625 45.90625 
L 39.65625 71.578125 
L 48.390625 71.578125 
L 48.390625 0 
z
M 12.453125 25.875 
Q 12.453125 15.921875 16.640625 10.984375 
Q 20.84375 6.0625 26.5625 6.0625 
Q 32.328125 6.0625 36.34375 10.765625 
Q 40.375 15.484375 40.375 25.140625 
Q 40.375 35.796875 36.265625 40.765625 
Q 32.171875 45.75 26.171875 45.75 
Q 20.3125 45.75 16.375 40.96875 
Q 12.453125 36.1875 12.453125 25.875 
z
" id="ArialMT-100"/>
      <path d="M 42.09375 16.703125 
L 51.171875 15.578125 
Q 49.03125 7.625 43.21875 3.21875 
Q 37.40625 -1.171875 28.375 -1.171875 
Q 17 -1.171875 10.328125 5.828125 
Q 3.65625 12.84375 3.65625 25.484375 
Q 3.65625 38.578125 10.390625 45.796875 
Q 17.140625 53.03125 27.875 53.03125 
Q 38.28125 53.03125 44.875 45.953125 
Q 51.46875 38.875 51.46875 26.03125 
Q 51.46875 25.25 51.421875 23.6875 
L 12.75 23.6875 
Q 13.234375 15.140625 17.578125 10.59375 
Q 21.921875 6.0625 28.421875 6.0625 
Q 33.25 6.0625 36.671875 8.59375 
Q 40.09375 11.140625 42.09375 16.703125 
z
M 13.234375 30.90625 
L 42.1875 30.90625 
Q 41.609375 37.453125 38.875 40.71875 
Q 34.671875 45.796875 27.984375 45.796875 
Q 21.921875 45.796875 17.796875 41.75 
Q 13.671875 37.703125 13.234375 30.90625 
z
" id="ArialMT-101"/>
     </defs>
     <g style="fill:#262626;" transform="translate(193.26125 264.847875)scale(0.096 -0.096)">
      <use xlink:href="#ArialMT-69"/>
      <use x="66.699219" xlink:href="#ArialMT-112"/>
      <use x="122.314453" xlink:href="#ArialMT-105"/>
      <use x="144.53125" xlink:href="#ArialMT-115"/>
      <use x="194.53125" xlink:href="#ArialMT-111"/>
      <use x="250.146484" xlink:href="#ArialMT-100"/>
      <use x="305.761719" xlink:href="#ArialMT-101"/>
     </g>
    </g>
   </g>
   <g id="matplotlib.axis_2">
    <g id="ytick_1">
     <g id="line2d_7">
      <path clip-path="url(#p28a0028451)" d="M 43.2065 231.289627 
L 378.0065 231.289627 
" style="fill:none;stroke:#ffffff;stroke-linecap:round;stroke-width:0.8;"/>
     </g>
     <g id="text_8">
      <!-- −50 -->
      <defs>
       <path d="M 52.828125 31.203125 
L 5.5625 31.203125 
L 5.5625 39.40625 
L 52.828125 39.40625 
z
" id="ArialMT-8722"/>
      </defs>
      <g style="fill:#262626;" transform="translate(19.9795 234.439065)scale(0.088 -0.088)">
       <use xlink:href="#ArialMT-8722"/>
       <use x="58.398438" xlink:href="#ArialMT-53"/>
       <use x="114.013672" xlink:href="#ArialMT-48"/>
      </g>
     </g>
    </g>
    <g id="ytick_2">
     <g id="line2d_8">
      <path clip-path="url(#p28a0028451)" d="M 43.2065 191.046129 
L 378.0065 191.046129 
" style="fill:none;stroke:#ffffff;stroke-linecap:round;stroke-width:0.8;"/>
     </g>
     <g id="text_9">
      <!-- −40 -->
      <g style="fill:#262626;" transform="translate(19.9795 194.195567)scale(0.088 -0.088)">
       <use xlink:href="#ArialMT-8722"/>
       <use x="58.398438" xlink:href="#ArialMT-52"/>
       <use x="114.013672" xlink:href="#ArialMT-48"/>
      </g>
     </g>
    </g>
    <g id="ytick_3">
     <g id="line2d_9">
      <path clip-path="url(#p28a0028451)" d="M 43.2065 150.802631 
L 378.0065 150.802631 
" style="fill:none;stroke:#ffffff;stroke-linecap:round;stroke-width:0.8;"/>
     </g>
     <g id="text_10">
      <!-- −30 -->
      <g style="fill:#262626;" transform="translate(19.9795 153.952068)scale(0.088 -0.088)">
       <use xlink:href="#ArialMT-8722"/>
       <use x="58.398438" xlink:href="#ArialMT-51"/>
       <use x="114.013672" xlink:href="#ArialMT-48"/>
      </g>
     </g>
    </g>
    <g id="ytick_4">
     <g id="line2d_10">
      <path clip-path="url(#p28a0028451)" d="M 43.2065 110.559133 
L 378.0065 110.559133 
" style="fill:none;stroke:#ffffff;stroke-linecap:round;stroke-width:0.8;"/>
     </g>
     <g id="text_11">
      <!-- −20 -->
      <g style="fill:#262626;" transform="translate(19.9795 113.70857)scale(0.088 -0.088)">
       <use xlink:href="#ArialMT-8722"/>
       <use x="58.398438" xlink:href="#ArialMT-50"/>
       <use x="114.013672" xlink:href="#ArialMT-48"/>
      </g>
     </g>
    </g>
    <g id="ytick_5">
     <g id="line2d_11">
      <path clip-path="url(#p28a0028451)" d="M 43.2065 70.315635 
L 378.0065 70.315635 
" style="fill:none;stroke:#ffffff;stroke-linecap:round;stroke-width:0.8;"/>
     </g>
     <g id="text_12">
      <!-- −10 -->
      <g style="fill:#262626;" transform="translate(19.9795 73.465072)scale(0.088 -0.088)">
       <use xlink:href="#ArialMT-8722"/>
       <use x="58.398438" xlink:href="#ArialMT-49"/>
       <use x="114.013672" xlink:href="#ArialMT-48"/>
      </g>
     </g>
    </g>
    <g id="ytick_6">
     <g id="line2d_12">
      <path clip-path="url(#p28a0028451)" d="M 43.2065 30.072136 
L 378.0065 30.072136 
" style="fill:none;stroke:#ffffff;stroke-linecap:round;stroke-width:0.8;"/>
     </g>
     <g id="text_13">
      <!-- 0 -->
      <g style="fill:#262626;" transform="translate(30.012875 33.221574)scale(0.088 -0.088)">
       <use xlink:href="#ArialMT-48"/>
      </g>
     </g>
    </g>
    <g id="text_14">
     <!-- Reward -->
     <defs>
      <path d="M 7.859375 0 
L 7.859375 71.578125 
L 39.59375 71.578125 
Q 49.171875 71.578125 54.140625 69.640625 
Q 59.125 67.71875 62.109375 62.828125 
Q 65.09375 57.953125 65.09375 52.046875 
Q 65.09375 44.4375 60.15625 39.203125 
Q 55.21875 33.984375 44.921875 32.5625 
Q 48.6875 30.765625 50.640625 29 
Q 54.78125 25.203125 58.5 19.484375 
L 70.953125 0 
L 59.03125 0 
L 49.5625 14.890625 
Q 45.40625 21.34375 42.71875 24.75 
Q 40.046875 28.171875 37.921875 29.53125 
Q 35.796875 30.90625 33.59375 31.453125 
Q 31.984375 31.78125 28.328125 31.78125 
L 17.328125 31.78125 
L 17.328125 0 
z
M 17.328125 39.984375 
L 37.703125 39.984375 
Q 44.1875 39.984375 47.84375 41.328125 
Q 51.515625 42.671875 53.421875 45.625 
Q 55.328125 48.578125 55.328125 52.046875 
Q 55.328125 57.125 51.640625 60.390625 
Q 47.953125 63.671875 39.984375 63.671875 
L 17.328125 63.671875 
z
" id="ArialMT-82"/>
      <path d="M 16.15625 0 
L 0.296875 51.859375 
L 9.375 51.859375 
L 17.625 21.921875 
L 20.703125 10.796875 
Q 20.90625 11.625 23.390625 21.484375 
L 31.640625 51.859375 
L 40.671875 51.859375 
L 48.4375 21.78125 
L 51.03125 11.859375 
L 54 21.875 
L 62.890625 51.859375 
L 71.4375 51.859375 
L 55.21875 0 
L 46.09375 0 
L 37.84375 31.0625 
L 35.84375 39.890625 
L 25.34375 0 
z
" id="ArialMT-119"/>
      <path d="M 40.4375 6.390625 
Q 35.546875 2.25 31.03125 0.53125 
Q 26.515625 -1.171875 21.34375 -1.171875 
Q 12.796875 -1.171875 8.203125 3 
Q 3.609375 7.171875 3.609375 13.671875 
Q 3.609375 17.484375 5.34375 20.625 
Q 7.078125 23.78125 9.890625 25.6875 
Q 12.703125 27.59375 16.21875 28.5625 
Q 18.796875 29.25 24.03125 29.890625 
Q 34.671875 31.15625 39.703125 32.90625 
Q 39.75 34.71875 39.75 35.203125 
Q 39.75 40.578125 37.25 42.78125 
Q 33.890625 45.75 27.25 45.75 
Q 21.046875 45.75 18.09375 43.578125 
Q 15.140625 41.40625 13.71875 35.890625 
L 5.125 37.0625 
Q 6.296875 42.578125 8.984375 45.96875 
Q 11.671875 49.359375 16.75 51.1875 
Q 21.828125 53.03125 28.515625 53.03125 
Q 35.15625 53.03125 39.296875 51.46875 
Q 43.453125 49.90625 45.40625 47.53125 
Q 47.359375 45.171875 48.140625 41.546875 
Q 48.578125 39.3125 48.578125 33.453125 
L 48.578125 21.734375 
Q 48.578125 9.46875 49.140625 6.21875 
Q 49.703125 2.984375 51.375 0 
L 42.1875 0 
Q 40.828125 2.734375 40.4375 6.390625 
z
M 39.703125 26.03125 
Q 34.90625 24.078125 25.34375 22.703125 
Q 19.921875 21.921875 17.671875 20.9375 
Q 15.4375 19.96875 14.203125 18.09375 
Q 12.984375 16.21875 12.984375 13.921875 
Q 12.984375 10.40625 15.640625 8.0625 
Q 18.3125 5.71875 23.4375 5.71875 
Q 28.515625 5.71875 32.46875 7.9375 
Q 36.421875 10.15625 38.28125 14.015625 
Q 39.703125 17 39.703125 22.796875 
z
" id="ArialMT-97"/>
      <path d="M 6.5 0 
L 6.5 51.859375 
L 14.40625 51.859375 
L 14.40625 44 
Q 17.4375 49.515625 20 51.265625 
Q 22.5625 53.03125 25.640625 53.03125 
Q 30.078125 53.03125 34.671875 50.203125 
L 31.640625 42.046875 
Q 28.421875 43.953125 25.203125 43.953125 
Q 22.3125 43.953125 20.015625 42.21875 
Q 17.71875 40.484375 16.75 37.40625 
Q 15.28125 32.71875 15.28125 27.15625 
L 15.28125 0 
z
" id="ArialMT-114"/>
     </defs>
     <g style="fill:#262626;" transform="translate(14.0715 145.4475)rotate(-90)scale(0.096 -0.096)">
      <use xlink:href="#ArialMT-82"/>
      <use x="72.216797" xlink:href="#ArialMT-101"/>
      <use x="127.832031" xlink:href="#ArialMT-119"/>
      <use x="200.048828" xlink:href="#ArialMT-97"/>
      <use x="255.664062" xlink:href="#ArialMT-114"/>
      <use x="288.964844" xlink:href="#ArialMT-100"/>
     </g>
    </g>
   </g>
   <g id="PolyCollection_1">
    <defs>
     <path d="M 58.424682 -94.752332 
L 58.424682 -65.602396 
L 64.636185 -46.211011 
L 70.847687 -89.781793 
L 77.05919 -157.947347 
L 83.270693 -196.457716 
L 89.482196 -223.891052 
L 95.693699 -227.64492 
L 101.905201 -243.831137 
L 108.116704 -243.847086 
L 114.328207 -243.50948 
L 120.53971 -243.876696 
L 126.751212 -243.551283 
L 132.962715 -243.622265 
L 139.174218 -243.879898 
L 145.385721 -243.88361 
L 151.597224 -243.883287 
L 157.808726 -243.883734 
L 164.020229 -243.88373 
L 170.231732 -243.883738 
L 176.443235 -243.881224 
L 182.654737 -243.882775 
L 188.86624 -243.883735 
L 195.077743 -243.883721 
L 201.289246 -243.883137 
L 207.500749 -243.883704 
L 213.712251 -243.883739 
L 219.923754 -243.883734 
L 226.135257 -243.883737 
L 232.34676 -243.883736 
L 238.558263 -243.883737 
L 244.769765 -243.849546 
L 250.981268 -243.883739 
L 257.192771 -243.883739 
L 263.404274 -243.88373 
L 269.615776 -243.883739 
L 275.827279 -243.883738 
L 282.038782 -243.883739 
L 288.250285 -243.883739 
L 294.461788 -243.883739 
L 300.67329 -243.883739 
L 306.884793 -243.883739 
L 313.096296 -243.883738 
L 319.307799 -243.883737 
L 325.519301 -243.882968 
L 331.730804 -243.883739 
L 337.942307 -243.883739 
L 344.15381 -243.883739 
L 350.365313 -243.883717 
L 356.576815 -243.883739 
L 362.788318 -243.883739 
L 362.788318 -243.883739 
L 362.788318 -243.883739 
L 356.576815 -243.883739 
L 350.365313 -243.883739 
L 344.15381 -243.883739 
L 337.942307 -243.883739 
L 331.730804 -243.883739 
L 325.519301 -243.883739 
L 319.307799 -243.883739 
L 313.096296 -243.883739 
L 306.884793 -243.883739 
L 300.67329 -243.883739 
L 294.461788 -243.883739 
L 288.250285 -243.883739 
L 282.038782 -243.883739 
L 275.827279 -243.883739 
L 269.615776 -243.883739 
L 263.404274 -243.883738 
L 257.192771 -243.883739 
L 250.981268 -243.883739 
L 244.769765 -243.883739 
L 238.558263 -243.883739 
L 232.34676 -243.883739 
L 226.135257 -243.883739 
L 219.923754 -243.883739 
L 213.712251 -243.883739 
L 207.500749 -243.883739 
L 201.289246 -243.883738 
L 195.077743 -243.883739 
L 188.86624 -243.883739 
L 182.654737 -243.883739 
L 176.443235 -243.883738 
L 170.231732 -243.883739 
L 164.020229 -243.883738 
L 157.808726 -243.883738 
L 151.597224 -243.883732 
L 145.385721 -243.883723 
L 139.174218 -243.883736 
L 132.962715 -243.883711 
L 126.751212 -243.883733 
L 120.53971 -243.883558 
L 114.328207 -243.883486 
L 108.116704 -243.882645 
L 101.905201 -243.881762 
L 95.693699 -243.52405 
L 89.482196 -243.685176 
L 83.270693 -232.603559 
L 77.05919 -209.81053 
L 70.847687 -147.115287 
L 64.636185 -79.556187 
L 58.424682 -94.752332 
z
" id="m40644f722e" style="stroke:#4c72b0;stroke-opacity:0.2;stroke-width:0.8;"/>
    </defs>
    <g clip-path="url(#p28a0028451)">
     <use style="fill:#4c72b0;fill-opacity:0.2;stroke:#4c72b0;stroke-opacity:0.2;stroke-width:0.8;" x="0" xlink:href="#m40644f722e" y="273.955875"/>
    </g>
   </g>
   <g id="PolyCollection_2">
    <defs>
     <path d="M 58.424682 -239.269076 
L 58.424682 -237.65427 
L 64.636185 -217.544854 
L 70.847687 -207.900684 
L 77.05919 -208.140626 
L 83.270693 -205.10721 
L 89.482196 -205.418827 
L 95.693699 -205.43127 
L 101.905201 -204.71062 
L 108.116704 -204.547699 
L 114.328207 -203.079665 
L 120.53971 -204.531029 
L 126.751212 -204.473348 
L 132.962715 -204.882033 
L 139.174218 -204.263139 
L 145.385721 -204.442437 
L 151.597224 -204.735962 
L 157.808726 -204.24667 
L 164.020229 -204.020925 
L 170.231732 -204.441412 
L 176.443235 -204.635018 
L 182.654737 -203.290486 
L 188.86624 -204.340661 
L 195.077743 -204.671158 
L 201.289246 -204.742715 
L 207.500749 -203.147077 
L 213.712251 -204.644912 
L 219.923754 -204.812885 
L 226.135257 -202.881882 
L 232.34676 -203.765067 
L 238.558263 -204.493638 
L 244.769765 -204.919731 
L 250.981268 -204.972264 
L 257.192771 -204.583368 
L 263.404274 -204.705918 
L 269.615776 -204.538138 
L 275.827279 -204.943844 
L 282.038782 -204.842847 
L 288.250285 -204.950986 
L 294.461788 -204.734668 
L 300.67329 -205.095768 
L 306.884793 -205.231029 
L 313.096296 -204.8422 
L 319.307799 -205.368684 
L 325.519301 -204.934536 
L 331.730804 -204.626192 
L 337.942307 -205.372468 
L 344.15381 -205.02752 
L 350.365313 -205.569728 
L 356.576815 -205.662083 
L 362.788318 -205.596564 
L 362.788318 -215.652746 
L 362.788318 -215.652746 
L 356.576815 -214.917797 
L 350.365313 -215.524112 
L 344.15381 -214.761896 
L 337.942307 -214.94385 
L 331.730804 -214.71862 
L 325.519301 -214.179742 
L 319.307799 -214.820279 
L 313.096296 -215.113152 
L 306.884793 -214.305754 
L 300.67329 -214.248816 
L 294.461788 -213.791624 
L 288.250285 -215.150128 
L 282.038782 -212.97776 
L 275.827279 -215.438325 
L 269.615776 -212.413655 
L 263.404274 -214.214562 
L 257.192771 -213.676544 
L 250.981268 -214.428918 
L 244.769765 -214.003408 
L 238.558263 -214.023277 
L 232.34676 -212.111076 
L 226.135257 -211.21859 
L 219.923754 -213.754573 
L 213.712251 -212.6099 
L 207.500749 -212.067015 
L 201.289246 -212.771816 
L 195.077743 -212.779854 
L 188.86624 -212.341045 
L 182.654737 -210.413169 
L 176.443235 -213.08724 
L 170.231732 -212.532172 
L 164.020229 -211.882031 
L 157.808726 -212.325943 
L 151.597224 -212.828872 
L 145.385721 -212.438154 
L 139.174218 -211.446401 
L 132.962715 -213.441783 
L 126.751212 -212.75236 
L 120.53971 -211.504475 
L 114.328207 -211.245302 
L 108.116704 -212.347862 
L 101.905201 -211.539191 
L 95.693699 -213.196937 
L 89.482196 -214.726836 
L 83.270693 -213.010552 
L 77.05919 -218.420272 
L 70.847687 -216.946901 
L 64.636185 -224.764193 
L 58.424682 -239.269076 
z
" id="m39a639e9d3" style="stroke:#dd8452;stroke-opacity:0.2;stroke-width:0.8;"/>
    </defs>
    <g clip-path="url(#p28a0028451)">
     <use style="fill:#dd8452;fill-opacity:0.2;stroke:#dd8452;stroke-opacity:0.2;stroke-width:0.8;" x="0" xlink:href="#m39a639e9d3" y="273.955875"/>
    </g>
   </g>
   <g id="PolyCollection_3">
    <defs>
     <path d="M 58.424682 -95.760817 
L 58.424682 -63.639363 
L 64.636185 -150.786568 
L 70.847687 -155.421386 
L 77.05919 -177.591141 
L 83.270693 -178.484646 
L 89.482196 -196.568547 
L 95.693699 -193.908668 
L 101.905201 -201.264577 
L 108.116704 -189.920314 
L 114.328207 -186.925427 
L 120.53971 -182.310158 
L 126.751212 -186.448182 
L 132.962715 -193.632596 
L 139.174218 -194.5056 
L 145.385721 -185.762731 
L 151.597224 -188.570807 
L 157.808726 -202.659783 
L 164.020229 -188.174638 
L 170.231732 -197.134734 
L 176.443235 -200.924025 
L 182.654737 -190.492812 
L 188.86624 -194.31023 
L 195.077743 -198.270611 
L 201.289246 -182.246706 
L 207.500749 -188.654376 
L 213.712251 -183.593091 
L 219.923754 -196.394671 
L 226.135257 -192.747562 
L 232.34676 -190.619689 
L 238.558263 -192.424237 
L 244.769765 -189.253552 
L 250.981268 -186.797782 
L 257.192771 -175.000266 
L 263.404274 -174.641431 
L 269.615776 -183.308138 
L 275.827279 -189.281312 
L 282.038782 -192.356511 
L 288.250285 -193.100017 
L 294.461788 -189.22064 
L 300.67329 -192.53361 
L 306.884793 -186.646901 
L 313.096296 -181.657318 
L 319.307799 -184.182176 
L 325.519301 -175.273175 
L 331.730804 -188.285559 
L 337.942307 -197.909508 
L 344.15381 -191.394114 
L 350.365313 -188.610391 
L 356.576815 -182.069109 
L 362.788318 -189.599787 
L 362.788318 -211.009861 
L 362.788318 -211.009861 
L 356.576815 -205.699597 
L 350.365313 -213.385465 
L 344.15381 -213.066921 
L 337.942307 -217.555121 
L 331.730804 -209.670411 
L 325.519301 -206.2173 
L 319.307799 -206.687589 
L 313.096296 -211.835184 
L 306.884793 -211.291989 
L 300.67329 -212.304052 
L 294.461788 -214.014765 
L 288.250285 -215.680873 
L 282.038782 -212.12381 
L 275.827279 -212.550569 
L 269.615776 -208.848114 
L 263.404274 -205.60965 
L 257.192771 -201.20605 
L 250.981268 -211.422067 
L 244.769765 -214.642179 
L 238.558263 -213.545489 
L 232.34676 -215.662941 
L 226.135257 -216.912016 
L 219.923754 -215.105265 
L 213.712251 -208.112099 
L 207.500749 -211.591163 
L 201.289246 -211.75027 
L 195.077743 -215.870545 
L 188.86624 -215.787484 
L 182.654737 -212.993107 
L 176.443235 -214.331478 
L 170.231732 -216.486587 
L 164.020229 -212.866876 
L 157.808726 -217.77826 
L 151.597224 -210.126953 
L 145.385721 -216.002209 
L 139.174218 -213.113029 
L 132.962715 -215.662193 
L 126.751212 -211.485611 
L 120.53971 -207.88377 
L 114.328207 -211.773384 
L 108.116704 -214.382634 
L 101.905201 -215.757835 
L 95.693699 -213.813666 
L 89.482196 -217.630754 
L 83.270693 -206.290141 
L 77.05919 -208.420944 
L 70.847687 -188.1038 
L 64.636185 -188.730383 
L 58.424682 -95.760817 
z
" id="m8e1944f011" style="stroke:#55a868;stroke-opacity:0.2;stroke-width:0.8;"/>
    </defs>
    <g clip-path="url(#p28a0028451)">
     <use style="fill:#55a868;fill-opacity:0.2;stroke:#55a868;stroke-opacity:0.2;stroke-width:0.8;" x="0" xlink:href="#m8e1944f011" y="273.955875"/>
    </g>
   </g>
   <g id="PolyCollection_4">
    <defs>
     <path d="M 58.424682 -101.010466 
L 58.424682 -65.225388 
L 64.636185 -191.396759 
L 70.847687 -195.040158 
L 77.05919 -207.515734 
L 83.270693 -207.68247 
L 89.482196 -207.572272 
L 95.693699 -205.656767 
L 101.905201 -200.653083 
L 108.116704 -206.180998 
L 114.328207 -207.614129 
L 120.53971 -207.794504 
L 126.751212 -206.860875 
L 132.962715 -207.710699 
L 139.174218 -207.589041 
L 145.385721 -207.575827 
L 151.597224 -197.728109 
L 157.808726 -207.554088 
L 164.020229 -207.231414 
L 170.231732 -207.650352 
L 176.443235 -207.529015 
L 182.654737 -207.673268 
L 188.86624 -207.613691 
L 195.077743 -207.404328 
L 201.289246 -207.58507 
L 207.500749 -207.737989 
L 213.712251 -207.769388 
L 219.923754 -207.695972 
L 226.135257 -207.651373 
L 232.34676 -207.572959 
L 238.558263 -207.631762 
L 244.769765 -203.820093 
L 250.981268 -207.676079 
L 257.192771 -207.326899 
L 263.404274 -207.995506 
L 269.615776 -200.373563 
L 275.827279 -207.889963 
L 282.038782 -207.695853 
L 288.250285 -207.886839 
L 294.461788 -207.703405 
L 300.67329 -207.772087 
L 306.884793 -207.626785 
L 313.096296 -207.913658 
L 319.307799 -207.415255 
L 325.519301 -203.707435 
L 331.730804 -207.339285 
L 337.942307 -207.151804 
L 344.15381 -208.447701 
L 350.365313 -206.727701 
L 356.576815 -205.205221 
L 362.788318 -198.246862 
L 362.788318 -217.124005 
L 362.788318 -217.124005 
L 356.576815 -218.492979 
L 350.365313 -218.884662 
L 344.15381 -220.017297 
L 337.942307 -219.800566 
L 331.730804 -219.820815 
L 325.519301 -218.520575 
L 319.307799 -219.553605 
L 313.096296 -219.871722 
L 306.884793 -220.033927 
L 300.67329 -219.73314 
L 294.461788 -219.720743 
L 288.250285 -219.669295 
L 282.038782 -218.594552 
L 275.827279 -219.700048 
L 269.615776 -218.462017 
L 263.404274 -219.833545 
L 257.192771 -219.041318 
L 250.981268 -219.903391 
L 244.769765 -218.38863 
L 238.558263 -219.748767 
L 232.34676 -218.76237 
L 226.135257 -219.886824 
L 219.923754 -219.941432 
L 213.712251 -218.79161 
L 207.500749 -219.888346 
L 201.289246 -218.988133 
L 195.077743 -219.619127 
L 188.86624 -218.895147 
L 182.654737 -219.901191 
L 176.443235 -218.623668 
L 170.231732 -218.608824 
L 164.020229 -218.7735 
L 157.808726 -219.740863 
L 151.597224 -218.431105 
L 145.385721 -219.778074 
L 139.174218 -219.780882 
L 132.962715 -219.764466 
L 126.751212 -219.124406 
L 120.53971 -219.731815 
L 114.328207 -219.626241 
L 108.116704 -218.67598 
L 101.905201 -217.498802 
L 95.693699 -218.639048 
L 89.482196 -219.691983 
L 83.270693 -219.732496 
L 77.05919 -219.262177 
L 70.847687 -216.377297 
L 64.636185 -213.67759 
L 58.424682 -101.010466 
z
" id="m08907fea62" style="stroke:#c44e52;stroke-opacity:0.2;stroke-width:0.8;"/>
    </defs>
    <g clip-path="url(#p28a0028451)">
     <use style="fill:#c44e52;fill-opacity:0.2;stroke:#c44e52;stroke-opacity:0.2;stroke-width:0.8;" x="0" xlink:href="#m08907fea62" y="273.955875"/>
    </g>
   </g>
   <g id="PolyCollection_5">
    <defs>
     <path d="M 58.424682 -101.18461 
L 58.424682 -65.571964 
L 64.636185 -207.524539 
L 70.847687 -205.046491 
L 77.05919 -203.140932 
L 83.270693 -209.757886 
L 89.482196 -210.019437 
L 95.693699 -203.494116 
L 101.905201 -201.193761 
L 108.116704 -210.683954 
L 114.328207 -209.076409 
L 120.53971 -207.866722 
L 126.751212 -210.153172 
L 132.962715 -210.443235 
L 139.174218 -209.970139 
L 145.385721 -208.940054 
L 151.597224 -209.640137 
L 157.808726 -209.025141 
L 164.020229 -207.389252 
L 170.231732 -210.486033 
L 176.443235 -207.717425 
L 182.654737 -210.599556 
L 188.86624 -208.02876 
L 195.077743 -209.796998 
L 201.289246 -210.435689 
L 207.500749 -209.967901 
L 213.712251 -210.9097 
L 219.923754 -210.652818 
L 226.135257 -210.758484 
L 232.34676 -210.73838 
L 238.558263 -210.527789 
L 244.769765 -209.600397 
L 250.981268 -210.58631 
L 257.192771 -210.26961 
L 263.404274 -210.408465 
L 269.615776 -210.603907 
L 275.827279 -210.858855 
L 282.038782 -210.615715 
L 288.250285 -210.576878 
L 294.461788 -210.722678 
L 300.67329 -210.322461 
L 306.884793 -211.23623 
L 313.096296 -208.682347 
L 319.307799 -210.378526 
L 325.519301 -210.82301 
L 331.730804 -210.329904 
L 337.942307 -210.735004 
L 344.15381 -210.727148 
L 350.365313 -211.063745 
L 356.576815 -211.114982 
L 362.788318 -210.85222 
L 362.788318 -224.158157 
L 362.788318 -224.158157 
L 356.576815 -224.46291 
L 350.365313 -224.277393 
L 344.15381 -224.14677 
L 337.942307 -224.16878 
L 331.730804 -224.013104 
L 325.519301 -224.144492 
L 319.307799 -224.001885 
L 313.096296 -223.916724 
L 306.884793 -224.297388 
L 300.67329 -223.989116 
L 294.461788 -223.997923 
L 288.250285 -224.010405 
L 282.038782 -225.229778 
L 275.827279 -223.99765 
L 269.615776 -223.974645 
L 263.404274 -224.259515 
L 257.192771 -224.220753 
L 250.981268 -224.047355 
L 244.769765 -223.953943 
L 238.558263 -223.743079 
L 232.34676 -224.071584 
L 226.135257 -223.987367 
L 219.923754 -224.133633 
L 213.712251 -223.964696 
L 207.500749 -222.702105 
L 201.289246 -223.878836 
L 195.077743 -223.530813 
L 188.86624 -223.886029 
L 182.654737 -223.882029 
L 176.443235 -222.211959 
L 170.231732 -223.63543 
L 164.020229 -222.839144 
L 157.808726 -223.634193 
L 151.597224 -222.767723 
L 145.385721 -222.135581 
L 139.174218 -223.371246 
L 132.962715 -223.848859 
L 126.751212 -223.851712 
L 120.53971 -222.711291 
L 114.328207 -223.491571 
L 108.116704 -224.060254 
L 101.905201 -221.871707 
L 95.693699 -220.485611 
L 89.482196 -223.547315 
L 83.270693 -223.453353 
L 77.05919 -222.442768 
L 70.847687 -221.825812 
L 64.636185 -221.580746 
L 58.424682 -101.18461 
z
" id="md6d23edb64" style="stroke:#8172b3;stroke-opacity:0.2;stroke-width:0.8;"/>
    </defs>
    <g clip-path="url(#p28a0028451)">
     <use style="fill:#8172b3;fill-opacity:0.2;stroke:#8172b3;stroke-opacity:0.2;stroke-width:0.8;" x="0" xlink:href="#md6d23edb64" y="273.955875"/>
    </g>
   </g>
   <g id="line2d_13">
    <path clip-path="url(#p28a0028451)" d="M 58.424682 193.404181 
L 64.636185 211.488512 
L 70.847687 155.518992 
L 77.05919 88.529494 
L 83.270693 56.804014 
L 89.482196 37.336703 
L 95.693699 36.093684 
L 101.905201 30.095538 
L 108.116704 30.085765 
L 114.328207 30.226635 
L 120.53971 30.074822 
L 126.751212 30.185943 
L 132.962715 30.161017 
L 139.174218 30.073435 
L 145.385721 30.072202 
L 151.597224 30.072311 
L 157.808726 30.072139 
L 164.020229 30.07214 
L 170.231732 30.072137 
L 176.443235 30.072976 
L 182.654737 30.072458 
L 188.86624 30.072138 
L 195.077743 30.072142 
L 201.289246 30.072355 
L 207.500749 30.072148 
L 213.712251 30.072136 
L 219.923754 30.072138 
L 226.135257 30.072137 
L 232.34676 30.072137 
L 238.558263 30.072137 
L 244.769765 30.083534 
L 250.981268 30.072136 
L 257.192771 30.072136 
L 263.404274 30.07214 
L 269.615776 30.072136 
L 275.827279 30.072137 
L 282.038782 30.072136 
L 288.250285 30.072136 
L 294.461788 30.072136 
L 300.67329 30.072136 
L 306.884793 30.072136 
L 313.096296 30.072136 
L 319.307799 30.072137 
L 325.519301 30.072393 
L 331.730804 30.072136 
L 337.942307 30.072136 
L 344.15381 30.072136 
L 350.365313 30.072144 
L 356.576815 30.072136 
L 362.788318 30.072136 
" style="fill:none;stroke:#4c72b0;stroke-linecap:round;stroke-width:1.2;"/>
   </g>
   <g id="line2d_14">
    <path clip-path="url(#p28a0028451)" d="M 58.424682 35.454722 
L 64.636185 52.576438 
L 70.847687 61.577663 
L 77.05919 60.953827 
L 83.270693 65.277608 
L 89.482196 64.103105 
L 95.693699 65.092878 
L 101.905201 66.063095 
L 108.116704 65.829677 
L 114.328207 67.123346 
L 120.53971 66.220188 
L 126.751212 65.931345 
L 132.962715 65.007526 
L 139.174218 66.304245 
L 145.385721 66.077899 
L 151.597224 65.69505 
L 157.808726 66.167134 
L 164.020229 66.408292 
L 170.231732 65.892819 
L 176.443235 65.561712 
L 182.654737 67.296929 
L 188.86624 65.893689 
L 195.077743 65.724109 
L 201.289246 65.397749 
L 207.500749 66.407408 
L 213.712251 65.55592 
L 219.923754 65.136416 
L 226.135257 67.269616 
L 232.34676 66.353916 
L 238.558263 64.802284 
L 244.769765 64.630951 
L 250.981268 64.687656 
L 257.192771 65.425333 
L 263.404274 64.77433 
L 269.615776 65.996941 
L 275.827279 64.350273 
L 282.038782 65.199466 
L 288.250285 64.144042 
L 294.461788 64.808871 
L 300.67329 64.461524 
L 306.884793 64.490392 
L 313.096296 64.359771 
L 319.307799 64.406549 
L 325.519301 64.803632 
L 331.730804 64.697502 
L 337.942307 64.174888 
L 344.15381 64.440573 
L 350.365313 63.708431 
L 356.576815 63.899177 
L 362.788318 63.950955 
" style="fill:none;stroke:#dd8452;stroke-linecap:round;stroke-width:1.2;"/>
   </g>
   <g id="line2d_15">
    <path clip-path="url(#p28a0028451)" d="M 58.424682 194.05419 
L 64.636185 103.733285 
L 70.847687 101.351347 
L 77.05919 79.83442 
L 83.270693 80.378457 
L 89.482196 67.095666 
L 95.693699 70.424118 
L 101.905201 65.587413 
L 108.116704 71.392885 
L 114.328207 74.369181 
L 120.53971 77.455117 
L 126.751212 74.02278 
L 132.962715 69.138394 
L 139.174218 69.906491 
L 145.385721 71.946434 
L 151.597224 73.656479 
L 157.808726 63.872816 
L 164.020229 72.705319 
L 170.231732 66.960808 
L 176.443235 66.563779 
L 182.654737 72.137009 
L 188.86624 68.746729 
L 195.077743 66.39171 
L 201.289246 76.445223 
L 207.500749 73.233995 
L 213.712251 77.434224 
L 219.923754 68.086675 
L 226.135257 68.361606 
L 232.34676 70.217662 
L 238.558263 70.705472 
L 244.769765 71.427248 
L 250.981268 74.018591 
L 257.192771 85.662925 
L 263.404274 82.284299 
L 269.615776 76.998489 
L 275.827279 71.882609 
L 282.038782 71.796313 
L 288.250285 69.874486 
L 294.461788 71.455486 
L 300.67329 71.800723 
L 306.884793 75.396284 
L 313.096296 76.338355 
L 319.307799 78.346863 
L 325.519301 82.548811 
L 331.730804 74.864108 
L 337.942307 65.72721 
L 344.15381 70.947459 
L 350.365313 72.61081 
L 356.576815 79.585913 
L 362.788318 73.234547 
" style="fill:none;stroke:#55a868;stroke-linecap:round;stroke-width:1.2;"/>
   </g>
   <g id="line2d_16">
    <path clip-path="url(#p28a0028451)" d="M 58.424682 189.698222 
L 64.636185 71.038976 
L 70.847687 66.995145 
L 77.05919 61.008537 
L 83.270693 60.790841 
L 89.482196 60.820204 
L 95.693699 62.347336 
L 101.905201 64.353302 
L 108.116704 61.585584 
L 114.328207 60.792052 
L 120.53971 60.790819 
L 126.751212 61.29848 
L 132.962715 60.792728 
L 139.174218 60.790858 
L 145.385721 60.79082 
L 151.597224 64.581974 
L 157.808726 60.927186 
L 164.020229 61.297815 
L 170.231732 60.790933 
L 176.443235 60.790818 
L 182.654737 60.792863 
L 188.86624 60.791045 
L 195.077743 60.959153 
L 201.289246 60.791455 
L 207.500749 60.843914 
L 213.712251 60.792914 
L 219.923754 61.115059 
L 226.135257 60.790886 
L 232.34676 60.79082 
L 238.558263 60.790818 
L 244.769765 62.945229 
L 250.981268 60.798988 
L 257.192771 61.051188 
L 263.404274 60.5172 
L 269.615776 63.985847 
L 275.827279 60.521851 
L 282.038782 60.791045 
L 288.250285 60.570849 
L 294.461788 60.52162 
L 300.67329 60.52162 
L 306.884793 60.539448 
L 313.096296 60.52162 
L 319.307799 60.970345 
L 325.519301 62.599497 
L 331.730804 60.745586 
L 337.942307 60.9296 
L 344.15381 60.056076 
L 350.365313 61.277772 
L 356.576815 62.278487 
L 362.788318 65.587894 
" style="fill:none;stroke:#c44e52;stroke-linecap:round;stroke-width:1.2;"/>
   </g>
   <g id="line2d_17">
    <path clip-path="url(#p28a0028451)" d="M 58.424682 190.40412 
L 64.636185 59.447897 
L 70.847687 60.768128 
L 77.05919 60.8068 
L 83.270693 57.384214 
L 89.482196 57.479745 
L 95.693699 61.794445 
L 101.905201 61.060684 
L 108.116704 56.677563 
L 114.328207 57.611193 
L 120.53971 58.316259 
L 126.751212 57.208146 
L 132.962715 56.749632 
L 139.174218 57.676069 
L 145.385721 58.451041 
L 151.597224 57.721167 
L 157.808726 58.080771 
L 164.020229 58.521888 
L 170.231732 57.048458 
L 176.443235 59.040732 
L 182.654737 56.773113 
L 188.86624 58.06099 
L 195.077743 57.431628 
L 201.289246 56.796847 
L 207.500749 57.881095 
L 213.712251 56.668602 
L 219.923754 56.627756 
L 226.135257 56.648604 
L 232.34676 56.625927 
L 238.558263 56.901537 
L 244.769765 57.725052 
L 250.981268 56.627623 
L 257.192771 56.979515 
L 263.404274 56.908074 
L 269.615776 56.638653 
L 275.827279 56.624652 
L 282.038782 56.624933 
L 288.250285 56.624403 
L 294.461788 56.624451 
L 300.67329 57.136084 
L 306.884793 56.354031 
L 313.096296 58.104986 
L 319.307799 56.888439 
L 325.519301 56.62685 
L 331.730804 56.784217 
L 337.942307 56.532151 
L 344.15381 56.624614 
L 350.365313 56.355012 
L 356.576815 56.354032 
L 362.788318 56.354032 
" style="fill:none;stroke:#8172b3;stroke-linecap:round;stroke-width:1.2;"/>
   </g>
   <g id="line2d_18"/>
   <g id="line2d_19"/>
   <g id="line2d_20"/>
   <g id="line2d_21"/>
   <g id="line2d_22"/>
   <g id="line2d_23"/>
   <g id="patch_3">
    <path d="M 43.2065 237.6285 
L 43.2065 20.1885 
" style="fill:none;stroke:#ffffff;stroke-linecap:square;stroke-linejoin:miter;"/>
   </g>
   <g id="patch_4">
    <path d="M 378.0065 237.6285 
L 378.0065 20.1885 
" style="fill:none;stroke:#ffffff;stroke-linecap:square;stroke-linejoin:miter;"/>
   </g>
   <g id="patch_5">
    <path d="M 43.2065 237.6285 
L 378.0065 237.6285 
" style="fill:none;stroke:#ffffff;stroke-linecap:square;stroke-linejoin:miter;"/>
   </g>
   <g id="patch_6">
    <path d="M 43.2065 20.1885 
L 378.0065 20.1885 
" style="fill:none;stroke:#ffffff;stroke-linecap:square;stroke-linejoin:miter;"/>
   </g>
   <g id="text_15">
    <!-- Cumulative Discounted Rewards across Agents (Training period) -->
    <defs>
     <path d="M 58.796875 25.09375 
L 68.265625 22.703125 
Q 65.28125 11.03125 57.546875 4.90625 
Q 49.8125 -1.21875 38.625 -1.21875 
Q 27.046875 -1.21875 19.796875 3.484375 
Q 12.546875 8.203125 8.765625 17.140625 
Q 4.984375 26.078125 4.984375 36.328125 
Q 4.984375 47.515625 9.25 55.828125 
Q 13.53125 64.15625 21.40625 68.46875 
Q 29.296875 72.796875 38.765625 72.796875 
Q 49.515625 72.796875 56.828125 67.328125 
Q 64.15625 61.859375 67.046875 51.953125 
L 57.71875 49.75 
Q 55.21875 57.5625 50.484375 61.125 
Q 45.75 64.703125 38.578125 64.703125 
Q 30.328125 64.703125 24.78125 60.734375 
Q 19.234375 56.78125 16.984375 50.109375 
Q 14.75 43.453125 14.75 36.375 
Q 14.75 27.25 17.40625 20.4375 
Q 20.0625 13.625 25.671875 10.25 
Q 31.296875 6.890625 37.84375 6.890625 
Q 45.796875 6.890625 51.3125 11.46875 
Q 56.84375 16.0625 58.796875 25.09375 
z
" id="ArialMT-67"/>
     <path d="M 40.578125 0 
L 40.578125 7.625 
Q 34.515625 -1.171875 24.125 -1.171875 
Q 19.53125 -1.171875 15.546875 0.578125 
Q 11.578125 2.34375 9.640625 5 
Q 7.71875 7.671875 6.9375 11.53125 
Q 6.390625 14.109375 6.390625 19.734375 
L 6.390625 51.859375 
L 15.1875 51.859375 
L 15.1875 23.09375 
Q 15.1875 16.21875 15.71875 13.8125 
Q 16.546875 10.359375 19.234375 8.375 
Q 21.921875 6.390625 25.875 6.390625 
Q 29.828125 6.390625 33.296875 8.421875 
Q 36.765625 10.453125 38.203125 13.9375 
Q 39.65625 17.4375 39.65625 24.078125 
L 39.65625 51.859375 
L 48.4375 51.859375 
L 48.4375 0 
z
" id="ArialMT-117"/>
     <path d="M 6.59375 0 
L 6.59375 51.859375 
L 14.453125 51.859375 
L 14.453125 44.578125 
Q 16.890625 48.390625 20.9375 50.703125 
Q 25 53.03125 30.171875 53.03125 
Q 35.9375 53.03125 39.625 50.640625 
Q 43.3125 48.25 44.828125 43.953125 
Q 50.984375 53.03125 60.84375 53.03125 
Q 68.5625 53.03125 72.703125 48.75 
Q 76.859375 44.484375 76.859375 35.59375 
L 76.859375 0 
L 68.109375 0 
L 68.109375 32.671875 
Q 68.109375 37.9375 67.25 40.25 
Q 66.40625 42.578125 64.15625 43.984375 
Q 61.921875 45.40625 58.890625 45.40625 
Q 53.421875 45.40625 49.796875 41.765625 
Q 46.1875 38.140625 46.1875 30.125 
L 46.1875 0 
L 37.40625 0 
L 37.40625 33.6875 
Q 37.40625 39.546875 35.25 42.46875 
Q 33.109375 45.40625 28.21875 45.40625 
Q 24.515625 45.40625 21.359375 43.453125 
Q 18.21875 41.5 16.796875 37.734375 
Q 15.375 33.984375 15.375 26.90625 
L 15.375 0 
z
" id="ArialMT-109"/>
     <path d="M 6.390625 0 
L 6.390625 71.578125 
L 15.1875 71.578125 
L 15.1875 0 
z
" id="ArialMT-108"/>
     <path d="M 25.78125 7.859375 
L 27.046875 0.09375 
Q 23.34375 -0.6875 20.40625 -0.6875 
Q 15.625 -0.6875 12.984375 0.828125 
Q 10.359375 2.34375 9.28125 4.8125 
Q 8.203125 7.28125 8.203125 15.1875 
L 8.203125 45.015625 
L 1.765625 45.015625 
L 1.765625 51.859375 
L 8.203125 51.859375 
L 8.203125 64.703125 
L 16.9375 69.96875 
L 16.9375 51.859375 
L 25.78125 51.859375 
L 25.78125 45.015625 
L 16.9375 45.015625 
L 16.9375 14.703125 
Q 16.9375 10.9375 17.40625 9.859375 
Q 17.875 8.796875 18.921875 8.15625 
Q 19.96875 7.515625 21.921875 7.515625 
Q 23.390625 7.515625 25.78125 7.859375 
z
" id="ArialMT-116"/>
     <path d="M 21 0 
L 1.265625 51.859375 
L 10.546875 51.859375 
L 21.6875 20.796875 
Q 23.484375 15.765625 25 10.359375 
Q 26.171875 14.453125 28.265625 20.21875 
L 39.796875 51.859375 
L 48.828125 51.859375 
L 29.203125 0 
z
" id="ArialMT-118"/>
     <path id="ArialMT-32"/>
     <path d="M 7.71875 0 
L 7.71875 71.578125 
L 32.375 71.578125 
Q 40.71875 71.578125 45.125 70.5625 
Q 51.265625 69.140625 55.609375 65.4375 
Q 61.28125 60.640625 64.078125 53.1875 
Q 66.890625 45.75 66.890625 36.1875 
Q 66.890625 28.03125 64.984375 21.734375 
Q 63.09375 15.4375 60.109375 11.296875 
Q 57.125 7.171875 53.578125 4.796875 
Q 50.046875 2.4375 45.046875 1.21875 
Q 40.046875 0 33.546875 0 
z
M 17.1875 8.453125 
L 32.46875 8.453125 
Q 39.546875 8.453125 43.578125 9.765625 
Q 47.609375 11.078125 50 13.484375 
Q 53.375 16.84375 55.25 22.53125 
Q 57.125 28.21875 57.125 36.328125 
Q 57.125 47.5625 53.4375 53.59375 
Q 49.75 59.625 44.484375 61.671875 
Q 40.671875 63.140625 32.234375 63.140625 
L 17.1875 63.140625 
z
" id="ArialMT-68"/>
     <path d="M 40.4375 19 
L 49.078125 17.875 
Q 47.65625 8.9375 41.8125 3.875 
Q 35.984375 -1.171875 27.484375 -1.171875 
Q 16.84375 -1.171875 10.375 5.78125 
Q 3.90625 12.75 3.90625 25.734375 
Q 3.90625 34.125 6.6875 40.421875 
Q 9.46875 46.734375 15.15625 49.875 
Q 20.84375 53.03125 27.546875 53.03125 
Q 35.984375 53.03125 41.359375 48.75 
Q 46.734375 44.484375 48.25 36.625 
L 39.703125 35.296875 
Q 38.484375 40.53125 35.375 43.15625 
Q 32.28125 45.796875 27.875 45.796875 
Q 21.234375 45.796875 17.078125 41.03125 
Q 12.9375 36.28125 12.9375 25.984375 
Q 12.9375 15.53125 16.9375 10.796875 
Q 20.953125 6.0625 27.390625 6.0625 
Q 32.5625 6.0625 36.03125 9.234375 
Q 39.5 12.40625 40.4375 19 
z
" id="ArialMT-99"/>
     <path d="M 6.59375 0 
L 6.59375 51.859375 
L 14.5 51.859375 
L 14.5 44.484375 
Q 20.21875 53.03125 31 53.03125 
Q 35.6875 53.03125 39.625 51.34375 
Q 43.5625 49.65625 45.515625 46.921875 
Q 47.46875 44.1875 48.25 40.4375 
Q 48.734375 37.984375 48.734375 31.890625 
L 48.734375 0 
L 39.9375 0 
L 39.9375 31.546875 
Q 39.9375 36.921875 38.90625 39.578125 
Q 37.890625 42.234375 35.28125 43.8125 
Q 32.671875 45.40625 29.15625 45.40625 
Q 23.53125 45.40625 19.453125 41.84375 
Q 15.375 38.28125 15.375 28.328125 
L 15.375 0 
z
" id="ArialMT-110"/>
     <path d="M -0.140625 0 
L 27.34375 71.578125 
L 37.546875 71.578125 
L 66.84375 0 
L 56.0625 0 
L 47.703125 21.6875 
L 17.78125 21.6875 
L 9.90625 0 
z
M 20.515625 29.390625 
L 44.78125 29.390625 
L 37.3125 49.21875 
Q 33.890625 58.25 32.234375 64.0625 
Q 30.859375 57.171875 28.375 50.390625 
z
" id="ArialMT-65"/>
     <path d="M 4.984375 -4.296875 
L 13.53125 -5.5625 
Q 14.0625 -9.515625 16.5 -11.328125 
Q 19.78125 -13.765625 25.4375 -13.765625 
Q 31.546875 -13.765625 34.859375 -11.328125 
Q 38.1875 -8.890625 39.359375 -4.5 
Q 40.046875 -1.8125 39.984375 6.78125 
Q 34.234375 0 25.640625 0 
Q 14.9375 0 9.078125 7.71875 
Q 3.21875 15.4375 3.21875 26.21875 
Q 3.21875 33.640625 5.90625 39.90625 
Q 8.59375 46.1875 13.6875 49.609375 
Q 18.796875 53.03125 25.6875 53.03125 
Q 34.859375 53.03125 40.828125 45.609375 
L 40.828125 51.859375 
L 48.921875 51.859375 
L 48.921875 7.03125 
Q 48.921875 -5.078125 46.453125 -10.125 
Q 44 -15.1875 38.640625 -18.109375 
Q 33.296875 -21.046875 25.484375 -21.046875 
Q 16.21875 -21.046875 10.5 -16.875 
Q 4.78125 -12.703125 4.984375 -4.296875 
z
M 12.25 26.859375 
Q 12.25 16.65625 16.296875 11.96875 
Q 20.359375 7.28125 26.46875 7.28125 
Q 32.515625 7.28125 36.609375 11.9375 
Q 40.71875 16.609375 40.71875 26.5625 
Q 40.71875 36.078125 36.5 40.90625 
Q 32.28125 45.75 26.3125 45.75 
Q 20.453125 45.75 16.34375 40.984375 
Q 12.25 36.234375 12.25 26.859375 
z
" id="ArialMT-103"/>
     <path d="M 23.390625 -21.046875 
Q 16.109375 -11.859375 11.078125 0.4375 
Q 6.0625 12.75 6.0625 25.921875 
Q 6.0625 37.546875 9.8125 48.1875 
Q 14.203125 60.546875 23.390625 72.796875 
L 29.6875 72.796875 
Q 23.78125 62.640625 21.875 58.296875 
Q 18.890625 51.5625 17.1875 44.234375 
Q 15.09375 35.109375 15.09375 25.875 
Q 15.09375 2.390625 29.6875 -21.046875 
z
" id="ArialMT-40"/>
     <path d="M 25.921875 0 
L 25.921875 63.140625 
L 2.34375 63.140625 
L 2.34375 71.578125 
L 59.078125 71.578125 
L 59.078125 63.140625 
L 35.40625 63.140625 
L 35.40625 0 
z
" id="ArialMT-84"/>
     <path d="M 12.359375 -21.046875 
L 6.0625 -21.046875 
Q 20.65625 2.390625 20.65625 25.875 
Q 20.65625 35.0625 18.5625 44.09375 
Q 16.890625 51.421875 13.921875 58.15625 
Q 12.015625 62.546875 6.0625 72.796875 
L 12.359375 72.796875 
Q 21.53125 60.546875 25.921875 48.1875 
Q 29.6875 37.546875 29.6875 25.921875 
Q 29.6875 12.75 24.625 0.4375 
Q 19.578125 -11.859375 12.359375 -21.046875 
z
" id="ArialMT-41"/>
    </defs>
    <g style="fill:#262626;" transform="translate(72.6935 14.1885)scale(0.096 -0.096)">
     <use xlink:href="#ArialMT-67"/>
     <use x="72.216797" xlink:href="#ArialMT-117"/>
     <use x="127.832031" xlink:href="#ArialMT-109"/>
     <use x="211.132812" xlink:href="#ArialMT-117"/>
     <use x="266.748047" xlink:href="#ArialMT-108"/>
     <use x="288.964844" xlink:href="#ArialMT-97"/>
     <use x="344.580078" xlink:href="#ArialMT-116"/>
     <use x="372.363281" xlink:href="#ArialMT-105"/>
     <use x="394.580078" xlink:href="#ArialMT-118"/>
     <use x="444.580078" xlink:href="#ArialMT-101"/>
     <use x="500.195312" xlink:href="#ArialMT-32"/>
     <use x="527.978516" xlink:href="#ArialMT-68"/>
     <use x="600.195312" xlink:href="#ArialMT-105"/>
     <use x="622.412109" xlink:href="#ArialMT-115"/>
     <use x="672.412109" xlink:href="#ArialMT-99"/>
     <use x="722.412109" xlink:href="#ArialMT-111"/>
     <use x="778.027344" xlink:href="#ArialMT-117"/>
     <use x="833.642578" xlink:href="#ArialMT-110"/>
     <use x="889.257812" xlink:href="#ArialMT-116"/>
     <use x="917.041016" xlink:href="#ArialMT-101"/>
     <use x="972.65625" xlink:href="#ArialMT-100"/>
     <use x="1028.271484" xlink:href="#ArialMT-32"/>
     <use x="1056.054688" xlink:href="#ArialMT-82"/>
     <use x="1128.271484" xlink:href="#ArialMT-101"/>
     <use x="1183.886719" xlink:href="#ArialMT-119"/>
     <use x="1256.103516" xlink:href="#ArialMT-97"/>
     <use x="1311.71875" xlink:href="#ArialMT-114"/>
     <use x="1345.019531" xlink:href="#ArialMT-100"/>
     <use x="1400.634766" xlink:href="#ArialMT-115"/>
     <use x="1450.634766" xlink:href="#ArialMT-32"/>
     <use x="1478.417969" xlink:href="#ArialMT-97"/>
     <use x="1534.033203" xlink:href="#ArialMT-99"/>
     <use x="1584.033203" xlink:href="#ArialMT-114"/>
     <use x="1617.333984" xlink:href="#ArialMT-111"/>
     <use x="1672.949219" xlink:href="#ArialMT-115"/>
     <use x="1722.949219" xlink:href="#ArialMT-115"/>
     <use x="1772.949219" xlink:href="#ArialMT-32"/>
     <use x="1800.654297" xlink:href="#ArialMT-65"/>
     <use x="1867.353516" xlink:href="#ArialMT-103"/>
     <use x="1922.96875" xlink:href="#ArialMT-101"/>
     <use x="1978.583984" xlink:href="#ArialMT-110"/>
     <use x="2034.199219" xlink:href="#ArialMT-116"/>
     <use x="2061.982422" xlink:href="#ArialMT-115"/>
     <use x="2111.982422" xlink:href="#ArialMT-32"/>
     <use x="2139.765625" xlink:href="#ArialMT-40"/>
     <use x="2173.066406" xlink:href="#ArialMT-84"/>
     <use x="2234.103516" xlink:href="#ArialMT-114"/>
     <use x="2267.404297" xlink:href="#ArialMT-97"/>
     <use x="2323.019531" xlink:href="#ArialMT-105"/>
     <use x="2345.236328" xlink:href="#ArialMT-110"/>
     <use x="2400.851562" xlink:href="#ArialMT-105"/>
     <use x="2423.068359" xlink:href="#ArialMT-110"/>
     <use x="2478.683594" xlink:href="#ArialMT-103"/>
     <use x="2534.298828" xlink:href="#ArialMT-32"/>
     <use x="2562.082031" xlink:href="#ArialMT-112"/>
     <use x="2617.697266" xlink:href="#ArialMT-101"/>
     <use x="2673.3125" xlink:href="#ArialMT-114"/>
     <use x="2706.613281" xlink:href="#ArialMT-105"/>
     <use x="2728.830078" xlink:href="#ArialMT-111"/>
     <use x="2784.445312" xlink:href="#ArialMT-100"/>
     <use x="2840.060547" xlink:href="#ArialMT-41"/>
    </g>
   </g>
   <g id="legend_1">
    <g id="patch_7">
     <path d="M 400.9065 102.131625 
L 529.8045 102.131625 
Q 531.5645 102.131625 531.5645 100.371625 
L 531.5645 26.3485 
Q 531.5645 24.5885 529.8045 24.5885 
L 400.9065 24.5885 
Q 399.1465 24.5885 399.1465 26.3485 
L 399.1465 100.371625 
Q 399.1465 102.131625 400.9065 102.131625 
z
" style="fill:#eaeaf2;opacity:0.8;stroke:#cccccc;stroke-linejoin:miter;stroke-width:0.8;"/>
    </g>
    <g id="line2d_24">
     <path d="M 402.6665 31.327375 
L 420.2665 31.327375 
" style="fill:none;"/>
    </g>
    <g id="line2d_25"/>
    <g id="text_16">
     <!-- agent -->
     <g style="fill:#262626;" transform="translate(427.3065 34.407375)scale(0.088 -0.088)">
      <use xlink:href="#ArialMT-97"/>
      <use x="55.615234" xlink:href="#ArialMT-103"/>
      <use x="111.230469" xlink:href="#ArialMT-101"/>
      <use x="166.845703" xlink:href="#ArialMT-110"/>
      <use x="222.460938" xlink:href="#ArialMT-116"/>
     </g>
    </g>
    <g id="line2d_26">
     <path d="M 402.6665 43.878375 
L 420.2665 43.878375 
" style="fill:none;stroke:#4c72b0;stroke-linecap:round;stroke-width:1.2;"/>
    </g>
    <g id="line2d_27"/>
    <g id="text_17">
     <!-- A2C -->
     <g style="fill:#262626;" transform="translate(427.3065 46.958375)scale(0.088 -0.088)">
      <use xlink:href="#ArialMT-65"/>
      <use x="66.699219" xlink:href="#ArialMT-50"/>
      <use x="122.314453" xlink:href="#ArialMT-67"/>
     </g>
    </g>
    <g id="line2d_28">
     <path d="M 402.6665 56.32625 
L 420.2665 56.32625 
" style="fill:none;stroke:#dd8452;stroke-linecap:round;stroke-width:1.2;"/>
    </g>
    <g id="line2d_29"/>
    <g id="text_18">
     <!-- DDPG -->
     <defs>
      <path d="M 7.71875 0 
L 7.71875 71.578125 
L 34.71875 71.578125 
Q 41.84375 71.578125 45.609375 70.90625 
Q 50.875 70.015625 54.4375 67.546875 
Q 58.015625 65.09375 60.1875 60.640625 
Q 62.359375 56.203125 62.359375 50.875 
Q 62.359375 41.75 56.546875 35.421875 
Q 50.734375 29.109375 35.546875 29.109375 
L 17.1875 29.109375 
L 17.1875 0 
z
M 17.1875 37.546875 
L 35.6875 37.546875 
Q 44.875 37.546875 48.734375 40.96875 
Q 52.59375 44.390625 52.59375 50.59375 
Q 52.59375 55.078125 50.3125 58.265625 
Q 48.046875 61.46875 44.34375 62.5 
Q 41.9375 63.140625 35.5 63.140625 
L 17.1875 63.140625 
z
" id="ArialMT-80"/>
      <path d="M 41.21875 28.078125 
L 41.21875 36.46875 
L 71.53125 36.53125 
L 71.53125 9.96875 
Q 64.546875 4.390625 57.125 1.578125 
Q 49.703125 -1.21875 41.890625 -1.21875 
Q 31.34375 -1.21875 22.71875 3.296875 
Q 14.109375 7.8125 9.71875 16.359375 
Q 5.328125 24.90625 5.328125 35.453125 
Q 5.328125 45.90625 9.6875 54.953125 
Q 14.0625 64.015625 22.265625 68.40625 
Q 30.46875 72.796875 41.15625 72.796875 
Q 48.921875 72.796875 55.1875 70.28125 
Q 61.46875 67.78125 65.03125 63.28125 
Q 68.609375 58.796875 70.453125 51.5625 
L 61.921875 49.21875 
Q 60.296875 54.6875 57.90625 57.8125 
Q 55.515625 60.9375 51.0625 62.8125 
Q 46.625 64.703125 41.21875 64.703125 
Q 34.71875 64.703125 29.984375 62.71875 
Q 25.25 60.75 22.34375 57.515625 
Q 19.4375 54.296875 17.828125 50.4375 
Q 15.09375 43.796875 15.09375 36.03125 
Q 15.09375 26.46875 18.390625 20.015625 
Q 21.6875 13.578125 27.984375 10.453125 
Q 34.28125 7.328125 41.359375 7.328125 
Q 47.515625 7.328125 53.375 9.6875 
Q 59.234375 12.0625 62.25 14.75 
L 62.25 28.078125 
z
" id="ArialMT-71"/>
     </defs>
     <g style="fill:#262626;" transform="translate(427.3065 59.40625)scale(0.088 -0.088)">
      <use xlink:href="#ArialMT-68"/>
      <use x="72.216797" xlink:href="#ArialMT-68"/>
      <use x="144.433594" xlink:href="#ArialMT-80"/>
      <use x="211.132812" xlink:href="#ArialMT-71"/>
     </g>
    </g>
    <g id="line2d_30">
     <path d="M 402.6665 68.886875 
L 420.2665 68.886875 
" style="fill:none;stroke:#55a868;stroke-linecap:round;stroke-width:1.2;"/>
    </g>
    <g id="line2d_31"/>
    <g id="text_19">
     <!-- Deep Q-Network -->
     <defs>
      <path d="M 61.96875 7.671875 
Q 68.5625 3.125 74.125 1.03125 
L 71.34375 -5.5625 
Q 63.625 -2.78125 55.953125 3.21875 
Q 48 -1.21875 38.375 -1.21875 
Q 28.65625 -1.21875 20.75 3.46875 
Q 12.84375 8.15625 8.5625 16.640625 
Q 4.296875 25.140625 4.296875 35.796875 
Q 4.296875 46.390625 8.59375 55.078125 
Q 12.890625 63.765625 20.828125 68.3125 
Q 28.765625 72.859375 38.578125 72.859375 
Q 48.484375 72.859375 56.4375 68.140625 
Q 64.40625 63.421875 68.578125 54.953125 
Q 72.75 46.484375 72.75 35.84375 
Q 72.75 27 70.0625 19.9375 
Q 67.390625 12.890625 61.96875 7.671875 
z
M 41.109375 19.78125 
Q 49.3125 17.484375 54.640625 12.9375 
Q 62.984375 20.5625 62.984375 35.84375 
Q 62.984375 44.53125 60.03125 51.015625 
Q 57.078125 57.515625 51.390625 61.109375 
Q 45.703125 64.703125 38.625 64.703125 
Q 28.03125 64.703125 21.046875 57.453125 
Q 14.0625 50.203125 14.0625 35.796875 
Q 14.0625 21.828125 20.96875 14.359375 
Q 27.875 6.890625 38.625 6.890625 
Q 43.703125 6.890625 48.1875 8.796875 
Q 43.75 11.671875 38.8125 12.890625 
z
" id="ArialMT-81"/>
      <path d="M 3.171875 21.484375 
L 3.171875 30.328125 
L 30.171875 30.328125 
L 30.171875 21.484375 
z
" id="ArialMT-45"/>
      <path d="M 7.625 0 
L 7.625 71.578125 
L 17.328125 71.578125 
L 54.9375 15.375 
L 54.9375 71.578125 
L 64.015625 71.578125 
L 64.015625 0 
L 54.296875 0 
L 16.703125 56.25 
L 16.703125 0 
z
" id="ArialMT-78"/>
      <path d="M 6.640625 0 
L 6.640625 71.578125 
L 15.4375 71.578125 
L 15.4375 30.765625 
L 36.234375 51.859375 
L 47.609375 51.859375 
L 27.78125 32.625 
L 49.609375 0 
L 38.765625 0 
L 21.625 26.515625 
L 15.4375 20.5625 
L 15.4375 0 
z
" id="ArialMT-107"/>
     </defs>
     <g style="fill:#262626;" transform="translate(427.3065 71.966875)scale(0.088 -0.088)">
      <use xlink:href="#ArialMT-68"/>
      <use x="72.216797" xlink:href="#ArialMT-101"/>
      <use x="127.832031" xlink:href="#ArialMT-101"/>
      <use x="183.447266" xlink:href="#ArialMT-112"/>
      <use x="239.0625" xlink:href="#ArialMT-32"/>
      <use x="266.845703" xlink:href="#ArialMT-81"/>
      <use x="344.628906" xlink:href="#ArialMT-45"/>
      <use x="377.929688" xlink:href="#ArialMT-78"/>
      <use x="450.146484" xlink:href="#ArialMT-101"/>
      <use x="505.761719" xlink:href="#ArialMT-116"/>
      <use x="533.544922" xlink:href="#ArialMT-119"/>
      <use x="605.761719" xlink:href="#ArialMT-111"/>
      <use x="661.376953" xlink:href="#ArialMT-114"/>
      <use x="694.677734" xlink:href="#ArialMT-107"/>
     </g>
    </g>
    <g id="line2d_32">
     <path d="M 402.6665 81.33475 
L 420.2665 81.33475 
" style="fill:none;stroke:#c44e52;stroke-linecap:round;stroke-width:1.2;"/>
    </g>
    <g id="line2d_33"/>
    <g id="text_20">
     <!-- Model-based -->
     <defs>
      <path d="M 7.421875 0 
L 7.421875 71.578125 
L 21.6875 71.578125 
L 38.625 20.90625 
Q 40.96875 13.8125 42.046875 10.296875 
Q 43.265625 14.203125 45.84375 21.78125 
L 62.984375 71.578125 
L 75.734375 71.578125 
L 75.734375 0 
L 66.609375 0 
L 66.609375 59.90625 
L 45.796875 0 
L 37.25 0 
L 16.546875 60.9375 
L 16.546875 0 
z
" id="ArialMT-77"/>
      <path d="M 14.703125 0 
L 6.546875 0 
L 6.546875 71.578125 
L 15.328125 71.578125 
L 15.328125 46.046875 
Q 20.90625 53.03125 29.546875 53.03125 
Q 34.328125 53.03125 38.59375 51.09375 
Q 42.875 49.171875 45.625 45.671875 
Q 48.390625 42.1875 49.953125 37.25 
Q 51.515625 32.328125 51.515625 26.703125 
Q 51.515625 13.375 44.921875 6.09375 
Q 38.328125 -1.171875 29.109375 -1.171875 
Q 19.921875 -1.171875 14.703125 6.5 
z
M 14.59375 26.3125 
Q 14.59375 17 17.140625 12.84375 
Q 21.296875 6.0625 28.375 6.0625 
Q 34.125 6.0625 38.328125 11.0625 
Q 42.53125 16.0625 42.53125 25.984375 
Q 42.53125 36.140625 38.5 40.96875 
Q 34.46875 45.796875 28.765625 45.796875 
Q 23 45.796875 18.796875 40.796875 
Q 14.59375 35.796875 14.59375 26.3125 
z
" id="ArialMT-98"/>
     </defs>
     <g style="fill:#262626;" transform="translate(427.3065 84.41475)scale(0.088 -0.088)">
      <use xlink:href="#ArialMT-77"/>
      <use x="83.300781" xlink:href="#ArialMT-111"/>
      <use x="138.916016" xlink:href="#ArialMT-100"/>
      <use x="194.53125" xlink:href="#ArialMT-101"/>
      <use x="250.146484" xlink:href="#ArialMT-108"/>
      <use x="272.363281" xlink:href="#ArialMT-45"/>
      <use x="305.664062" xlink:href="#ArialMT-98"/>
      <use x="361.279297" xlink:href="#ArialMT-97"/>
      <use x="416.894531" xlink:href="#ArialMT-115"/>
      <use x="466.894531" xlink:href="#ArialMT-101"/>
      <use x="522.509766" xlink:href="#ArialMT-100"/>
     </g>
    </g>
    <g id="line2d_34">
     <path d="M 402.6665 93.782625 
L 420.2665 93.782625 
" style="fill:none;stroke:#8172b3;stroke-linecap:round;stroke-width:1.2;"/>
    </g>
    <g id="line2d_35"/>
    <g id="text_21">
     <!-- Model-based without Text -->
     <defs>
      <path d="M 6.59375 0 
L 6.59375 71.578125 
L 15.375 71.578125 
L 15.375 45.90625 
Q 21.53125 53.03125 30.90625 53.03125 
Q 36.671875 53.03125 40.921875 50.75 
Q 45.171875 48.484375 47 44.484375 
Q 48.828125 40.484375 48.828125 32.859375 
L 48.828125 0 
L 40.046875 0 
L 40.046875 32.859375 
Q 40.046875 39.453125 37.1875 42.453125 
Q 34.328125 45.453125 29.109375 45.453125 
Q 25.203125 45.453125 21.75 43.421875 
Q 18.3125 41.40625 16.84375 37.9375 
Q 15.375 34.46875 15.375 28.375 
L 15.375 0 
z
" id="ArialMT-104"/>
      <path d="M 0.734375 0 
L 19.671875 26.953125 
L 2.15625 51.859375 
L 13.140625 51.859375 
L 21.09375 39.703125 
Q 23.34375 36.234375 24.703125 33.890625 
Q 26.859375 37.109375 28.65625 39.59375 
L 37.40625 51.859375 
L 47.90625 51.859375 
L 29.984375 27.4375 
L 49.265625 0 
L 38.484375 0 
L 27.828125 16.109375 
L 25 20.453125 
L 11.375 0 
z
" id="ArialMT-120"/>
     </defs>
     <g style="fill:#262626;" transform="translate(427.3065 96.862625)scale(0.088 -0.088)">
      <use xlink:href="#ArialMT-77"/>
      <use x="83.300781" xlink:href="#ArialMT-111"/>
      <use x="138.916016" xlink:href="#ArialMT-100"/>
      <use x="194.53125" xlink:href="#ArialMT-101"/>
      <use x="250.146484" xlink:href="#ArialMT-108"/>
      <use x="272.363281" xlink:href="#ArialMT-45"/>
      <use x="305.664062" xlink:href="#ArialMT-98"/>
      <use x="361.279297" xlink:href="#ArialMT-97"/>
      <use x="416.894531" xlink:href="#ArialMT-115"/>
      <use x="466.894531" xlink:href="#ArialMT-101"/>
      <use x="522.509766" xlink:href="#ArialMT-100"/>
      <use x="578.125" xlink:href="#ArialMT-32"/>
      <use x="605.908203" xlink:href="#ArialMT-119"/>
      <use x="678.125" xlink:href="#ArialMT-105"/>
      <use x="700.341797" xlink:href="#ArialMT-116"/>
      <use x="728.125" xlink:href="#ArialMT-104"/>
      <use x="783.740234" xlink:href="#ArialMT-111"/>
      <use x="839.355469" xlink:href="#ArialMT-117"/>
      <use x="894.970703" xlink:href="#ArialMT-116"/>
      <use x="922.753906" xlink:href="#ArialMT-32"/>
      <use x="950.521484" xlink:href="#ArialMT-84"/>
      <use x="1011.433594" xlink:href="#ArialMT-101"/>
      <use x="1067.048828" xlink:href="#ArialMT-120"/>
      <use x="1117.048828" xlink:href="#ArialMT-116"/>
     </g>
    </g>
   </g>
  </g>
 </g>
 <defs>
  <clipPath id="p28a0028451">
   <rect height="217.44" width="334.8" x="43.2065" y="20.1885"/>
  </clipPath>
 </defs>
</svg>
